Neuton-Regular.ufo
<glyph name="exclam" format="1">
  <advance width="590"/>
  <unicode hex="0021"/>
  <outline>
    <contour>
      <point x="349" y="442" type="curve"/>
      <point x="349" y="434" type="line"/>
      <point x="241" y="458" type="line"/>
      <point x="241" y="462" type="line"/>
      <point x="211" y="854"/>
      <point x="177" y="1387"/>
      <point x="177" y="1520" type="curve" smooth="yes"/>
      <point x="177" y="1524" type="line"/>
      <point x="187" y="1558"/>
      <point x="293" y="1572"/>
      <point x="337" y="1572" type="curve" smooth="yes"/>
      <point x="369" y="1572"/>
      <point x="416" y="1562"/>
      <point x="416" y="1524" type="curve" smooth="yes"/>
      <point x="416" y="1319"/>
      <point x="381" y="834"/>
    </contour>
    <contour>
      <point x="448" y="110" type="curve" smooth="yes"/>
      <point x="448" y="24"/>
      <point x="379" y="-44"/>
      <point x="295" y="-44" type="curve" smooth="yes"/>
      <point x="211" y="-44"/>
      <point x="145" y="26"/>
      <point x="145" y="112" type="curve" smooth="yes"/>
      <point x="145" y="194"/>
      <point x="215" y="255"/>
      <point x="295" y="255" type="curve" smooth="yes"/>
      <point x="377" y="255"/>
      <point x="448" y="192"/>
    </contour>
  </outline>
</glyph>
<glyph name="quotedbl" format="1">
  <advance width="676"/>
  <unicode hex="0022"/>
  <outline>
    <contour>
      <point x="353" y="1584" type="line"/>
      <point x="576" y="1564" type="line"/>
      <point x="532" y="1098" type="line"/>
      <point x="418" y="1084" type="line"/>
    </contour>
    <contour>
      <point x="100" y="1584" type="line"/>
      <point x="323" y="1564" type="line"/>
      <point x="279" y="1098" type="line"/>
      <point x="165" y="1084" type="line"/>
    </contour>
  </outline>
</glyph>
<glyph name="numbersign" format="1">
  <advance width="1142"/>
  <unicode hex="0023"/>
  <outline>
    <contour>
      <point x="408" y="442" type="line"/>
      <point x="377" y="217" type="line"/>
      <point x="249" y="207" type="line"/>
      <point x="281" y="442" type="line"/>
      <point x="76" y="442" type="line"/>
      <point x="106" y="564" type="line"/>
      <point x="303" y="564" type="line"/>
      <point x="341" y="821" type="line"/>
      <point x="145" y="821" type="line"/>
      <point x="173" y="944" type="line"/>
      <point x="361" y="944" type="line"/>
      <point x="398" y="1157" type="line"/>
      <point x="522" y="1169" type="line"/>
      <point x="486" y="944" type="line"/>
      <point x="735" y="944" type="line"/>
      <point x="769" y="1157" type="line"/>
      <point x="893" y="1167" type="line"/>
      <point x="859" y="944" type="line"/>
      <point x="1064" y="944" type="line"/>
      <point x="1036" y="821" type="line"/>
      <point x="839" y="821" type="line"/>
      <point x="801" y="564" type="line"/>
      <point x="996" y="564" type="line"/>
      <point x="968" y="442" type="line"/>
      <point x="779" y="442" type="line"/>
      <point x="751" y="217" type="line"/>
      <point x="622" y="207" type="line"/>
      <point x="655" y="442" type="line"/>
    </contour>
    <contour>
      <point x="428" y="564" type="line"/>
      <point x="675" y="564" type="line"/>
      <point x="715" y="821" type="line"/>
      <point x="466" y="821" type="line"/>
    </contour>
  </outline>
</glyph>
<glyph name="dollar" format="1">
  <advance width="1050"/>
  <unicode hex="0024"/>
  <outline>
    <contour>
      <point x="571" y="612" type="curve"/>
      <point x="571" y="103" type="line"/>
      <point x="678" y="128"/>
      <point x="781" y="204"/>
      <point x="781" y="349" type="curve" smooth="yes"/>
      <point x="781" y="468"/>
      <point x="689" y="543"/>
    </contour>
    <contour>
      <point x="468" y="955" type="curve"/>
      <point x="468" y="1436" type="line"/>
      <point x="369" y="1419"/>
      <point x="293" y="1349"/>
      <point x="293" y="1211" type="curve" smooth="yes"/>
      <point x="293" y="1094"/>
      <point x="367" y="1019"/>
    </contour>
    <contour>
      <point x="873" y="1078" type="curve"/>
      <point x="753" y="1092" type="line"/>
      <point x="721" y="1325" type="line"/>
      <point x="703" y="1361"/>
      <point x="642" y="1416"/>
      <point x="567" y="1434" type="curve"/>
      <point x="567" y="898" type="line"/>
      <point x="767" y="791"/>
      <point x="1004" y="691"/>
      <point x="1004" y="430" type="curve" smooth="yes"/>
      <point x="1004" y="196"/>
      <point x="820" y="31"/>
      <point x="597" y="-16" type="curve"/>
      <point x="597" y="-199" type="line"/>
      <point x="437" y="-219" type="line"/>
      <point x="437" y="-29" type="line"/>
      <point x="273" y="-21"/>
      <point x="128" y="58"/>
      <point x="54" y="149" type="curve"/>
      <point x="70" y="474" type="line"/>
      <point x="195" y="456" type="line"/>
      <point x="241" y="227" type="line"/>
      <point x="281" y="163"/>
      <point x="363" y="104"/>
      <point x="464" y="95" type="curve"/>
      <point x="464" y="671" type="line"/>
      <point x="280" y="770"/>
      <point x="84" y="879"/>
      <point x="84" y="1114" type="curve" smooth="yes"/>
      <point x="84" y="1346"/>
      <point x="249" y="1492"/>
      <point x="444" y="1533" type="curve"/>
      <point x="444" y="1696" type="line"/>
      <point x="596" y="1716" type="line"/>
      <point x="596" y="1543" type="line"/>
      <point x="711" y="1535"/>
      <point x="814" y="1494"/>
      <point x="900" y="1422" type="curve"/>
      <point x="900" y="1412"/>
      <point x="873" y="1078"/>
    </contour>
  </outline>
</glyph>
<glyph name="percent" format="1">
  <advance width="1389"/>
  <unicode hex="0025"/>
  <outline>
    <contour>
      <point x="910" y="257" type="curve" smooth="yes"/>
      <point x="910" y="145"/>
      <point x="956" y="56"/>
      <point x="1046" y="56" type="curve" smooth="yes"/>
      <point x="1148" y="56"/>
      <point x="1177" y="143"/>
      <point x="1177" y="259" type="curve" smooth="yes"/>
      <point x="1177" y="373"/>
      <point x="1136" y="464"/>
      <point x="1044" y="464" type="curve" smooth="yes"/>
      <point x="940" y="464"/>
      <point x="910" y="365"/>
    </contour>
    <contour>
      <point x="1329" y="257" type="curve" smooth="yes"/>
      <point x="1329" y="96"/>
      <point x="1189" y="-42"/>
      <point x="1046" y="-42" type="curve" smooth="yes"/>
      <point x="891" y="-42"/>
      <point x="757" y="78"/>
      <point x="757" y="259" type="curve" smooth="yes"/>
      <point x="757" y="420"/>
      <point x="895" y="562"/>
      <point x="1044" y="562" type="curve" smooth="yes"/>
      <point x="1217" y="562"/>
      <point x="1329" y="428"/>
    </contour>
    <contour>
      <point x="211" y="877" type="curve" smooth="yes"/>
      <point x="211" y="765"/>
      <point x="257" y="679"/>
      <point x="347" y="679" type="curve" smooth="yes"/>
      <point x="449" y="679"/>
      <point x="478" y="765"/>
      <point x="478" y="879" type="curve" smooth="yes"/>
      <point x="478" y="993"/>
      <point x="437" y="1084"/>
      <point x="345" y="1084" type="curve" smooth="yes"/>
      <point x="241" y="1084"/>
      <point x="211" y="985"/>
    </contour>
    <contour>
      <point x="630" y="879" type="curve" smooth="yes"/>
      <point x="630" y="716"/>
      <point x="490" y="578"/>
      <point x="347" y="578" type="curve" smooth="yes"/>
      <point x="192" y="578"/>
      <point x="60" y="698"/>
      <point x="60" y="881" type="curve" smooth="yes"/>
      <point x="60" y="1042"/>
      <point x="196" y="1183"/>
      <point x="345" y="1183" type="curve" smooth="yes"/>
      <point x="518" y="1183"/>
      <point x="630" y="1050"/>
    </contour>
    <contour>
      <point x="1024" y="1187" type="line"/>
      <point x="1161" y="1177" type="line"/>
      <point x="363" y="-46" type="line"/>
      <point x="217" y="-34" type="line"/>
    </contour>
  </outline>
</glyph>
<glyph name="ampersand" format="1">
  <advance width="1497"/>
  <unicode hex="0026"/>
  <outline>
    <contour>
      <point x="576" y="940" type="curve"/>
      <point x="632" y="978"/>
      <point x="673" y="1016"/>
      <point x="697" y="1056" type="curve" smooth="yes"/>
      <point x="721" y="1096"/>
      <point x="731" y="1143"/>
      <point x="731" y="1201" type="curve" smooth="yes"/>
      <point x="731" y="1273"/>
      <point x="719" y="1331"/>
      <point x="691" y="1375" type="curve" smooth="yes"/>
      <point x="663" y="1419"/>
      <point x="618" y="1444"/>
      <point x="558" y="1444" type="curve" smooth="yes"/>
      <point x="506" y="1444"/>
      <point x="466" y="1423"/>
      <point x="438" y="1383" type="curve" smooth="yes"/>
      <point x="410" y="1343"/>
      <point x="394" y="1297"/>
      <point x="394" y="1245" type="curve" smooth="yes"/>
      <point x="394" y="1193"/>
      <point x="412" y="1136"/>
      <point x="450" y="1080" type="curve" smooth="yes"/>
      <point x="488" y="1024"/>
      <point x="530" y="976"/>
    </contour>
    <contour>
      <point x="434" y="765" type="line"/>
      <point x="414" y="767" type="line"/>
      <point x="368" y="735"/>
      <point x="329" y="695"/>
      <point x="297" y="645" type="curve" smooth="yes"/>
      <point x="265" y="595"/>
      <point x="251" y="538"/>
      <point x="251" y="478" type="curve" smooth="yes"/>
      <point x="251" y="418"/>
      <point x="259" y="363"/>
      <point x="277" y="311" type="curve" smooth="yes"/>
      <point x="295" y="259"/>
      <point x="325" y="217"/>
      <point x="365" y="181" type="curve" smooth="yes"/>
      <point x="405" y="145"/>
      <point x="458" y="129"/>
      <point x="516" y="129" type="curve" smooth="yes"/>
      <point x="552" y="129"/>
      <point x="590" y="139"/>
      <point x="626" y="155" type="curve" smooth="yes"/>
      <point x="662" y="171"/>
      <point x="695" y="195"/>
      <point x="719" y="221" type="curve" smooth="yes"/>
      <point x="743" y="247"/>
      <point x="763" y="269"/>
      <point x="779" y="289" type="curve" smooth="yes"/>
      <point x="795" y="309"/>
      <point x="807" y="327"/>
      <point x="815" y="343" type="curve"/>
    </contour>
    <contour>
      <point x="1289" y="879" type="line"/>
      <point x="1026" y="462" type="line"/>
      <point x="1231" y="241"/>
      <point x="1372" y="118"/>
      <point x="1444" y="96" type="curve" smooth="yes"/>
      <point x="1484" y="84" type="line"/>
      <point x="1466" y="0" type="line"/>
      <point x="1420" y="-16"/>
      <point x="1371" y="-24"/>
      <point x="1319" y="-24" type="curve" smooth="yes"/>
      <point x="1287" y="-24"/>
      <point x="1255" y="-18"/>
      <point x="1219" y="-2" type="curve" smooth="yes"/>
      <point x="1183" y="14"/>
      <point x="1148" y="36"/>
      <point x="1112" y="64" type="curve" smooth="yes"/>
      <point x="1076" y="92"/>
      <point x="1040" y="125"/>
      <point x="1008" y="155" type="curve" smooth="yes"/>
      <point x="976" y="185"/>
      <point x="942" y="221"/>
      <point x="902" y="265" type="curve"/>
      <point x="858" y="201"/>
      <point x="823" y="161"/>
      <point x="807" y="141" type="curve"/>
      <point x="719" y="41"/>
      <point x="609" y="-16"/>
      <point x="476" y="-24" type="curve" smooth="yes"/>
      <point x="444" y="-24" type="line" smooth="yes"/>
      <point x="356" y="-24"/>
      <point x="281" y="-6"/>
      <point x="217" y="32" type="curve" smooth="yes"/>
      <point x="153" y="70"/>
      <point x="102" y="121"/>
      <point x="70" y="181" type="curve" smooth="yes"/>
      <point x="38" y="241"/>
      <point x="22" y="309"/>
      <point x="22" y="381" type="curve" smooth="yes"/>
      <point x="22" y="570"/>
      <point x="134" y="724"/>
      <point x="359" y="853" type="curve"/>
      <point x="317" y="889"/>
      <point x="279" y="936"/>
      <point x="247" y="996" type="curve" smooth="yes"/>
      <point x="215" y="1056"/>
      <point x="199" y="1119"/>
      <point x="199" y="1185" type="curve" smooth="yes"/>
      <point x="199" y="1277"/>
      <point x="237" y="1360"/>
      <point x="313" y="1434" type="curve" smooth="yes"/>
      <point x="389" y="1508"/>
      <point x="480" y="1546"/>
      <point x="582" y="1546" type="curve" smooth="yes"/>
      <point x="634" y="1546"/>
      <point x="681" y="1542"/>
      <point x="721" y="1530" type="curve" smooth="yes"/>
      <point x="761" y="1518"/>
      <point x="799" y="1502"/>
      <point x="831" y="1478" type="curve" smooth="yes"/>
      <point x="863" y="1454"/>
      <point x="892" y="1421"/>
      <point x="910" y="1379" type="curve" smooth="yes"/>
      <point x="928" y="1337"/>
      <point x="938" y="1287"/>
      <point x="938" y="1229" type="curve" smooth="yes"/>
      <point x="938" y="1105"/>
      <point x="844" y="983"/>
      <point x="659" y="871" type="curve"/>
      <point x="659" y="857" type="line"/>
      <point x="940" y="546" type="line"/>
      <point x="1155" y="875" type="line"/>
      <point x="970" y="926" type="line"/>
      <point x="982" y="1018" type="line"/>
      <point x="1508" y="1018" type="line"/>
      <point x="1496" y="926" type="line"/>
    </contour>
  </outline>
</glyph>
<glyph name="quotesingle" format="1">
  <advance width="463"/>
  <unicode hex="0027"/>
  <outline>
    <contour>
      <point x="120" y="1584" type="line"/>
      <point x="343" y="1564" type="line"/>
      <point x="299" y="1098" type="line"/>
      <point x="185" y="1084" type="line"/>
    </contour>
  </outline>
</glyph>
<glyph name="parenleft" format="1">
  <advance width="578"/>
  <unicode hex="0028"/>
  <outline>
    <contour>
      <point x="548" y="-386" type="curve"/>
      <point x="464" y="-456" type="line"/>
      <point x="402" y="-398"/>
      <point x="60" y="-84"/>
      <point x="60" y="542" type="curve" smooth="yes"/>
      <point x="60" y="1180"/>
      <point x="390" y="1458"/>
      <point x="470" y="1526" type="curve"/>
      <point x="530" y="1446" type="line"/>
      <point x="426" y="1309"/>
      <point x="277" y="1070"/>
      <point x="277" y="554" type="curve" smooth="yes"/>
      <point x="277" y="48"/>
      <point x="494" y="-298"/>
    </contour>
  </outline>
</glyph>
<glyph name="parenright" format="1">
  <advance width="578"/>
  <unicode hex="0029"/>
  <outline>
    <contour>
      <point x="30" y="-386" type="line"/>
      <point x="84" y="-298"/>
      <point x="301" y="48"/>
      <point x="301" y="554" type="curve" smooth="yes"/>
      <point x="301" y="1070"/>
      <point x="152" y="1309"/>
      <point x="48" y="1446" type="curve"/>
      <point x="108" y="1526" type="line"/>
      <point x="188" y="1458"/>
      <point x="518" y="1180"/>
      <point x="518" y="542" type="curve" smooth="yes"/>
      <point x="518" y="-84"/>
      <point x="176" y="-398"/>
      <point x="114" y="-456" type="curve"/>
    </contour>
  </outline>
</glyph>
<glyph name="asterisk" format="1">
  <advance width="1019"/>
  <unicode hex="002A"/>
  <outline>
    <contour>
      <point x="863" y="841" type="line"/>
      <point x="719" y="757" type="line"/>
      <point x="538" y="1058" type="line"/>
      <point x="600" y="1120" type="line"/>
    </contour>
    <contour>
      <point x="345" y="721" type="line"/>
      <point x="221" y="833" type="line"/>
      <point x="452" y="1098" type="line"/>
      <point x="530" y="1058" type="line"/>
    </contour>
    <contour>
      <point x="76" y="1173" type="line"/>
      <point x="143" y="1327" type="line"/>
      <point x="466" y="1189" type="line"/>
      <point x="452" y="1102" type="line"/>
    </contour>
    <contour>
      <point x="422" y="1572" type="line"/>
      <point x="588" y="1556" type="line"/>
      <point x="556" y="1207" type="line"/>
      <point x="470" y="1193" type="line"/>
    </contour>
    <contour>
      <point x="908" y="1365" type="line"/>
      <point x="944" y="1203" type="line"/>
      <point x="600" y="1124" type="line"/>
      <point x="560" y="1203" type="line"/>
    </contour>
  </outline>
</glyph>
<glyph name="plus" format="1">
  <advance width="869"/>
  <unicode hex="002B"/>
  <outline>
    <contour>
      <point x="502" y="498" type="line"/>
      <point x="504" y="211" type="line"/>
      <point x="369" y="225" type="line"/>
      <point x="369" y="498" type="line"/>
      <point x="100" y="498" type="line"/>
      <point x="114" y="620" type="line"/>
      <point x="369" y="620" type="line"/>
      <point x="369" y="902" type="line"/>
      <point x="500" y="887" type="line"/>
      <point x="502" y="620" type="line"/>
      <point x="769" y="620" type="line"/>
      <point x="755" y="498" type="line"/>
    </contour>
  </outline>
</glyph>
<glyph name="comma" format="1">
  <advance width="443"/>
  <unicode hex="002C"/>
  <outline>
    <contour>
      <point x="24" y="-297" type="line"/>
      <point x="183" y="-255"/>
      <point x="245" y="-164"/>
      <point x="245" y="-86" type="curve" smooth="yes"/>
      <point x="245" y="-18"/>
      <point x="190" y="44"/>
      <point x="104" y="44" type="curve" smooth="yes"/>
      <point x="92" y="44"/>
      <point x="80" y="44"/>
      <point x="68" y="42" type="curve"/>
      <point x="58" y="68"/>
      <point x="50" y="90"/>
      <point x="50" y="118" type="curve" smooth="yes"/>
      <point x="50" y="216"/>
      <point x="137" y="265"/>
      <point x="199" y="265" type="curve" smooth="yes"/>
      <point x="283" y="265"/>
      <point x="412" y="195"/>
      <point x="412" y="12" type="curve" smooth="yes"/>
      <point x="412" y="-102"/>
      <point x="371" y="-297"/>
      <point x="52" y="-381" type="curve"/>
    </contour>
  </outline>
</glyph>
<glyph name="hyphen" format="1">
  <advance width="692"/>
  <unicode hex="002D"/>
  <outline>
    <contour>
      <point x="110" y="606" type="line"/>
      <point x="606" y="628" type="line"/>
      <point x="592" y="506" type="line"/>
      <point x="96" y="484" type="line"/>
    </contour>
  </outline>
</glyph>
<glyph name="period" format="1">
  <advance width="491"/>
  <unicode hex="002E"/>
  <outline>
    <contour>
      <point x="245" y="249" type="curve" smooth="yes"/>
      <point x="325" y="249"/>
      <point x="392" y="188"/>
      <point x="392" y="110" type="curve" smooth="yes"/>
      <point x="392" y="28"/>
      <point x="325" y="-38"/>
      <point x="245" y="-38" type="curve" smooth="yes"/>
      <point x="165" y="-38"/>
      <point x="100" y="30"/>
      <point x="100" y="112" type="curve" smooth="yes"/>
      <point x="100" y="190"/>
      <point x="167" y="249"/>
    </contour>
  </outline>
</glyph>
<glyph name="slash" format="1">
  <advance width="666"/>
  <unicode hex="002F"/>
  <outline>
    <contour>
      <point x="534" y="1502" type="line"/>
      <point x="695" y="1512" type="line"/>
      <point x="129" y="-432" type="line"/>
      <point x="-28" y="-442" type="line"/>
    </contour>
  </outline>
</glyph>
<glyph name="zero" format="1">
  <advance width="1222"/>
  <unicode hex="0030"/>
  <outline>
    <contour>
      <point x="318" y="709" type="curve" smooth="yes"/>
      <point x="318" y="265"/>
      <point x="433" y="90"/>
      <point x="622" y="90" type="curve" smooth="yes"/>
      <point x="831" y="90"/>
      <point x="909" y="265"/>
      <point x="909" y="713" type="curve" smooth="yes"/>
      <point x="909" y="1109"/>
      <point x="815" y="1339"/>
      <point x="618" y="1339" type="curve" smooth="yes"/>
      <point x="397" y="1339"/>
      <point x="318" y="1109"/>
    </contour>
    <contour>
      <point x="1118" y="713" type="curve" smooth="yes"/>
      <point x="1118" y="219"/>
      <point x="861" y="-32"/>
      <point x="620" y="-32" type="curve" smooth="yes"/>
      <point x="347" y="-32"/>
      <point x="104" y="209"/>
      <point x="104" y="713" type="curve" smooth="yes"/>
      <point x="104" y="1165"/>
      <point x="347" y="1460"/>
      <point x="616" y="1460" type="curve" smooth="yes"/>
      <point x="909" y="1460"/>
      <point x="1118" y="1177"/>
    </contour>
  </outline>
</glyph>
<glyph name="one" format="1">
  <advance width="1222"/>
  <unicode hex="0031"/>
  <outline>
    <contour>
      <point x="727" y="1440" type="line"/>
      <point x="727" y="139" type="line"/>
      <point x="1060" y="100" type="line"/>
      <point x="1048" y="2" type="line"/>
      <point x="165" y="0" type="line"/>
      <point x="173" y="90" type="line"/>
      <point x="518" y="147" type="line"/>
      <point x="518" y="1253" type="line"/>
      <point x="189" y="1253" type="line"/>
      <point x="197" y="1347" type="line"/>
      <point x="695" y="1440" type="line"/>
    </contour>
  </outline>
</glyph>
<glyph name="two" format="1">
  <advance width="1222"/>
  <unicode hex="0032"/>
  <outline>
    <contour>
      <point x="1044" y="0" type="line"/>
      <point x="116" y="0" type="line"/>
      <point x="108" y="124" type="line"/>
      <point x="395" y="373" type="line" smooth="yes"/>
      <point x="601" y="551"/>
      <point x="823" y="753"/>
      <point x="823" y="998" type="curve" smooth="yes"/>
      <point x="823" y="1165"/>
      <point x="771" y="1305"/>
      <point x="574" y="1305" type="curve" smooth="yes"/>
      <point x="405" y="1305"/>
      <point x="307" y="1133"/>
      <point x="253" y="996" type="curve"/>
      <point x="153" y="1032" type="line"/>
      <point x="201" y="1237"/>
      <point x="394" y="1470"/>
      <point x="647" y="1470" type="curve" smooth="yes"/>
      <point x="912" y="1470"/>
      <point x="1044" y="1317"/>
      <point x="1044" y="1052" type="curve" smooth="yes"/>
      <point x="1044" y="707"/>
      <point x="661" y="441"/>
      <point x="450" y="259" type="curve" smooth="yes"/>
      <point x="339" y="163" type="line"/>
      <point x="912" y="163" type="line"/>
      <point x="1028" y="379" type="line"/>
      <point x="1112" y="367" type="line"/>
    </contour>
  </outline>
</glyph>
<glyph name="three" format="1">
  <advance width="1222"/>
  <unicode hex="0033"/>
  <outline>
    <contour>
      <point x="285" y="259" type="curve"/>
      <point x="293" y="207"/>
      <point x="398" y="70"/>
      <point x="514" y="70" type="curve" smooth="yes"/>
      <point x="757" y="70"/>
      <point x="803" y="232"/>
      <point x="803" y="361" type="curve" smooth="yes"/>
      <point x="803" y="502"/>
      <point x="661" y="673"/>
      <point x="434" y="673" type="curve" smooth="yes"/>
      <point x="414" y="673" type="line"/>
      <point x="402" y="753" type="line"/>
      <point x="450" y="769"/>
      <point x="747" y="881"/>
      <point x="747" y="1102" type="curve" smooth="yes"/>
      <point x="747" y="1208"/>
      <point x="693" y="1313"/>
      <point x="536" y="1313" type="curve" smooth="yes"/>
      <point x="405" y="1313"/>
      <point x="339" y="1238"/>
      <point x="293" y="1128" type="curve"/>
      <point x="203" y="1161" type="line"/>
      <point x="227" y="1290"/>
      <point x="395" y="1474"/>
      <point x="612" y="1474" type="curve" smooth="yes"/>
      <point x="797" y="1474"/>
      <point x="964" y="1346"/>
      <point x="964" y="1169" type="curve" smooth="yes"/>
      <point x="964" y="972"/>
      <point x="824" y="853"/>
      <point x="677" y="799" type="curve"/>
      <point x="677" y="785" type="line"/>
      <point x="894" y="755"/>
      <point x="1020" y="591"/>
      <point x="1020" y="434" type="curve" smooth="yes"/>
      <point x="1020" y="169"/>
      <point x="771" y="-36"/>
      <point x="450" y="-36" type="curve" smooth="yes"/>
      <point x="239" y="-36"/>
      <point x="131" y="53"/>
      <point x="131" y="133" type="curve" smooth="yes"/>
      <point x="131" y="193"/>
      <point x="185" y="249"/>
    </contour>
  </outline>
</glyph>
<glyph name="four" format="1">
  <advance width="1222"/>
  <unicode hex="0034"/>
  <outline>
    <contour>
      <point x="667" y="-14" type="line"/>
      <point x="667" y="434" type="line"/>
      <point x="76" y="434" type="line"/>
      <point x="48" y="524" type="line"/>
      <point x="799" y="1452" type="line"/>
      <point x="879" y="1430" type="line"/>
      <point x="871" y="1285"/>
      <point x="867" y="1052"/>
      <point x="867" y="831" type="curve" smooth="yes"/>
      <point x="867" y="582" type="line"/>
      <point x="1177" y="582" type="line"/>
      <point x="1157" y="430" type="line"/>
      <point x="867" y="430" type="line"/>
      <point x="867" y="18" type="line"/>
    </contour>
    <contour>
      <point x="663" y="582" type="line"/>
      <point x="663" y="1106" type="line"/>
      <point x="253" y="582" type="line"/>
    </contour>
  </outline>
</glyph>
<glyph name="five" format="1">
  <advance width="1222"/>
  <unicode hex="0035"/>
  <outline>
    <contour>
      <point x="323" y="52" type="line"/>
      <point x="666" y="84"/>
      <point x="861" y="217"/>
      <point x="861" y="392" type="curve" smooth="yes"/>
      <point x="861" y="633"/>
      <point x="699" y="775"/>
      <point x="295" y="801" type="curve"/>
      <point x="450" y="1422" type="line"/>
      <point x="990" y="1456" type="line"/>
      <point x="960" y="1265" type="line"/>
      <point x="514" y="1241" type="line"/>
      <point x="450" y="976" type="line"/>
      <point x="860" y="952"/>
      <point x="1084" y="751"/>
      <point x="1084" y="470" type="curve" smooth="yes"/>
      <point x="1084" y="221"/>
      <point x="867" y="-28"/>
      <point x="345" y="-60" type="curve"/>
    </contour>
  </outline>
</glyph>
<glyph name="six" format="1">
  <advance width="1222"/>
  <unicode hex="0036"/>
  <outline>
    <contour>
      <point x="381" y="741" type="curve"/>
      <point x="394" y="741" type="line"/>
      <point x="448" y="803"/>
      <point x="568" y="861"/>
      <point x="699" y="861" type="curve" smooth="yes"/>
      <point x="936" y="861"/>
      <point x="1092" y="651"/>
      <point x="1092" y="430" type="curve" smooth="yes"/>
      <point x="1092" y="181"/>
      <point x="869" y="-26"/>
      <point x="606" y="-26" type="curve" smooth="yes"/>
      <point x="275" y="-26"/>
      <point x="141" y="227"/>
      <point x="141" y="512" type="curve" smooth="yes"/>
      <point x="141" y="920"/>
      <point x="496" y="1352"/>
      <point x="879" y="1476" type="curve"/>
      <point x="924" y="1405" type="line"/>
      <point x="607" y="1260"/>
      <point x="429" y="982"/>
    </contour>
    <contour>
      <point x="614" y="74" type="curve" smooth="yes"/>
      <point x="811" y="74"/>
      <point x="871" y="211"/>
      <point x="871" y="398" type="curve" smooth="yes"/>
      <point x="871" y="563"/>
      <point x="783" y="737"/>
      <point x="610" y="737" type="curve" smooth="yes"/>
      <point x="520" y="737"/>
      <point x="407" y="685"/>
      <point x="377" y="641" type="curve"/>
      <point x="373" y="601"/>
      <point x="369" y="536"/>
      <point x="369" y="494" type="curve" smooth="yes"/>
      <point x="369" y="287"/>
      <point x="465" y="74"/>
    </contour>
  </outline>
</glyph>
<glyph name="seven" format="1">
  <advance width="1222"/>
  <unicode hex="0037"/>
  <outline>
    <contour>
      <point x="934" y="1253" type="line"/>
      <point x="309" y="1253" type="line"/>
      <point x="247" y="1086" type="line"/>
      <point x="163" y="1102" type="line"/>
      <point x="193" y="1438" type="line"/>
      <point x="1132" y="1438" type="line"/>
      <point x="1132" y="1373" type="line"/>
      <point x="610" y="-40" type="line"/>
      <point x="496" y="-4" type="line"/>
    </contour>
  </outline>
</glyph>
<glyph name="eight" format="1">
  <advance width="1222"/>
  <unicode hex="0038"/>
  <outline>
    <contour>
      <point x="522" y="675" type="curve"/>
      <point x="442" y="603"/>
      <point x="353" y="538"/>
      <point x="353" y="369" type="curve" smooth="yes"/>
      <point x="353" y="224"/>
      <point x="485" y="80"/>
      <point x="614" y="80" type="curve" smooth="yes"/>
      <point x="795" y="80"/>
      <point x="875" y="160"/>
      <point x="875" y="323" type="curve" smooth="yes"/>
      <point x="875" y="454"/>
      <point x="699" y="565"/>
    </contour>
    <contour>
      <point x="153" y="341" type="curve" smooth="yes"/>
      <point x="153" y="478"/>
      <point x="255" y="603"/>
      <point x="450" y="717" type="curve"/>
      <point x="450" y="727" type="line"/>
      <point x="360" y="781"/>
      <point x="209" y="907"/>
      <point x="209" y="1070" type="curve" smooth="yes"/>
      <point x="209" y="1275"/>
      <point x="391" y="1460"/>
      <point x="626" y="1460" type="curve" smooth="yes"/>
      <point x="857" y="1460"/>
      <point x="1004" y="1309"/>
      <point x="1004" y="1126" type="curve" smooth="yes"/>
      <point x="1004" y="983"/>
      <point x="908" y="835"/>
      <point x="771" y="785" type="curve"/>
      <point x="767" y="773" type="line"/>
      <point x="946" y="661"/>
      <point x="1068" y="524"/>
      <point x="1068" y="375" type="curve" smooth="yes"/>
      <point x="1068" y="152"/>
      <point x="881" y="-32"/>
      <point x="558" y="-32" type="curve" smooth="yes"/>
      <point x="335" y="-32"/>
      <point x="153" y="108"/>
    </contour>
    <contour>
      <point x="687" y="823" type="curve"/>
      <point x="777" y="875"/>
      <point x="827" y="937"/>
      <point x="827" y="1082" type="curve" smooth="yes"/>
      <point x="827" y="1253"/>
      <point x="723" y="1367"/>
      <point x="594" y="1367" type="curve" smooth="yes"/>
      <point x="455" y="1367"/>
      <point x="390" y="1259"/>
      <point x="390" y="1161" type="curve" smooth="yes"/>
      <point x="390" y="1028"/>
      <point x="516" y="921"/>
    </contour>
  </outline>
</glyph>
<glyph name="nine" format="1">
  <advance width="1222"/>
  <unicode hex="0039"/>
  <outline>
    <contour>
      <point x="851" y="699" type="curve"/>
      <point x="835" y="699" type="line"/>
      <point x="775" y="617"/>
      <point x="636" y="568"/>
      <point x="530" y="568" type="curve" smooth="yes"/>
      <point x="293" y="568"/>
      <point x="145" y="755"/>
      <point x="145" y="976" type="curve" smooth="yes"/>
      <point x="145" y="1249"/>
      <point x="389" y="1472"/>
      <point x="622" y="1472" type="curve" smooth="yes"/>
      <point x="941" y="1472"/>
      <point x="1084" y="1213"/>
      <point x="1084" y="928" type="curve" smooth="yes"/>
      <point x="1084" y="442"/>
      <point x="795" y="48"/>
      <point x="337" y="-32" type="curve"/>
      <point x="309" y="58" type="line"/>
      <point x="707" y="176"/>
      <point x="827" y="402"/>
    </contour>
    <contour>
      <point x="614" y="1373" type="curve" smooth="yes"/>
      <point x="433" y="1373"/>
      <point x="349" y="1245"/>
      <point x="349" y="1028" type="curve" smooth="yes"/>
      <point x="349" y="863"/>
      <point x="445" y="699"/>
      <point x="618" y="699" type="curve" smooth="yes"/>
      <point x="702" y="699"/>
      <point x="817" y="743"/>
      <point x="855" y="805" type="curve"/>
      <point x="865" y="861"/>
      <point x="867" y="930"/>
      <point x="867" y="980" type="curve" smooth="yes"/>
      <point x="867" y="1179"/>
      <point x="755" y="1373"/>
    </contour>
  </outline>
</glyph>
<glyph name="colon" format="1">
  <advance width="491"/>
  <unicode hex="003A"/>
  <outline>
    <contour>
      <point x="251" y="1036" type="curve" smooth="yes"/>
      <point x="325" y="1036"/>
      <point x="388" y="980"/>
      <point x="388" y="906" type="curve" smooth="yes"/>
      <point x="388" y="828"/>
      <point x="325" y="765"/>
      <point x="251" y="765" type="curve" smooth="yes"/>
      <point x="175" y="765"/>
      <point x="114" y="830"/>
      <point x="114" y="908" type="curve" smooth="yes"/>
      <point x="114" y="982"/>
      <point x="177" y="1036"/>
    </contour>
    <contour>
      <point x="251" y="273" type="curve" smooth="yes"/>
      <point x="325" y="273"/>
      <point x="388" y="215"/>
      <point x="388" y="143" type="curve" smooth="yes"/>
      <point x="388" y="65"/>
      <point x="325" y="2"/>
      <point x="251" y="2" type="curve" smooth="yes"/>
      <point x="175" y="2"/>
      <point x="114" y="67"/>
      <point x="114" y="145" type="curve" smooth="yes"/>
      <point x="114" y="217"/>
      <point x="177" y="273"/>
    </contour>
  </outline>
</glyph>
<glyph name="semicolon" format="1">
  <advance width="491"/>
  <unicode hex="003B"/>
  <outline>
    <contour>
      <point x="237" y="1036" type="curve" smooth="yes"/>
      <point x="314" y="1036"/>
      <point x="378" y="978"/>
      <point x="378" y="903" type="curve" smooth="yes"/>
      <point x="378" y="824"/>
      <point x="314" y="761"/>
      <point x="237" y="761" type="curve" smooth="yes"/>
      <point x="160" y="761"/>
      <point x="98" y="826"/>
      <point x="98" y="905" type="curve" smooth="yes"/>
      <point x="98" y="980"/>
      <point x="162" y="1036"/>
    </contour>
    <contour>
      <point x="38" y="-280" type="line"/>
      <point x="186" y="-241"/>
      <point x="244" y="-157"/>
      <point x="244" y="-84" type="curve" smooth="yes"/>
      <point x="244" y="-21"/>
      <point x="193" y="37"/>
      <point x="113" y="37" type="curve" smooth="yes"/>
      <point x="102" y="37"/>
      <point x="90" y="37"/>
      <point x="79" y="35" type="curve"/>
      <point x="70" y="59"/>
      <point x="62" y="80"/>
      <point x="62" y="106" type="curve" smooth="yes"/>
      <point x="62" y="197"/>
      <point x="143" y="242"/>
      <point x="201" y="242" type="curve" smooth="yes"/>
      <point x="279" y="242"/>
      <point x="399" y="177"/>
      <point x="399" y="7" type="curve" smooth="yes"/>
      <point x="399" y="-99"/>
      <point x="361" y="-280"/>
      <point x="64" y="-358" type="curve"/>
    </contour>
  </outline>
</glyph>
<glyph name="less" format="1">
  <advance width="831"/>
  <unicode hex="003C"/>
  <outline>
    <contour>
      <point x="34" y="520" type="line"/>
      <point x="36" y="554" type="line"/>
      <point x="692" y="1183" type="line"/>
      <point x="761" y="1096" type="line"/>
      <point x="321" y="552" type="line"/>
      <point x="785" y="-16" type="line"/>
      <point x="709" y="-100" type="line"/>
    </contour>
  </outline>
</glyph>
<glyph name="equal" format="1">
  <advance width="965"/>
  <unicode hex="003D"/>
  <outline>
    <contour>
      <point x="114" y="516" type="line"/>
      <point x="861" y="516" type="line"/>
      <point x="847" y="388" type="line"/>
      <point x="100" y="388" type="line"/>
    </contour>
    <contour>
      <point x="118" y="807" type="line"/>
      <point x="865" y="807" type="line"/>
      <point x="851" y="679" type="line"/>
      <point x="104" y="679" type="line"/>
    </contour>
  </outline>
</glyph>
<glyph name="greater" format="1">
  <advance width="831"/>
  <unicode hex="003E"/>
  <outline>
    <contour>
      <point x="791" y="520" type="line"/>
      <point x="116" y="-100" type="line"/>
      <point x="40" y="-16" type="line"/>
      <point x="504" y="552" type="line"/>
      <point x="64" y="1096" type="line"/>
      <point x="133" y="1183" type="line"/>
      <point x="789" y="554" type="line"/>
    </contour>
  </outline>
</glyph>
<glyph name="question" format="1">
  <advance width="730"/>
  <unicode hex="003F"/>
  <outline>
    <contour>
      <point x="34" y="1401" type="curve" smooth="yes"/>
      <point x="34" y="1465"/>
      <point x="82" y="1566"/>
      <point x="273" y="1566" type="curve" smooth="yes"/>
      <point x="462" y="1566"/>
      <point x="691" y="1355"/>
      <point x="691" y="1046" type="curve" smooth="yes"/>
      <point x="691" y="757"/>
      <point x="341" y="799"/>
      <point x="341" y="618" type="curve" smooth="yes"/>
      <point x="341" y="570"/>
      <point x="349" y="526"/>
      <point x="367" y="466" type="curve"/>
      <point x="277" y="446" type="line"/>
      <point x="245" y="494"/>
      <point x="183" y="613"/>
      <point x="183" y="711" type="curve" smooth="yes"/>
      <point x="183" y="984"/>
      <point x="556" y="893"/>
      <point x="556" y="1142" type="curve" smooth="yes"/>
      <point x="556" y="1254"/>
      <point x="429" y="1353"/>
      <point x="357" y="1353" type="curve" smooth="yes"/>
      <point x="265" y="1353"/>
      <point x="176" y="1323"/>
      <point x="124" y="1267" type="curve"/>
      <point x="84" y="1283"/>
      <point x="34" y="1335"/>
    </contour>
    <contour>
      <point x="472" y="110" type="curve" smooth="yes"/>
      <point x="472" y="24"/>
      <point x="403" y="-44"/>
      <point x="319" y="-44" type="curve" smooth="yes"/>
      <point x="235" y="-44"/>
      <point x="169" y="26"/>
      <point x="169" y="112" type="curve" smooth="yes"/>
      <point x="169" y="194"/>
      <point x="239" y="255"/>
      <point x="319" y="255" type="curve" smooth="yes"/>
      <point x="401" y="255"/>
      <point x="472" y="192"/>
    </contour>
  </outline>
</glyph>
<glyph name="at" format="1">
  <advance width="1654"/>
  <unicode hex="0040"/>
  <outline>
    <contour>
      <point x="966" y="841" type="line"/>
      <point x="942" y="847"/>
      <point x="897" y="855"/>
      <point x="859" y="855" type="curve" smooth="yes"/>
      <point x="718" y="855"/>
      <point x="630" y="635"/>
      <point x="630" y="448" type="curve" smooth="yes"/>
      <point x="630" y="265"/>
      <point x="671" y="219"/>
      <point x="733" y="219" type="curve" smooth="yes"/>
      <point x="797" y="219"/>
      <point x="860" y="261"/>
      <point x="902" y="309" type="curve"/>
    </contour>
    <contour>
      <point x="916" y="1161" type="curve" smooth="yes"/>
      <point x="516" y="1161"/>
      <point x="257" y="809"/>
      <point x="257" y="426" type="curve" smooth="yes"/>
      <point x="257" y="67"/>
      <point x="489" y="-165"/>
      <point x="887" y="-165" type="curve" smooth="yes"/>
      <point x="1060" y="-165"/>
      <point x="1247" y="-74"/>
      <point x="1303" y="-34" type="curve"/>
      <point x="1315" y="-24" type="line"/>
      <point x="1359" y="-100" type="line"/>
      <point x="1349" y="-106" type="line"/>
      <point x="1253" y="-172"/>
      <point x="1092" y="-277"/>
      <point x="843" y="-277" type="curve" smooth="yes"/>
      <point x="472" y="-277"/>
      <point x="68" y="-96"/>
      <point x="68" y="394" type="curve" smooth="yes"/>
      <point x="68" y="878"/>
      <point x="436" y="1269"/>
      <point x="960" y="1269" type="curve" smooth="yes"/>
      <point x="1301" y="1269"/>
      <point x="1592" y="1050"/>
      <point x="1592" y="717" type="curve" smooth="yes"/>
      <point x="1592" y="388"/>
      <point x="1349" y="84"/>
      <point x="1016" y="84" type="curve" smooth="yes"/>
      <point x="956" y="84"/>
      <point x="898" y="127"/>
      <point x="898" y="189" type="curve" smooth="yes"/>
      <point x="898" y="203"/>
      <point x="900" y="227"/>
      <point x="900" y="227" type="curve"/>
      <point x="889" y="227" type="line"/>
      <point x="841" y="155"/>
      <point x="753" y="72"/>
      <point x="661" y="72" type="curve" smooth="yes"/>
      <point x="532" y="72"/>
      <point x="442" y="189"/>
      <point x="442" y="396" type="curve" smooth="yes"/>
      <point x="442" y="743"/>
      <point x="719" y="960"/>
      <point x="924" y="960" type="curve" smooth="yes"/>
      <point x="988" y="960"/>
      <point x="1054" y="956"/>
      <point x="1124" y="940" type="curve"/>
      <point x="1128" y="938" type="line"/>
      <point x="1150" y="914" type="line"/>
      <point x="1100" y="468" type="line" smooth="yes"/>
      <point x="1094" y="414"/>
      <point x="1084" y="309"/>
      <point x="1084" y="279" type="curve" smooth="yes"/>
      <point x="1084" y="225"/>
      <point x="1092" y="205"/>
      <point x="1114" y="205" type="curve" smooth="yes"/>
      <point x="1299" y="205"/>
      <point x="1430" y="420"/>
      <point x="1430" y="667" type="curve" smooth="yes"/>
      <point x="1430" y="984"/>
      <point x="1203" y="1161"/>
    </contour>
  </outline>
</glyph>
<glyph name="A" format="1">
  <advance width="1554"/>
  <unicode hex="0041"/>
  <outline>
    <contour>
      <point x="912" y="1542" type="line"/>
      <point x="1385" y="151" type="line"/>
      <point x="1552" y="98" type="line"/>
      <point x="1542" y="0" type="line"/>
      <point x="916" y="0" type="line"/>
      <point x="930" y="90" type="line"/>
      <point x="1138" y="157" type="line"/>
      <point x="1006" y="526" type="line"/>
      <point x="496" y="526" type="line"/>
      <point x="359" y="151" type="line"/>
      <point x="586" y="98" type="line"/>
      <point x="572" y="0" type="line"/>
      <point x="2" y="0" type="line"/>
      <point x="14" y="90" type="line"/>
      <point x="195" y="157" type="line"/>
      <point x="727" y="1504" type="line"/>
    </contour>
    <contour>
      <point x="542" y="649" type="line"/>
      <point x="970" y="649" type="line"/>
      <point x="767" y="1257" type="line"/>
    </contour>
    <contour>
      <point x="1399" y="10" type="move" name="ogonek"/>
    </contour>
    <contour>
      <point x="777" y="1512" type="move" name="top"/>
    </contour>
  </outline>
</glyph>
<glyph name="B" format="1">
  <advance width="1371"/>
  <unicode hex="0042"/>
  <outline>
    <contour>
      <point x="749" y="735" type="curve" smooth="yes"/>
      <point x="478" y="735" type="line"/>
      <point x="478" y="116" type="line"/>
      <point x="745" y="116" type="line" smooth="yes"/>
      <point x="956" y="116"/>
      <point x="1066" y="265"/>
      <point x="1066" y="422" type="curve" smooth="yes"/>
      <point x="1066" y="573"/>
      <point x="962" y="735"/>
    </contour>
    <contour>
      <point x="928" y="827" type="curve"/>
      <point x="928" y="817" type="line"/>
      <point x="1177" y="803"/>
      <point x="1305" y="623"/>
      <point x="1305" y="462" type="curve" smooth="yes"/>
      <point x="1305" y="233"/>
      <point x="1147" y="0"/>
      <point x="657" y="0" type="curve" smooth="yes"/>
      <point x="28" y="0" type="line"/>
      <point x="40" y="90" type="line"/>
      <point x="245" y="147" type="line"/>
      <point x="245" y="1343" type="line"/>
      <point x="36" y="1379" type="line"/>
      <point x="48" y="1472" type="line"/>
      <point x="225" y="1498"/>
      <point x="432" y="1528"/>
      <point x="647" y="1528" type="curve" smooth="yes"/>
      <point x="1024" y="1528"/>
      <point x="1179" y="1358"/>
      <point x="1179" y="1175" type="curve" smooth="yes"/>
      <point x="1179" y="1049"/>
      <point x="1119" y="897"/>
    </contour>
    <contour>
      <point x="478" y="1416" type="curve"/>
      <point x="478" y="837" type="line"/>
      <point x="791" y="837" type="line"/>
      <point x="895" y="881"/>
      <point x="950" y="967"/>
      <point x="950" y="1106" type="curve" smooth="yes"/>
      <point x="950" y="1257"/>
      <point x="869" y="1424"/>
      <point x="574" y="1424" type="curve" smooth="yes"/>
      <point x="544" y="1424"/>
      <point x="510" y="1422"/>
    </contour>
  </outline>
</glyph>
<glyph name="D" format="1">
  <advance width="1610"/>
  <unicode hex="0044"/>
  <outline>
    <contour>
      <point x="480" y="1399" type="curve"/>
      <point x="480" y="126" type="line"/>
      <point x="657" y="126" type="line" smooth="yes"/>
      <point x="1089" y="126"/>
      <point x="1293" y="402"/>
      <point x="1293" y="727" type="curve" smooth="yes"/>
      <point x="1293" y="1100"/>
      <point x="1076" y="1405"/>
      <point x="628" y="1405" type="curve" smooth="yes"/>
      <point x="578" y="1405"/>
      <point x="530" y="1405"/>
    </contour>
    <contour>
      <point x="1550" y="795" type="curve" smooth="yes"/>
      <point x="1550" y="379"/>
      <point x="1244" y="0"/>
      <point x="622" y="0" type="curve" smooth="yes"/>
      <point x="22" y="0" type="line"/>
      <point x="38" y="90" type="line"/>
      <point x="247" y="157" type="line"/>
      <point x="247" y="1341" type="line"/>
      <point x="38" y="1377" type="line"/>
      <point x="48" y="1470" type="line"/>
      <point x="287" y="1508"/>
      <point x="496" y="1530"/>
      <point x="673" y="1530" type="curve" smooth="yes"/>
      <point x="1356" y="1530"/>
      <point x="1550" y="1170"/>
    </contour>
    <contour>
      <point x="805" y="756" type="move" name="center"/>
    </contour>
    <contour>
      <point x="805" y="1512" type="move" name="top"/>
    </contour>
  </outline>
</glyph>
<glyph name="F" format="1">
  <advance width="1250"/>
  <unicode hex="0046"/>
  <outline>
    <contour>
      <point x="42" y="1512" type="line"/>
      <point x="1251" y="1512" type="line"/>
      <point x="1201" y="1122" type="line"/>
      <point x="1094" y="1138" type="line"/>
      <point x="1052" y="1401" type="line"/>
      <point x="486" y="1401" type="line"/>
      <point x="486" y="815" type="line"/>
      <point x="835" y="815" type="line"/>
      <point x="887" y="962" type="line"/>
      <point x="996" y="978" type="line"/>
      <point x="964" y="502" type="line"/>
      <point x="857" y="484" type="line"/>
      <point x="819" y="703" type="line"/>
      <point x="486" y="703" type="line"/>
      <point x="484" y="149" type="line"/>
      <point x="773" y="102" type="line"/>
      <point x="757" y="0" type="line"/>
      <point x="38" y="0" type="line"/>
      <point x="48" y="90" type="line"/>
      <point x="251" y="147" type="line"/>
      <point x="251" y="1369" type="line"/>
      <point x="30" y="1420" type="line"/>
    </contour>
  </outline>
</glyph>
<glyph name="I" format="1">
  <advance width="730"/>
  <unicode hex="0049"/>
  <outline>
    <contour>
      <point x="695" y="0" type="line"/>
      <point x="38" y="0" type="line"/>
      <point x="48" y="90" type="line"/>
      <point x="251" y="147" type="line"/>
      <point x="251" y="1369" type="line"/>
      <point x="30" y="1420" type="line"/>
      <point x="42" y="1512" type="line"/>
      <point x="705" y="1512" type="line"/>
      <point x="693" y="1420" type="line"/>
      <point x="486" y="1373" type="line"/>
      <point x="486" y="139" type="line"/>
      <point x="707" y="98" type="line"/>
    </contour>
    <contour>
      <point x="657" y="10" type="move" name="ogonek"/>
    </contour>
    <contour>
      <point x="365" y="1512" type="move" name="top"/>
    </contour>
  </outline>
</glyph>
<glyph name="J" format="1">
  <advance width="720"/>
  <unicode hex="004A"/>
  <outline>
    <contour>
      <point x="28" y="-396" type="curve"/>
      <point x="-38" y="-289" type="line"/>
      <point x="151" y="-110"/>
      <point x="249" y="44"/>
      <point x="249" y="239" type="curve" smooth="yes"/>
      <point x="251" y="1369" type="line"/>
      <point x="30" y="1420" type="line"/>
      <point x="42" y="1512" type="line"/>
      <point x="705" y="1512" type="line"/>
      <point x="693" y="1420" type="line"/>
      <point x="486" y="1373" type="line"/>
      <point x="484" y="468" type="line" smooth="yes"/>
      <point x="482" y="-30"/>
      <point x="377" y="-167"/>
    </contour>
    <contour>
      <point x="360" y="1512" type="move" name="top"/>
    </contour>
  </outline>
</glyph>
<glyph name="K" format="1">
  <advance width="1477"/>
  <unicode hex="004B"/>
  <outline>
    <contour>
      <point x="518" y="735" type="line"/>
      <point x="516" y="761" type="line"/>
      <point x="550" y="795"/>
      <point x="663" y="920"/>
      <point x="701" y="970" type="curve" smooth="yes"/>
      <point x="1000" y="1363" type="line"/>
      <point x="811" y="1420" type="line"/>
      <point x="821" y="1512" type="line"/>
      <point x="1420" y="1512" type="line"/>
      <point x="1405" y="1420" type="line"/>
      <point x="1191" y="1363" type="line"/>
      <point x="737" y="795" type="line"/>
      <point x="1014" y="468" type="line" smooth="yes"/>
      <point x="1198" y="250"/>
      <point x="1285" y="148"/>
      <point x="1440" y="100" type="curve" smooth="yes"/>
      <point x="1486" y="86" type="line"/>
      <point x="1472" y="2" type="line"/>
      <point x="1416" y="-18"/>
      <point x="1363" y="-26"/>
      <point x="1313" y="-26" type="curve" smooth="yes"/>
      <point x="1110" y="-26"/>
      <point x="962" y="126"/>
      <point x="823" y="317" type="curve" smooth="yes"/>
    </contour>
    <contour>
      <point x="486" y="151" type="line"/>
      <point x="717" y="98" type="line"/>
      <point x="703" y="0" type="line"/>
      <point x="30" y="0" type="line"/>
      <point x="42" y="90" type="line"/>
      <point x="251" y="157" type="line"/>
      <point x="251" y="1359" type="line"/>
      <point x="22" y="1420" type="line"/>
      <point x="38" y="1512" type="line"/>
      <point x="707" y="1512" type="line"/>
      <point x="695" y="1420" type="line"/>
      <point x="486" y="1363" type="line"/>
    </contour>
    <contour>
      <point x="739" y="0" type="move" name="bottom"/>
    </contour>
    <contour>
      <point x="739" y="1512" type="move" name="top"/>
    </contour>
  </outline>
</glyph>
<glyph name="L" format="1">
  <advance width="1295"/>
  <unicode hex="004C"/>
  <outline>
    <contour>
      <point x="715" y="1512" type="line"/>
      <point x="703" y="1420" type="line"/>
      <point x="494" y="1363" type="line"/>
      <point x="494" y="116" type="line"/>
      <point x="1032" y="116" type="line"/>
      <point x="1191" y="418" type="line"/>
      <point x="1295" y="402" type="line"/>
      <point x="1249" y="0" type="line"/>
      <point x="46" y="0" type="line"/>
      <point x="56" y="90" type="line"/>
      <point x="259" y="147" type="line"/>
      <point x="259" y="1359" type="line"/>
      <point x="30" y="1420" type="line"/>
      <point x="46" y="1512" type="line"/>
    </contour>
    <contour>
      <point x="648" y="0" type="move" name="bottom"/>
    </contour>
    <contour>
      <point x="648" y="1512" type="move" name="top"/>
    </contour>
  </outline>
</glyph>
<glyph name="M" format="1">
  <advance width="2023"/>
  <unicode hex="004D"/>
  <outline>
    <contour>
      <point x="885" y="38" type="line"/>
      <point x="468" y="1175" type="line"/>
      <point x="390" y="139" type="line"/>
      <point x="614" y="98" type="line"/>
      <point x="598" y="0" type="line"/>
      <point x="14" y="0" type="line"/>
      <point x="28" y="90" type="line"/>
      <point x="231" y="147" type="line"/>
      <point x="319" y="1369" type="line"/>
      <point x="96" y="1420" type="line"/>
      <point x="110" y="1512" type="line"/>
      <point x="596" y="1512" type="line"/>
      <point x="693" y="1277" type="line"/>
      <point x="1010" y="375" type="line"/>
      <point x="1387" y="1317" type="line"/>
      <point x="1472" y="1512" type="line"/>
      <point x="1952" y="1512" type="line"/>
      <point x="1940" y="1420" type="line"/>
      <point x="1735" y="1373" type="line"/>
      <point x="1799" y="139" type="line"/>
      <point x="2020" y="98" type="line"/>
      <point x="2008" y="0" type="line"/>
      <point x="1357" y="0" type="line"/>
      <point x="1371" y="90" type="line"/>
      <point x="1572" y="147" type="line"/>
      <point x="1504" y="1221" type="line"/>
      <point x="1040" y="62" type="line"/>
    </contour>
  </outline>
</glyph>
<glyph name="N" format="1">
  <advance width="1626"/>
  <unicode hex="004E"/>
  <outline>
    <contour>
      <point x="1213" y="-36" type="line"/>
      <point x="406" y="1169" type="line"/>
      <point x="406" y="139" type="line"/>
      <point x="628" y="98" type="line"/>
      <point x="616" y="0" type="line"/>
      <point x="38" y="0" type="line"/>
      <point x="48" y="90" type="line"/>
      <point x="251" y="147" type="line"/>
      <point x="251" y="1359" type="line"/>
      <point x="30" y="1420" type="line"/>
      <point x="42" y="1512" type="line"/>
      <point x="470" y="1512" type="line"/>
      <point x="1251" y="331" type="line"/>
      <point x="1251" y="1369" type="line"/>
      <point x="1026" y="1420" type="line"/>
      <point x="1040" y="1512" type="line"/>
      <point x="1618" y="1512" type="line"/>
      <point x="1602" y="1420" type="line"/>
      <point x="1399" y="1373" type="line"/>
      <point x="1399" y="2" type="line"/>
    </contour>
    <contour>
      <point x="813" y="0" type="move" name="bottom"/>
    </contour>
    <contour>
      <point x="813" y="1512" type="move" name="top"/>
    </contour>
  </outline>
</glyph>
<glyph name="O" format="1">
  <advance width="1608"/>
  <unicode hex="004F"/>
  <outline>
    <contour>
      <point x="787" y="1430" type="curve" smooth="yes"/>
      <point x="422" y="1430"/>
      <point x="331" y="1140"/>
      <point x="331" y="823" type="curve" smooth="yes"/>
      <point x="331" y="466"/>
      <point x="470" y="96"/>
      <point x="821" y="96" type="curve" smooth="yes"/>
      <point x="1190" y="96"/>
      <point x="1277" y="402"/>
      <point x="1277" y="697" type="curve" smooth="yes"/>
      <point x="1277" y="1042"/>
      <point x="1136" y="1430"/>
    </contour>
    <contour>
      <point x="1548" y="753" type="curve" smooth="yes"/>
      <point x="1548" y="333"/>
      <point x="1267" y="-32"/>
      <point x="761" y="-32" type="curve" smooth="yes"/>
      <point x="341" y="-32"/>
      <point x="60" y="313"/>
      <point x="60" y="753" type="curve" smooth="yes"/>
      <point x="60" y="1221"/>
      <point x="361" y="1548"/>
      <point x="845" y="1548" type="curve" smooth="yes"/>
      <point x="1285" y="1548"/>
      <point x="1548" y="1179"/>
    </contour>
    <contour>
      <point x="804" y="1512" type="move" name="top"/>
    </contour>
  </outline>
</glyph>
<glyph name="P" format="1">
  <advance width="1226"/>
  <unicode hex="0050"/>
  <outline>
    <contour>
      <point x="1237" y="1084" type="curve" smooth="yes"/>
      <point x="1237" y="795"/>
      <point x="972" y="600"/>
      <point x="677" y="600" type="curve" smooth="yes"/>
      <point x="633" y="600"/>
      <point x="594" y="602"/>
      <point x="556" y="604" type="curve"/>
      <point x="534" y="705" type="line"/>
      <point x="598" y="707" type="line" smooth="yes"/>
      <point x="859" y="715"/>
      <point x="986" y="823"/>
      <point x="986" y="1040" type="curve" smooth="yes"/>
      <point x="986" y="1247"/>
      <point x="879" y="1426"/>
      <point x="602" y="1426" type="curve" smooth="yes"/>
      <point x="552" y="1426"/>
      <point x="478" y="1418"/>
      <point x="478" y="1418" type="curve"/>
      <point x="478" y="149" type="line"/>
      <point x="765" y="102" type="line"/>
      <point x="749" y="0" type="line"/>
      <point x="28" y="0" type="line"/>
      <point x="40" y="90" type="line"/>
      <point x="245" y="147" type="line"/>
      <point x="245" y="1343" type="line"/>
      <point x="36" y="1379" type="line"/>
      <point x="48" y="1472" type="line"/>
      <point x="205" y="1496"/>
      <point x="421" y="1526"/>
      <point x="628" y="1526" type="curve" smooth="yes"/>
      <point x="945" y="1526"/>
      <point x="1237" y="1439"/>
    </contour>
  </outline>
</glyph>
<glyph name="Q" format="1">
  <advance width="1622"/>
  <unicode hex="0051"/>
  <outline>
    <contour>
      <point x="809" y="1420" type="curve" smooth="yes"/>
      <point x="504" y="1420"/>
      <point x="321" y="1204"/>
      <point x="321" y="827" type="curve" smooth="yes"/>
      <point x="321" y="536"/>
      <point x="450" y="108"/>
      <point x="912" y="82" type="curve"/>
      <point x="1239" y="164"/>
      <point x="1329" y="410"/>
      <point x="1329" y="685" type="curve" smooth="yes"/>
      <point x="1329" y="1042"/>
      <point x="1130" y="1420"/>
    </contour>
    <contour>
      <point x="855" y="-26" type="curve"/>
      <point x="843" y="-30"/>
      <point x="795" y="-32"/>
      <point x="777" y="-32" type="curve" smooth="yes"/>
      <point x="357" y="-32"/>
      <point x="74" y="299"/>
      <point x="74" y="739" type="curve" smooth="yes"/>
      <point x="74" y="1209"/>
      <point x="395" y="1548"/>
      <point x="877" y="1548" type="curve" smooth="yes"/>
      <point x="1311" y="1548"/>
      <point x="1580" y="1191"/>
      <point x="1580" y="765" type="curve" smooth="yes"/>
      <point x="1580" y="408"/>
      <point x="1365" y="82"/>
      <point x="996" y="-8" type="curve"/>
      <point x="1068" y="-173"/>
      <point x="1173" y="-277"/>
      <point x="1522" y="-335" type="curve"/>
      <point x="1522" y="-365"/>
      <point x="1518" y="-404"/>
      <point x="1510" y="-426" type="curve"/>
      <point x="1434" y="-462"/>
      <point x="1363" y="-468"/>
      <point x="1295" y="-468" type="curve" smooth="yes"/>
      <point x="1074" y="-468"/>
      <point x="877" y="-303"/>
    </contour>
  </outline>
</glyph>
<glyph name="R" format="1">
  <advance width="1475"/>
  <unicode hex="0052"/>
  <outline>
    <contour>
      <point x="1213" y="1146" type="curve" smooth="yes"/>
      <point x="1213" y="989"/>
      <point x="1094" y="811"/>
      <point x="865" y="729" type="curve"/>
      <point x="865" y="727" type="line"/>
      <point x="1084" y="424" type="line" smooth="yes"/>
      <point x="1227" y="227"/>
      <point x="1289" y="140"/>
      <point x="1440" y="94" type="curve" smooth="yes"/>
      <point x="1480" y="82" type="line"/>
      <point x="1462" y="-2" type="line"/>
      <point x="1410" y="-20"/>
      <point x="1361" y="-26"/>
      <point x="1315" y="-26" type="curve" smooth="yes"/>
      <point x="1122" y="-26"/>
      <point x="989" y="118"/>
      <point x="883" y="307" type="curve" smooth="yes"/>
      <point x="689" y="653" type="line"/>
      <point x="478" y="653" type="line"/>
      <point x="478" y="153" type="line"/>
      <point x="707" y="100" type="line"/>
      <point x="695" y="0" type="line"/>
      <point x="28" y="0" type="line"/>
      <point x="40" y="90" type="line"/>
      <point x="245" y="147" type="line"/>
      <point x="245" y="1339" type="line"/>
      <point x="36" y="1375" type="line"/>
      <point x="48" y="1468" type="line"/>
      <point x="227" y="1496"/>
      <point x="423" y="1524"/>
      <point x="604" y="1524" type="curve" smooth="yes"/>
      <point x="965" y="1524"/>
      <point x="1213" y="1429"/>
    </contour>
    <contour>
      <point x="719" y="763" type="line"/>
      <point x="839" y="803"/>
      <point x="962" y="905"/>
      <point x="962" y="1078" type="curve" smooth="yes"/>
      <point x="962" y="1277"/>
      <point x="839" y="1422"/>
      <point x="624" y="1422" type="curve" smooth="yes"/>
      <point x="538" y="1422"/>
      <point x="478" y="1416"/>
      <point x="478" y="1416" type="curve"/>
      <point x="478" y="763" type="line"/>
    </contour>
    <contour>
      <point x="738" y="0" type="move" name="bottom"/>
    </contour>
    <contour>
      <point x="738" y="1512" type="move" name="top"/>
    </contour>
  </outline>
</glyph>
<glyph name="S" format="1">
  <advance width="1050"/>
  <unicode hex="0053"/>
  <outline>
    <contour>
      <point x="873" y="1078" type="curve"/>
      <point x="753" y="1092" type="line"/>
      <point x="721" y="1325" type="line"/>
      <point x="699" y="1369"/>
      <point x="614" y="1440"/>
      <point x="516" y="1440" type="curve" smooth="yes"/>
      <point x="394" y="1440"/>
      <point x="293" y="1370"/>
      <point x="293" y="1211" type="curve" smooth="yes"/>
      <point x="293" y="862"/>
      <point x="1004" y="888"/>
      <point x="1004" y="430" type="curve" smooth="yes"/>
      <point x="1004" y="151"/>
      <point x="741" y="-30"/>
      <point x="464" y="-30" type="curve" smooth="yes"/>
      <point x="289" y="-30"/>
      <point x="132" y="53"/>
      <point x="54" y="149" type="curve"/>
      <point x="70" y="474" type="line"/>
      <point x="195" y="456" type="line"/>
      <point x="241" y="227" type="line"/>
      <point x="285" y="157"/>
      <point x="378" y="94"/>
      <point x="492" y="94" type="curve" smooth="yes"/>
      <point x="621" y="94"/>
      <point x="781" y="168"/>
      <point x="781" y="349" type="curve" smooth="yes"/>
      <point x="781" y="664"/>
      <point x="84" y="662"/>
      <point x="84" y="1114" type="curve" smooth="yes"/>
      <point x="84" y="1389"/>
      <point x="317" y="1544"/>
      <point x="556" y="1544" type="curve" smooth="yes"/>
      <point x="687" y="1544"/>
      <point x="804" y="1502"/>
      <point x="900" y="1422" type="curve"/>
      <point x="900" y="1412"/>
      <point x="873" y="1078"/>
    </contour>
    <contour>
      <point x="525" y="0" type="move" name="bottom"/>
    </contour>
    <contour>
      <point x="525" y="1512" type="move" name="top"/>
    </contour>
  </outline>
</glyph>
<glyph name="T" format="1">
  <advance width="1361"/>
  <unicode hex="0054"/>
  <outline>
    <contour>
      <point x="10" y="1512" type="line"/>
      <point x="1361" y="1512" type="line"/>
      <point x="1319" y="1102" type="line"/>
      <point x="1205" y="1120" type="line"/>
      <point x="1157" y="1401" type="line"/>
      <point x="787" y="1401" type="line"/>
      <point x="787" y="139" type="line"/>
      <point x="1012" y="98" type="line"/>
      <point x="996" y="0" type="line"/>
      <point x="339" y="0" type="line"/>
      <point x="349" y="90" type="line"/>
      <point x="554" y="147" type="line"/>
      <point x="554" y="1401" type="line"/>
      <point x="195" y="1401" type="line"/>
      <point x="131" y="1106" type="line"/>
      <point x="20" y="1122" type="line"/>
    </contour>
    <contour>
      <point x="681" y="1512" type="move" name="top"/>
    </contour>
    <contour>
      <point x="681" y="756" type="move" name="center"/>
    </contour>
    <contour>
      <point x="681" y="0" type="move" name="bottom"/>
    </contour>
  </outline>
</glyph>
<glyph name="V" format="1">
  <advance width="1562"/>
  <unicode hex="0056"/>
  <outline>
    <contour>
      <point x="689" y="-30" type="line"/>
      <point x="179" y="1369" type="line"/>
      <point x="2" y="1420" type="line"/>
      <point x="14" y="1512" type="line"/>
      <point x="667" y="1512" type="line"/>
      <point x="655" y="1420" type="line"/>
      <point x="450" y="1373" type="line"/>
      <point x="829" y="305" type="line"/>
      <point x="1219" y="1369" type="line"/>
      <point x="996" y="1420" type="line"/>
      <point x="1006" y="1512" type="line"/>
      <point x="1560" y="1512" type="line"/>
      <point x="1550" y="1420" type="line"/>
      <point x="1391" y="1373" type="line"/>
      <point x="873" y="6" type="line"/>
    </contour>
  </outline>
</glyph>
<glyph name="W" format="1">
  <advance width="2242"/>
  <unicode hex="0057"/>
  <outline>
    <contour>
      <point x="1438" y="-30" type="line"/>
      <point x="1120" y="1157" type="line"/>
      <point x="773" y="6" type="line"/>
      <point x="576" y="-30" type="line"/>
      <point x="179" y="1369" type="line"/>
      <point x="10" y="1420" type="line"/>
      <point x="20" y="1512" type="line"/>
      <point x="645" y="1512" type="line"/>
      <point x="628" y="1420" type="line"/>
      <point x="424" y="1373" type="line"/>
      <point x="719" y="331" type="line"/>
      <point x="1060" y="1452" type="line"/>
      <point x="1275" y="1482" type="line"/>
      <point x="1576" y="349" type="line"/>
      <point x="1893" y="1369" type="line"/>
      <point x="1673" y="1420" type="line"/>
      <point x="1687" y="1512" type="line"/>
      <point x="2233" y="1512" type="line"/>
      <point x="2219" y="1420" type="line"/>
      <point x="2070" y="1373" type="line"/>
      <point x="1626" y="6" type="line"/>
    </contour>
    <contour>
      <point x="1121" y="1512" type="move" name="top"/>
    </contour>
  </outline>
</glyph>
<glyph name="X" format="1">
  <advance width="1461"/>
  <unicode hex="0058"/>
  <outline>
    <contour>
      <point x="867" y="799" type="line"/>
      <point x="1283" y="139" type="line"/>
      <point x="1448" y="98" type="line"/>
      <point x="1432" y="0" type="line"/>
      <point x="819" y="0" type="line"/>
      <point x="835" y="90" type="line"/>
      <point x="1030" y="147" type="line"/>
      <point x="711" y="643" type="line"/>
      <point x="357" y="143" type="line"/>
      <point x="558" y="102" type="line"/>
      <point x="540" y="0" type="line"/>
      <point x="4" y="0" type="line"/>
      <point x="20" y="92" type="line"/>
      <point x="173" y="147" type="line"/>
      <point x="618" y="747" type="line"/>
      <point x="207" y="1365" type="line"/>
      <point x="40" y="1418" type="line"/>
      <point x="54" y="1512" type="line"/>
      <point x="679" y="1512" type="line"/>
      <point x="665" y="1418" type="line"/>
      <point x="476" y="1363" type="line"/>
      <point x="777" y="912" type="line"/>
      <point x="1106" y="1369" type="line"/>
      <point x="900" y="1418" type="line"/>
      <point x="914" y="1512" type="line"/>
      <point x="1444" y="1512" type="line"/>
      <point x="1434" y="1420" type="line"/>
      <point x="1279" y="1373" type="line"/>
    </contour>
  </outline>
</glyph>
<glyph name="Y" format="1">
  <advance width="1471"/>
  <unicode hex="0059"/>
  <outline>
    <contour>
      <point x="869" y="643" type="line"/>
      <point x="869" y="139" type="line"/>
      <point x="1068" y="98" type="line"/>
      <point x="1056" y="0" type="line"/>
      <point x="440" y="0" type="line"/>
      <point x="452" y="90" type="line"/>
      <point x="634" y="147" type="line"/>
      <point x="634" y="614" type="line"/>
      <point x="205" y="1369" type="line"/>
      <point x="38" y="1420" type="line"/>
      <point x="54" y="1512" type="line"/>
      <point x="671" y="1512" type="line"/>
      <point x="657" y="1420" type="line"/>
      <point x="464" y="1373" type="line"/>
      <point x="801" y="779" type="line"/>
      <point x="1122" y="1369" type="line"/>
      <point x="900" y="1420" type="line"/>
      <point x="912" y="1512" type="line"/>
      <point x="1452" y="1512" type="line"/>
      <point x="1440" y="1420" type="line"/>
      <point x="1289" y="1373" type="line"/>
    </contour>
    <contour>
      <point x="736" y="1512" type="move" name="top"/>
    </contour>
  </outline>
</glyph>
<glyph name="Z" format="1">
  <advance width="1226"/>
  <unicode hex="005A"/>
  <outline>
    <contour>
      <point x="62" y="1512" type="line"/>
      <point x="1191" y="1512" type="line"/>
      <point x="1191" y="1420" type="line"/>
      <point x="261" y="122" type="line"/>
      <point x="954" y="122" type="line"/>
      <point x="1104" y="426" type="line"/>
      <point x="1217" y="408" type="line"/>
      <point x="1148" y="0" type="line"/>
      <point x="10" y="0" type="line"/>
      <point x="0" y="126" type="line"/>
      <point x="906" y="1397" type="line"/>
      <point x="253" y="1397" type="line"/>
      <point x="159" y="1098" type="line"/>
      <point x="50" y="1120" type="line"/>
    </contour>
    <contour>
      <point x="613" y="1512" type="move" name="top"/>
    </contour>
  </outline>
</glyph>
<glyph name="bracketleft" format="1">
  <advance width="588"/>
  <unicode hex="005B"/>
  <outline>
    <contour>
      <point x="516" y="-456" type="line"/>
      <point x="81" y="-458" type="line"/>
      <point x="82" y="1526" type="line"/>
      <point x="512" y="1526" type="line"/>
      <point x="526" y="1418" type="line"/>
      <point x="265" y="1393" type="line"/>
      <point x="265" y="-315" type="line"/>
      <point x="528" y="-339" type="line"/>
    </contour>
  </outline>
</glyph>
<glyph name="backslash" format="1">
  <advance width="666"/>
  <unicode hex="005C"/>
  <outline>
    <contour>
      <point x="133" y="1539" type="line"/>
      <point x="695" y="-458" type="line"/>
      <point x="538" y="-448" type="line"/>
      <point x="-28" y="1549" type="line"/>
    </contour>
  </outline>
</glyph>
<glyph name="bracketright" format="1">
  <advance width="588"/>
  <unicode hex="005D"/>
  <outline>
    <contour>
      <point x="72" y="-456" type="line"/>
      <point x="60" y="-339" type="line"/>
      <point x="323" y="-315" type="line"/>
      <point x="323" y="1393" type="line"/>
      <point x="62" y="1418" type="line"/>
      <point x="76" y="1526" type="line"/>
      <point x="506" y="1526" type="line"/>
      <point x="507" y="-458" type="line"/>
    </contour>
  </outline>
</glyph>
<glyph name="asciicircum" format="1">
  <advance width="913"/>
  <unicode hex="005E"/>
  <outline>
    <contour>
      <point x="486" y="1520" type="line"/>
      <point x="845" y="1002" type="line"/>
      <point x="777" y="958" type="line"/>
      <point x="446" y="1305" type="line"/>
      <point x="434" y="1305" type="line"/>
      <point x="129" y="964" type="line"/>
      <point x="68" y="1004" type="line"/>
      <point x="420" y="1504" type="line"/>
    </contour>
  </outline>
</glyph>
<glyph name="underscore" format="1">
  <advance width="1096"/>
  <unicode hex="005F"/>
  <outline>
    <contour>
      <point x="50" y="-32" type="line"/>
      <point x="1058" y="-32" type="line"/>
      <point x="1044" y="-161" type="line"/>
      <point x="36" y="-161" type="line"/>
    </contour>
  </outline>
</glyph>
<glyph name="grave" format="1">
  <advance width="771"/>
  <unicode hex="0060"/>
  <outline>
    <contour>
      <point x="199" y="2018" type="line"/>
      <point x="339" y="2064" type="line"/>
      <point x="500" y="1658" type="line"/>
      <point x="430" y="1616" type="line"/>
    </contour>
    <contour>
      <point x="460" y="1512" type="move" name="_top"/>
    </contour>
  </outline>
</glyph>
<glyph name="b" format="1">
  <advance width="1180"/>
  <unicode hex="0062"/>
  <outline>
    <contour>
      <point x="169" y="60" type="curve"/>
      <point x="169" y="1347" type="line"/>
      <point x="-16" y="1412" type="line"/>
      <point x="0" y="1504" type="line"/>
      <point x="337" y="1530" type="line"/>
      <point x="367" y="1502" type="line"/>
      <point x="367" y="1032" type="line"/>
      <point x="349" y="906" type="line"/>
      <point x="363" y="906" type="line"/>
      <point x="459" y="1014"/>
      <point x="574" y="1092"/>
      <point x="711" y="1092" type="curve" smooth="yes"/>
      <point x="946" y="1092"/>
      <point x="1102" y="881"/>
      <point x="1102" y="574" type="curve" smooth="yes"/>
      <point x="1102" y="188"/>
      <point x="817" y="-28"/>
      <point x="502" y="-28" type="curve" smooth="yes"/>
      <point x="392" y="-28"/>
      <point x="267" y="-2"/>
    </contour>
    <contour>
      <point x="885" y="496" type="curve" smooth="yes"/>
      <point x="885" y="677"/>
      <point x="835" y="934"/>
      <point x="628" y="934" type="curve" smooth="yes"/>
      <point x="560" y="934"/>
      <point x="463" y="919"/>
      <point x="367" y="817" type="curve"/>
      <point x="367" y="189" type="line"/>
      <point x="417" y="139"/>
      <point x="518" y="106"/>
      <point x="624" y="106" type="curve" smooth="yes"/>
      <point x="763" y="106"/>
      <point x="885" y="225"/>
    </contour>
  </outline>
</glyph>
<glyph name="c" format="1">
  <advance width="953"/>
  <unicode hex="0063"/>
  <outline>
    <contour>
      <point x="660" y="109" type="curve" smooth="yes"/>
      <point x="780" y="109"/>
      <point x="848" y="149"/>
      <point x="906" y="185" type="curve"/>
      <point x="936" y="114" type="line"/>
      <point x="872" y="36"/>
      <point x="717" y="-36"/>
      <point x="560" y="-36" type="curve" smooth="yes"/>
      <point x="267" y="-36"/>
      <point x="80" y="215"/>
      <point x="80" y="506" type="curve" smooth="yes"/>
      <point x="80" y="867"/>
      <point x="333" y="1094"/>
      <point x="596" y="1094" type="curve" smooth="yes"/>
      <point x="799" y="1094"/>
      <point x="889" y="1004"/>
      <point x="889" y="908" type="curve" smooth="yes"/>
      <point x="889" y="836"/>
      <point x="837" y="789"/>
      <point x="735" y="781" type="curve"/>
      <point x="701" y="863"/>
      <point x="644" y="980"/>
      <point x="538" y="980" type="curve" smooth="yes"/>
      <point x="393" y="980"/>
      <point x="299" y="835"/>
      <point x="299" y="616" type="curve" smooth="yes"/>
      <point x="299" y="413"/>
      <point x="407" y="109"/>
    </contour>
    <contour>
      <point x="477" y="0" type="move" name="bottom"/>
    </contour>
    <contour>
      <point x="597" y="1064" type="move" name="top"/>
    </contour>
  </outline>
</glyph>
<glyph name="e" format="1">
  <advance width="1003"/>
  <unicode hex="0065"/>
  <outline>
    <contour>
      <point x="879" y="548" type="curve"/>
      <point x="291" y="542" type="line"/>
      <point x="301" y="351"/>
      <point x="403" y="124"/>
      <point x="630" y="124" type="curve" smooth="yes"/>
      <point x="637" y="124" type="line" smooth="yes"/>
      <point x="719" y="124"/>
      <point x="784" y="125"/>
      <point x="906" y="191" type="curve"/>
      <point x="932" y="126" type="line"/>
      <point x="836" y="26"/>
      <point x="693" y="-36"/>
      <point x="532" y="-36" type="curve" smooth="yes"/>
      <point x="303" y="-36"/>
      <point x="74" y="151"/>
      <point x="74" y="520" type="curve" smooth="yes"/>
      <point x="74" y="885"/>
      <point x="339" y="1092"/>
      <point x="574" y="1092" type="curve" smooth="yes"/>
      <point x="751" y="1092"/>
      <point x="900" y="964"/>
      <point x="900" y="707" type="curve" smooth="yes"/>
      <point x="900" y="669"/>
      <point x="889" y="590"/>
    </contour>
    <contour>
      <point x="293" y="637" type="curve"/>
      <point x="675" y="663" type="line"/>
      <point x="681" y="683"/>
      <point x="683" y="727"/>
      <point x="683" y="747" type="curve" smooth="yes"/>
      <point x="683" y="892"/>
      <point x="630" y="974"/>
      <point x="514" y="974" type="curve" smooth="yes"/>
      <point x="416" y="974"/>
      <point x="305" y="874"/>
    </contour>
    <contour>
      <point x="572" y="1064" type="move" name="top"/>
    </contour>
    <contour>
      <point x="903" y="10" type="move" name="ogonek"/>
    </contour>
    <contour>
      <point x="502" y="0" type="move" name="bottom"/>
    </contour>
  </outline>
</glyph>
<glyph name="f" format="1">
  <advance width="744"/>
  <unicode hex="0066"/>
  <outline>
    <contour>
      <point x="452" y="1193" type="curve"/>
      <point x="450" y="1062" type="line"/>
      <point x="763" y="1062" type="line"/>
      <point x="747" y="954" type="line"/>
      <point x="450" y="954" type="line"/>
      <point x="450" y="147" type="line"/>
      <point x="749" y="102" type="line"/>
      <point x="739" y="0" type="line"/>
      <point x="48" y="0" type="line"/>
      <point x="62" y="88" type="line"/>
      <point x="247" y="141" type="line"/>
      <point x="247" y="954" type="line"/>
      <point x="66" y="954" type="line"/>
      <point x="80" y="1042" type="line"/>
      <point x="249" y="1070" type="line"/>
      <point x="289" y="1421"/>
      <point x="532" y="1586"/>
      <point x="705" y="1586" type="curve" smooth="yes"/>
      <point x="834" y="1586"/>
      <point x="932" y="1544"/>
      <point x="932" y="1446" type="curve" smooth="yes"/>
      <point x="932" y="1386"/>
      <point x="863" y="1325"/>
      <point x="823" y="1309" type="curve"/>
      <point x="775" y="1369"/>
      <point x="686" y="1458"/>
      <point x="610" y="1458" type="curve" smooth="yes"/>
      <point x="520" y="1458"/>
      <point x="458" y="1402"/>
    </contour>
  </outline>
</glyph>
<glyph name="h" format="1">
  <advance width="1297"/>
  <unicode hex="0068"/>
  <outline>
    <contour>
      <point x="1088" y="729" type="curve" smooth="yes"/>
      <point x="1088" y="139" type="line"/>
      <point x="1265" y="96" type="line"/>
      <point x="1251" y="0" type="line"/>
      <point x="705" y="0" type="line"/>
      <point x="719" y="90" type="line"/>
      <point x="883" y="139" type="line"/>
      <point x="887" y="697" type="line"/>
      <point x="887" y="705" type="line" smooth="yes"/>
      <point x="887" y="878"/>
      <point x="773" y="930"/>
      <point x="677" y="930" type="curve" smooth="yes"/>
      <point x="607" y="930"/>
      <point x="528" y="909"/>
      <point x="442" y="821" type="curve"/>
      <point x="442" y="141" type="line"/>
      <point x="620" y="98" type="line"/>
      <point x="606" y="0" type="line"/>
      <point x="40" y="0" type="line"/>
      <point x="54" y="96" type="line"/>
      <point x="241" y="141" type="line"/>
      <point x="241" y="1359" type="line"/>
      <point x="46" y="1424" type="line"/>
      <point x="60" y="1516" type="line"/>
      <point x="412" y="1544" type="line"/>
      <point x="442" y="1514" type="line"/>
      <point x="442" y="1034" type="line"/>
      <point x="422" y="906" type="line"/>
      <point x="436" y="906" type="line"/>
      <point x="536" y="1018"/>
      <point x="656" y="1096"/>
      <point x="793" y="1096" type="curve" smooth="yes"/>
      <point x="962" y="1096"/>
      <point x="1088" y="1024"/>
    </contour>
    <contour>
      <point x="649" y="532" type="move" name="center"/>
    </contour>
    <contour>
      <point x="649" y="1064" type="move" name="top"/>
    </contour>
  </outline>
</glyph>
<glyph name="i" format="1">
  <advance width="696"/>
  <unicode hex="0069"/>
  <outline>
    <contour>
      <point x="74" y="96" type="line"/>
      <point x="259" y="141" type="line"/>
      <point x="259" y="889" type="line"/>
      <point x="74" y="956" type="line"/>
      <point x="90" y="1048" type="line"/>
      <point x="432" y="1076" type="line"/>
      <point x="462" y="1046" type="line"/>
      <point x="462" y="141" type="line"/>
      <point x="657" y="98" type="line"/>
      <point x="643" y="0" type="line"/>
      <point x="60" y="0" type="line"/>
    </contour>
    <contour>
      <point x="349" y="1589" type="curve" smooth="yes"/>
      <point x="429" y="1589"/>
      <point x="498" y="1528"/>
      <point x="498" y="1450" type="curve" smooth="yes"/>
      <point x="498" y="1368"/>
      <point x="429" y="1301"/>
      <point x="349" y="1301" type="curve" smooth="yes"/>
      <point x="269" y="1301"/>
      <point x="205" y="1370"/>
      <point x="205" y="1452" type="curve" smooth="yes"/>
      <point x="205" y="1530"/>
      <point x="273" y="1589"/>
    </contour>
  </outline>
</glyph>
<glyph name="j" format="1">
  <advance width="560"/>
  <unicode hex="006A"/>
  <outline>
    <contour>
      <point x="209" y="209" type="curve" smooth="yes"/>
      <point x="209" y="889" type="line"/>
      <point x="26" y="956" type="line"/>
      <point x="44" y="1052" type="line"/>
      <point x="383" y="1078" type="line"/>
      <point x="414" y="1048" type="line"/>
      <point x="414" y="183" type="line" smooth="yes"/>
      <point x="414" y="-160"/>
      <point x="239" y="-333"/>
      <point x="54" y="-436" type="curve" smooth="yes"/>
      <point x="0" y="-466" type="line"/>
      <point x="-60" y="-359" type="line"/>
      <point x="71" y="-261"/>
      <point x="209" y="-120"/>
    </contour>
    <contour>
      <point x="448" y="1444" type="curve" smooth="yes"/>
      <point x="448" y="1362"/>
      <point x="381" y="1293"/>
      <point x="299" y="1293" type="curve" smooth="yes"/>
      <point x="217" y="1293"/>
      <point x="151" y="1364"/>
      <point x="151" y="1446" type="curve" smooth="yes"/>
      <point x="151" y="1528"/>
      <point x="219" y="1590"/>
      <point x="301" y="1590" type="curve" smooth="yes"/>
      <point x="381" y="1590"/>
      <point x="448" y="1524"/>
    </contour>
  </outline>
</glyph>
<glyph name="k" format="1">
  <advance width="1200"/>
  <unicode hex="006B"/>
  <outline>
    <contour>
      <point x="472" y="550" type="line"/>
      <point x="787" y="944" type="line"/>
      <point x="624" y="994" type="line"/>
      <point x="638" y="1086" type="line"/>
      <point x="1155" y="1086" type="line"/>
      <point x="1138" y="996" type="line"/>
      <point x="956" y="946" type="line"/>
      <point x="669" y="592" type="line"/>
      <point x="765" y="470" type="line" smooth="yes"/>
      <point x="944" y="243"/>
      <point x="1008" y="120"/>
      <point x="1161" y="100" type="curve" smooth="yes"/>
      <point x="1209" y="94" type="line"/>
      <point x="1195" y="0" type="line"/>
      <point x="1177" y="-6"/>
      <point x="1104" y="-24"/>
      <point x="1050" y="-24" type="curve" smooth="yes"/>
      <point x="889" y="-24"/>
      <point x="799" y="80"/>
      <point x="600" y="349" type="curve"/>
      <point x="472" y="526" type="line"/>
    </contour>
    <contour>
      <point x="54" y="96" type="line"/>
      <point x="239" y="141" type="line"/>
      <point x="239" y="1347" type="line"/>
      <point x="48" y="1412" type="line"/>
      <point x="62" y="1504" type="line"/>
      <point x="412" y="1532" type="line"/>
      <point x="442" y="1502" type="line"/>
      <point x="442" y="1432" type="line"/>
      <point x="442" y="141" type="line"/>
      <point x="636" y="98" type="line"/>
      <point x="622" y="0" type="line"/>
      <point x="40" y="0" type="line"/>
    </contour>
    <contour>
      <point x="600" y="0" type="move" name="bottom"/>
    </contour>
  </outline>
</glyph>
<glyph name="l" format="1">
  <advance width="676"/>
  <unicode hex="006C"/>
  <outline>
    <contour>
      <point x="442" y="141" type="line"/>
      <point x="636" y="98" type="line"/>
      <point x="622" y="0" type="line"/>
      <point x="40" y="0" type="line"/>
      <point x="54" y="96" type="line"/>
      <point x="239" y="141" type="line"/>
      <point x="239" y="1359" type="line"/>
      <point x="48" y="1424" type="line"/>
      <point x="62" y="1516" type="line"/>
      <point x="412" y="1544" type="line"/>
      <point x="442" y="1514" type="line"/>
    </contour>
    <contour>
      <point x="338" y="1064" type="move" name="top"/>
    </contour>
    <contour>
      <point x="656" y="1064" type="move" name="topright"/>
    </contour>
    <contour>
      <point x="338" y="0" type="move" name="bottom"/>
    </contour>
  </outline>
</glyph>
<glyph name="m" format="1">
  <advance width="1945"/>
  <unicode hex="006D"/>
  <outline>
    <contour>
      <point x="1082" y="889" type="curve"/>
      <point x="1096" y="889" type="line"/>
      <point x="1174" y="989"/>
      <point x="1303" y="1080"/>
      <point x="1456" y="1080" type="curve" smooth="yes"/>
      <point x="1659" y="1080"/>
      <point x="1743" y="952"/>
      <point x="1743" y="741" type="curve" smooth="yes"/>
      <point x="1743" y="141" type="line"/>
      <point x="1911" y="98" type="line"/>
      <point x="1895" y="2" type="line"/>
      <point x="1377" y="2" type="line"/>
      <point x="1387" y="90" type="line"/>
      <point x="1538" y="139" type="line"/>
      <point x="1538" y="711" type="line" smooth="yes"/>
      <point x="1538" y="827"/>
      <point x="1466" y="924"/>
      <point x="1335" y="924" type="curve" smooth="yes"/>
      <point x="1227" y="924"/>
      <point x="1158" y="863"/>
      <point x="1102" y="803" type="curve"/>
      <point x="1102" y="139" type="line"/>
      <point x="1283" y="96" type="line"/>
      <point x="1271" y="0" type="line"/>
      <point x="731" y="0" type="line"/>
      <point x="745" y="90" type="line"/>
      <point x="904" y="139" type="line"/>
      <point x="904" y="711" type="line" smooth="yes"/>
      <point x="904" y="840"/>
      <point x="813" y="924"/>
      <point x="697" y="924" type="curve" smooth="yes"/>
      <point x="607" y="924"/>
      <point x="518" y="889"/>
      <point x="456" y="819" type="curve"/>
      <point x="456" y="139" type="line"/>
      <point x="630" y="96" type="line"/>
      <point x="618" y="0" type="line"/>
      <point x="56" y="0" type="line"/>
      <point x="68" y="90" type="line"/>
      <point x="251" y="139" type="line"/>
      <point x="251" y="875" type="line"/>
      <point x="56" y="936" type="line"/>
      <point x="68" y="1028" type="line"/>
      <point x="438" y="1078" type="line"/>
      <point x="460" y="1054" type="line"/>
      <point x="438" y="900" type="line"/>
      <point x="450" y="900" type="line"/>
      <point x="528" y="996"/>
      <point x="662" y="1090"/>
      <point x="815" y="1090" type="curve" smooth="yes"/>
      <point x="925" y="1090"/>
      <point x="1044" y="1038"/>
    </contour>
  </outline>
</glyph>
<glyph name="n" format="1">
  <advance width="1321"/>
  <unicode hex="006E"/>
  <outline>
    <contour>
      <point x="1110" y="749" type="curve" smooth="yes"/>
      <point x="1110" y="139" type="line"/>
      <point x="1285" y="96" type="line"/>
      <point x="1273" y="0" type="line"/>
      <point x="725" y="0" type="line"/>
      <point x="739" y="88" type="line"/>
      <point x="906" y="139" type="line"/>
      <point x="906" y="701" type="line" smooth="yes"/>
      <point x="906" y="858"/>
      <point x="815" y="926"/>
      <point x="695" y="926" type="curve" smooth="yes"/>
      <point x="607" y="926"/>
      <point x="518" y="889"/>
      <point x="456" y="821" type="curve"/>
      <point x="456" y="139" type="line"/>
      <point x="636" y="96" type="line"/>
      <point x="620" y="0" type="line"/>
      <point x="56" y="0" type="line"/>
      <point x="68" y="88" type="line"/>
      <point x="251" y="139" type="line"/>
      <point x="251" y="877" type="line"/>
      <point x="64" y="940" type="line"/>
      <point x="76" y="1032" type="line"/>
      <point x="438" y="1080" type="line"/>
      <point x="460" y="1056" type="line"/>
      <point x="438" y="902" type="line"/>
      <point x="450" y="902" type="line"/>
      <point x="532" y="1000"/>
      <point x="664" y="1092"/>
      <point x="817" y="1092" type="curve" smooth="yes"/>
      <point x="1008" y="1092"/>
      <point x="1110" y="966"/>
    </contour>
    <contour>
      <point x="661" y="0" type="move" name="bottom"/>
    </contour>
    <contour>
      <point x="661" y="1064" type="move" name="top"/>
    </contour>
  </outline>
</glyph>
<glyph name="p" format="1">
  <advance width="1202"/>
  <unicode hex="0070"/>
  <outline>
    <contour>
      <point x="582" y="-24" type="curve" smooth="yes"/>
      <point x="546" y="-24"/>
      <point x="508" y="-20"/>
      <point x="468" y="-12" type="curve"/>
      <point x="462" y="135" type="line"/>
      <point x="518" y="113"/>
      <point x="551" y="108"/>
      <point x="647" y="108" type="curve" smooth="yes"/>
      <point x="816" y="108"/>
      <point x="902" y="265"/>
      <point x="902" y="494" type="curve" smooth="yes"/>
      <point x="902" y="783"/>
      <point x="824" y="934"/>
      <point x="669" y="934" type="curve" smooth="yes"/>
      <point x="565" y="934"/>
      <point x="474" y="865"/>
      <point x="420" y="809" type="curve"/>
      <point x="420" y="-313" type="line"/>
      <point x="608" y="-355" type="line"/>
      <point x="594" y="-454" type="line"/>
      <point x="28" y="-454" type="line"/>
      <point x="36" y="-357" type="line"/>
      <point x="221" y="-311" type="line"/>
      <point x="221" y="879" type="line"/>
      <point x="34" y="934" type="line"/>
      <point x="48" y="1028" type="line"/>
      <point x="402" y="1072" type="line"/>
      <point x="428" y="1050" type="line"/>
      <point x="410" y="893" type="line"/>
      <point x="420" y="893" type="line"/>
      <point x="482" y="979"/>
      <point x="596" y="1092"/>
      <point x="755" y="1092" type="curve" smooth="yes"/>
      <point x="962" y="1092"/>
      <point x="1124" y="939"/>
      <point x="1124" y="568" type="curve" smooth="yes"/>
      <point x="1124" y="221"/>
      <point x="895" y="-24"/>
    </contour>
  </outline>
</glyph>
<glyph name="q" format="1">
  <advance width="1186"/>
  <unicode hex="0071"/>
  <outline>
    <contour>
      <point x="751" y="88" type="line"/>
      <point x="675" y="16"/>
      <point x="542" y="-26"/>
      <point x="458" y="-26" type="curve" smooth="yes"/>
      <point x="243" y="-26"/>
      <point x="60" y="141"/>
      <point x="60" y="502" type="curve" smooth="yes"/>
      <point x="60" y="833"/>
      <point x="341" y="1096"/>
      <point x="596" y="1096" type="curve" smooth="yes"/>
      <point x="676" y="1096"/>
      <point x="771" y="1058"/>
      <point x="807" y="1038" type="curve"/>
      <point x="948" y="1084" type="line"/>
      <point x="984" y="1082" type="line"/>
      <point x="984" y="-305" type="line"/>
      <point x="1179" y="-347" type="line"/>
      <point x="1165" y="-446" type="line"/>
      <point x="586" y="-446" type="line"/>
      <point x="598" y="-349" type="line"/>
      <point x="781" y="-305" type="line"/>
      <point x="781" y="807" type="line"/>
      <point x="739" y="881"/>
      <point x="658" y="974"/>
      <point x="536" y="974" type="curve" smooth="yes"/>
      <point x="387" y="974"/>
      <point x="273" y="823"/>
      <point x="273" y="576" type="curve" smooth="yes"/>
      <point x="273" y="287"/>
      <point x="385" y="126"/>
      <point x="538" y="126" type="curve" smooth="yes"/>
      <point x="574" y="126"/>
      <point x="687" y="145"/>
      <point x="747" y="181" type="curve"/>
    </contour>
  </outline>
</glyph>
<glyph name="t" format="1">
  <advance width="771"/>
  <unicode hex="0074"/>
  <outline>
    <contour>
      <point x="333" y="1323" type="curve"/>
      <point x="398" y="1323" type="line"/>
      <point x="398" y="1056" type="line"/>
      <point x="741" y="1056" type="line"/>
      <point x="731" y="950" type="line"/>
      <point x="396" y="950" type="line"/>
      <point x="392" y="396" type="line"/>
      <point x="392" y="388" type="line" smooth="yes"/>
      <point x="392" y="205"/>
      <point x="446" y="149"/>
      <point x="570" y="149" type="curve" smooth="yes"/>
      <point x="660" y="149"/>
      <point x="745" y="217"/>
      <point x="745" y="217" type="curve"/>
      <point x="771" y="151" type="line"/>
      <point x="697" y="43"/>
      <point x="581" y="-28"/>
      <point x="442" y="-28" type="curve" smooth="yes"/>
      <point x="293" y="-28"/>
      <point x="183" y="44"/>
      <point x="183" y="315" type="curve" smooth="yes"/>
      <point x="183" y="353" type="line"/>
      <point x="187" y="952" type="line"/>
      <point x="32" y="952" type="line"/>
      <point x="32" y="1018" type="line"/>
      <point x="132" y="1096"/>
      <point x="247" y="1215"/>
    </contour>
    <contour>
      <point x="386" y="0" type="move" name="bottom"/>
    </contour>
    <contour>
      <point x="386" y="532" type="move" name="center"/>
    </contour>
  </outline>
</glyph>
<glyph name="v" format="1">
  <advance width="1126"/>
  <unicode hex="0076"/>
  <outline>
    <contour>
      <point x="486" y="-34" type="line"/>
      <point x="147" y="920" type="line"/>
      <point x="0" y="970" type="line"/>
      <point x="12" y="1062" type="line"/>
      <point x="556" y="1062" type="line"/>
      <point x="546" y="972" type="line"/>
      <point x="369" y="922" type="line"/>
      <point x="598" y="235" type="line"/>
      <point x="831" y="920" type="line"/>
      <point x="636" y="970" type="line"/>
      <point x="653" y="1062" type="line"/>
      <point x="1118" y="1062" type="line"/>
      <point x="1104" y="972" type="line"/>
      <point x="972" y="922" type="line"/>
      <point x="641" y="-12" type="line"/>
    </contour>
  </outline>
</glyph>
<glyph name="w" format="1">
  <advance width="1511"/>
  <unicode hex="0077"/>
  <outline>
    <contour>
      <point x="859" y="1008" type="line"/>
      <point x="1026" y="420" type="line"/>
      <point x="1052" y="285" type="line"/>
      <point x="1217" y="922" type="line"/>
      <point x="1034" y="972" type="line"/>
      <point x="1046" y="1064" type="line"/>
      <point x="1512" y="1064" type="line"/>
      <point x="1498" y="974" type="line"/>
      <point x="1367" y="924" type="line"/>
      <point x="1108" y="-12" type="line"/>
      <point x="964" y="-34" type="line"/>
      <point x="753" y="713" type="line"/>
      <point x="562" y="-12" type="line"/>
      <point x="418" y="-34" type="line"/>
      <point x="141" y="922" type="line"/>
      <point x="0" y="972" type="line"/>
      <point x="12" y="1064" type="line"/>
      <point x="518" y="1064" type="line"/>
      <point x="506" y="974" type="line"/>
      <point x="341" y="924" type="line"/>
      <point x="478" y="438" type="line"/>
      <point x="506" y="293" type="line"/>
      <point x="691" y="986" type="line"/>
    </contour>
    <contour>
      <point x="756" y="1064" type="move" name="top"/>
    </contour>
  </outline>
</glyph>
<glyph name="x" format="1">
  <advance width="1112"/>
  <unicode hex="0078"/>
  <outline>
    <contour>
      <point x="974" y="139" type="line"/>
      <point x="1112" y="90" type="line"/>
      <point x="1102" y="0" type="line"/>
      <point x="560" y="0" type="line"/>
      <point x="576" y="88" type="line"/>
      <point x="731" y="139" type="line"/>
      <point x="530" y="426" type="line"/>
      <point x="311" y="139" type="line"/>
      <point x="484" y="90" type="line"/>
      <point x="472" y="0" type="line"/>
      <point x="0" y="0" type="line"/>
      <point x="12" y="88" type="line"/>
      <point x="143" y="139" type="line"/>
      <point x="440" y="530" type="line"/>
      <point x="161" y="930" type="line"/>
      <point x="18" y="980" type="line"/>
      <point x="30" y="1072" type="line"/>
      <point x="558" y="1072" type="line"/>
      <point x="542" y="982" type="line"/>
      <point x="402" y="932" type="line"/>
      <point x="592" y="667" type="line"/>
      <point x="795" y="930" type="line"/>
      <point x="628" y="980" type="line"/>
      <point x="645" y="1072" type="line"/>
      <point x="1102" y="1072" type="line"/>
      <point x="1086" y="982" type="line"/>
      <point x="958" y="932" type="line"/>
      <point x="679" y="568" type="line"/>
    </contour>
  </outline>
</glyph>
<glyph name="y" format="1">
  <advance width="1148"/>
  <unicode hex="0079"/>
  <outline>
    <contour>
      <point x="155" y="922" type="line"/>
      <point x="4" y="968" type="line"/>
      <point x="18" y="1062" type="line"/>
      <point x="528" y="1062" type="line"/>
      <point x="518" y="972" type="line"/>
      <point x="363" y="926" type="line"/>
      <point x="611" y="270" type="line"/>
      <point x="873" y="920" type="line"/>
      <point x="715" y="970" type="line"/>
      <point x="731" y="1062" type="line"/>
      <point x="1148" y="1062" type="line"/>
      <point x="1138" y="972" type="line"/>
      <point x="1016" y="922" type="line"/>
      <point x="614" y="-64" type="line" smooth="yes"/>
      <point x="487" y="-376"/>
      <point x="390" y="-462"/>
      <point x="205" y="-462" type="curve" smooth="yes"/>
      <point x="93" y="-462"/>
      <point x="18" y="-387"/>
      <point x="18" y="-317" type="curve" smooth="yes"/>
      <point x="18" y="-269"/>
      <point x="30" y="-219"/>
      <point x="86" y="-171" type="curve"/>
      <point x="152" y="-217"/>
      <point x="205" y="-237"/>
      <point x="269" y="-237" type="curve" smooth="yes"/>
      <point x="329" y="-237"/>
      <point x="412" y="-223"/>
      <point x="478" y="-60" type="curve" smooth="yes"/>
      <point x="502" y="-0" type="line"/>
    </contour>
    <contour>
      <point x="624" y="1064" type="move" name="top"/>
    </contour>
  </outline>
</glyph>
<glyph name="z" format="1">
  <advance width="1096"/>
  <unicode hex="007A"/>
  <outline>
    <contour>
      <point x="143" y="1062" type="line"/>
      <point x="960" y="1062" type="line"/>
      <point x="960" y="972" type="line"/>
      <point x="349" y="120" type="line"/>
      <point x="787" y="120" type="line"/>
      <point x="902" y="335" type="line"/>
      <point x="984" y="325" type="line"/>
      <point x="934" y="0" type="line"/>
      <point x="118" y="0" type="line"/>
      <point x="112" y="106" type="line"/>
      <point x="709" y="948" type="line"/>
      <point x="299" y="948" type="line"/>
      <point x="227" y="723" type="line"/>
      <point x="133" y="739" type="line"/>
    </contour>
    <contour>
      <point x="548" y="1064" type="move" name="top"/>
    </contour>
  </outline>
</glyph>
<glyph name="braceleft" format="1">
  <advance width="811"/>
  <unicode hex="007B"/>
  <outline>
    <contour>
      <point x="660" y="-331" type="curve" smooth="yes"/>
      <point x="751" y="-337" type="line"/>
      <point x="761" y="-460" type="line"/>
      <point x="636" y="-460" type="line" smooth="yes"/>
      <point x="132" y="-460"/>
      <point x="532" y="408"/>
      <point x="183" y="464" type="curve" smooth="yes"/>
      <point x="120" y="474" type="line"/>
      <point x="120" y="594" type="line"/>
      <point x="179" y="604" type="line"/>
      <point x="534" y="666"/>
      <point x="134" y="1526"/>
      <point x="632" y="1526" type="curve" smooth="yes"/>
      <point x="755" y="1526" type="line"/>
      <point x="745" y="1405" type="line"/>
      <point x="646" y="1397" type="line" smooth="yes"/>
      <point x="563" y="1390"/>
      <point x="558" y="1269"/>
      <point x="558" y="1119" type="curve" smooth="yes"/>
      <point x="558" y="1048" type="line" smooth="yes"/>
      <point x="558" y="836"/>
      <point x="548" y="596"/>
      <point x="351" y="540" type="curve"/>
      <point x="351" y="532" type="line"/>
      <point x="714" y="428"/>
      <point x="436" y="-316"/>
    </contour>
  </outline>
</glyph>
<glyph name="bar" format="1">
  <advance width="692"/>
  <unicode hex="007C"/>
  <outline>
    <contour>
      <point x="424" y="-462" type="line"/>
      <point x="283" y="-446" type="line"/>
      <point x="283" y="1532" type="line"/>
      <point x="424" y="1518" type="line"/>
    </contour>
  </outline>
</glyph>
<glyph name="braceright" format="1">
  <advance width="811"/>
  <unicode hex="007D"/>
  <outline>
    <contour>
      <point x="151" y="-331" type="line" smooth="yes"/>
      <point x="375" y="-316"/>
      <point x="97" y="428"/>
      <point x="460" y="532" type="curve"/>
      <point x="460" y="540" type="line"/>
      <point x="263" y="596"/>
      <point x="253" y="836"/>
      <point x="253" y="1048" type="curve" smooth="yes"/>
      <point x="253" y="1119" type="line" smooth="yes"/>
      <point x="253" y="1269"/>
      <point x="248" y="1390"/>
      <point x="165" y="1397" type="curve" smooth="yes"/>
      <point x="66" y="1405" type="line"/>
      <point x="56" y="1526" type="line"/>
      <point x="179" y="1526" type="line" smooth="yes"/>
      <point x="677" y="1526"/>
      <point x="277" y="666"/>
      <point x="632" y="604" type="curve"/>
      <point x="691" y="594" type="line"/>
      <point x="691" y="474" type="line"/>
      <point x="628" y="464" type="line" smooth="yes"/>
      <point x="279" y="408"/>
      <point x="679" y="-460"/>
      <point x="175" y="-460" type="curve" smooth="yes"/>
      <point x="50" y="-460" type="line"/>
      <point x="60" y="-337" type="line"/>
    </contour>
  </outline>
</glyph>
<glyph name="asciitilde" format="1">
  <advance width="1156"/>
  <unicode hex="007E"/>
  <outline>
    <contour>
      <point x="100" y="502" type="line"/>
      <point x="100" y="502"/>
      <point x="156" y="744"/>
      <point x="315" y="744" type="curve" smooth="yes"/>
      <point x="320" y="744"/>
      <point x="326" y="744"/>
      <point x="331" y="743" type="curve" smooth="yes"/>
      <point x="873" y="689" type="line" smooth="yes"/>
      <point x="878" y="689" type="line" smooth="yes"/>
      <point x="923" y="689"/>
      <point x="978" y="763"/>
      <point x="978" y="763" type="curve"/>
      <point x="1056" y="761" type="line"/>
      <point x="1056" y="761"/>
      <point x="992" y="515"/>
      <point x="833" y="515" type="curve" smooth="yes"/>
      <point x="827" y="515"/>
      <point x="821" y="515"/>
      <point x="815" y="516" type="curve" smooth="yes"/>
      <point x="273" y="570" type="line" smooth="yes"/>
      <point x="268" y="570" type="line" smooth="yes"/>
      <point x="218" y="570"/>
      <point x="167" y="486"/>
      <point x="167" y="486" type="curve"/>
    </contour>
  </outline>
</glyph>
<glyph name="exclamdown" format="1">
  <advance width="590"/>
  <unicode hex="00A1"/>
  <outline>
    <contour>
      <point x="243" y="649" type="curve"/>
      <point x="243" y="657" type="line"/>
      <point x="351" y="632" type="line"/>
      <point x="351" y="628" type="line"/>
      <point x="381" y="236"/>
      <point x="416" y="-323"/>
      <point x="416" y="-456" type="curve" smooth="yes"/>
      <point x="416" y="-460" type="line"/>
      <point x="406" y="-494"/>
      <point x="299" y="-508"/>
      <point x="255" y="-508" type="curve" smooth="yes"/>
      <point x="223" y="-508"/>
      <point x="177" y="-498"/>
      <point x="177" y="-460" type="curve" smooth="yes"/>
      <point x="177" y="-255"/>
      <point x="211" y="257"/>
    </contour>
    <contour>
      <point x="145" y="954" type="curve" smooth="yes"/>
      <point x="145" y="1040"/>
      <point x="213" y="1108"/>
      <point x="297" y="1108" type="curve" smooth="yes"/>
      <point x="381" y="1108"/>
      <point x="448" y="1038"/>
      <point x="448" y="952" type="curve" smooth="yes"/>
      <point x="448" y="870"/>
      <point x="377" y="809"/>
      <point x="297" y="809" type="curve" smooth="yes"/>
      <point x="215" y="809"/>
      <point x="145" y="872"/>
    </contour>
  </outline>
</glyph>
<glyph name="cent" format="1">
  <advance width="975"/>
  <unicode hex="00A2"/>
  <outline>
    <contour>
      <point x="319" y="123" type="line"/>
      <point x="365" y="178" type="line"/>
      <point x="601" y="1006" type="line"/>
      <point x="588" y="1067" type="line"/>
      <point x="641" y="1252" type="line"/>
      <point x="802" y="1262" type="line"/>
      <point x="734" y="1027" type="line"/>
      <point x="686" y="963" type="line"/>
      <point x="447" y="131" type="line"/>
      <point x="456" y="57" type="line"/>
      <point x="388" y="-178" type="line"/>
      <point x="231" y="-188" type="line"/>
    </contour>
    <component base="c"/>
  </outline>
</glyph>
<glyph name="sterling" format="1">
  <advance width="1295"/>
  <unicode hex="00A3"/>
  <outline>
    <contour>
      <point x="1096" y="1472" type="curve"/>
      <point x="1058" y="1088" type="line"/>
      <point x="954" y="1104" type="line"/>
      <point x="904" y="1363" type="line"/>
      <point x="878" y="1377"/>
      <point x="845" y="1391"/>
      <point x="801" y="1391" type="curve" smooth="yes"/>
      <point x="598" y="1391"/>
      <point x="558" y="1261"/>
      <point x="550" y="855" type="curve"/>
      <point x="550" y="797" type="line"/>
      <point x="817" y="813" type="line"/>
      <point x="803" y="691" type="line"/>
      <point x="548" y="675" type="line"/>
      <point x="546" y="626" type="line"/>
      <point x="542" y="433"/>
      <point x="530" y="238"/>
      <point x="472" y="120" type="curve"/>
      <point x="1032" y="116" type="line"/>
      <point x="1191" y="424" type="line"/>
      <point x="1295" y="402" type="line"/>
      <point x="1249" y="0" type="line"/>
      <point x="46" y="0" type="line"/>
      <point x="56" y="90" type="line"/>
      <point x="259" y="147" type="line"/>
      <point x="297" y="269"/>
      <point x="303" y="379"/>
      <point x="307" y="560" type="curve" smooth="yes"/>
      <point x="309" y="667" type="line"/>
      <point x="92" y="655" type="line"/>
      <point x="106" y="777" type="line"/>
      <point x="313" y="789" type="line"/>
      <point x="317" y="956" type="line"/>
      <point x="329" y="1348"/>
      <point x="538" y="1520"/>
      <point x="813" y="1520" type="curve" smooth="yes"/>
      <point x="911" y="1520"/>
      <point x="1000" y="1512"/>
    </contour>
  </outline>
</glyph>
<glyph name="currency" format="1">
  <advance width="945"/>
  <unicode hex="00A4"/>
  <outline>
    <contour>
      <point x="472" y="815" type="curve" smooth="yes"/>
      <point x="360" y="815"/>
      <point x="285" y="729"/>
      <point x="285" y="600" type="curve" smooth="yes"/>
      <point x="285" y="469"/>
      <point x="362" y="381"/>
      <point x="474" y="381" type="curve" smooth="yes"/>
      <point x="590" y="381"/>
      <point x="669" y="466"/>
      <point x="669" y="592" type="curve" smooth="yes"/>
      <point x="669" y="727"/>
      <point x="590" y="815"/>
    </contour>
    <contour>
      <point x="211" y="404" type="line"/>
      <point x="179" y="454"/>
      <point x="157" y="530"/>
      <point x="157" y="594" type="curve" smooth="yes"/>
      <point x="157" y="650"/>
      <point x="175" y="719"/>
      <point x="203" y="763" type="curve"/>
      <point x="94" y="867" type="line"/>
      <point x="197" y="968" type="line"/>
      <point x="291" y="861" type="line"/>
      <point x="343" y="905"/>
      <point x="418" y="934"/>
      <point x="478" y="934" type="curve" smooth="yes"/>
      <point x="544" y="934"/>
      <point x="621" y="909"/>
      <point x="669" y="873" type="curve"/>
      <point x="763" y="970" type="line"/>
      <point x="855" y="863" type="line"/>
      <point x="753" y="773" type="line"/>
      <point x="779" y="727"/>
      <point x="797" y="654"/>
      <point x="797" y="596" type="curve" smooth="yes"/>
      <point x="797" y="534"/>
      <point x="777" y="462"/>
      <point x="745" y="416" type="curve"/>
      <point x="859" y="311" type="line"/>
      <point x="753" y="211" type="line"/>
      <point x="657" y="321" type="line"/>
      <point x="601" y="287"/>
      <point x="526" y="263"/>
      <point x="468" y="263" type="curve" smooth="yes"/>
      <point x="420" y="263"/>
      <point x="355" y="283"/>
      <point x="305" y="313" type="curve"/>
      <point x="211" y="205" type="line"/>
      <point x="108" y="309" type="line"/>
    </contour>
  </outline>
</glyph>
<glyph name="yen" format="1">
  <advance width="1471"/>
  <unicode hex="00A5"/>
  <outline>
    <contour>
      <point x="637" y="584" type="line"/>
      <point x="264" y="584" type="line"/>
      <point x="278" y="703" type="line"/>
      <point x="603" y="703" type="line"/>
      <point x="303" y="1369" type="line"/>
      <point x="137" y="1420" type="line"/>
      <point x="153" y="1512" type="line"/>
      <point x="712" y="1512" type="line"/>
      <point x="698" y="1420" type="line"/>
      <point x="537" y="1373" type="line"/>
      <point x="801" y="773" type="line"/>
      <point x="1066" y="1369" type="line"/>
      <point x="875" y="1420" type="line"/>
      <point x="887" y="1512" type="line"/>
      <point x="1369" y="1512" type="line"/>
      <point x="1357" y="1420" type="line"/>
      <point x="1207" y="1373" type="line"/>
      <point x="898" y="703" type="line"/>
      <point x="1263" y="703" type="line"/>
      <point x="1249" y="584" type="line"/>
      <point x="865" y="584" type="line"/>
      <point x="865" y="410" type="line"/>
      <point x="1259" y="410" type="line"/>
      <point x="1245" y="292" type="line"/>
      <point x="865" y="292" type="line"/>
      <point x="865" y="136" type="line"/>
      <point x="1064" y="95" type="line"/>
      <point x="1052" y="0" type="line"/>
      <point x="443" y="0" type="line"/>
      <point x="455" y="87" type="line"/>
      <point x="637" y="144" type="line"/>
      <point x="637" y="292" type="line"/>
      <point x="260" y="292" type="line"/>
      <point x="274" y="410" type="line"/>
      <point x="637" y="410" type="line"/>
    </contour>
  </outline>
</glyph>
<glyph name="brokenbar" format="1">
  <advance width="692"/>
  <unicode hex="00A6"/>
  <outline>
    <contour>
      <point x="278" y="-446" type="line"/>
      <point x="278" y="513" type="line"/>
      <point x="423" y="499" type="line"/>
      <point x="423" y="-462" type="line"/>
    </contour>
    <contour>
      <point x="278" y="657" type="line"/>
      <point x="278" y="1532" type="line"/>
      <point x="421" y="1518" type="line"/>
      <point x="419" y="643" type="line"/>
    </contour>
  </outline>
</glyph>
<glyph name="section" format="1">
  <advance width="893"/>
  <unicode hex="00A7"/>
  <outline>
    <contour>
      <point x="900" y="1412"/>
      <point x="873" y="1078"/>
      <point x="873" y="1078" type="curve"/>
      <point x="753" y="1092" type="line"/>
      <point x="721" y="1325" type="line"/>
      <point x="699" y="1369"/>
      <point x="614" y="1440"/>
      <point x="516" y="1440" type="curve" smooth="yes"/>
      <point x="394" y="1440"/>
      <point x="293" y="1370"/>
      <point x="293" y="1211" type="curve" smooth="yes"/>
      <point x="293" y="862"/>
      <point x="1004" y="888"/>
      <point x="1004" y="430" type="curve" smooth="yes"/>
      <point x="1004" y="406"/>
      <point x="1002" y="384"/>
      <point x="999" y="365" type="curve"/>
      <point x="505" y="641" type="line" smooth="yes"/>
      <point x="311" y="746"/>
      <point x="84" y="856"/>
      <point x="84" y="1114" type="curve" smooth="yes"/>
      <point x="84" y="1389"/>
      <point x="317" y="1544"/>
      <point x="556" y="1544" type="curve" smooth="yes"/>
      <point x="687" y="1544"/>
      <point x="804" y="1502"/>
      <point x="900" y="1422" type="curve"/>
    </contour>
    <contour>
      <point x="518" y="493" type="line"/>
      <point x="726" y="376"/>
      <point x="1001" y="279"/>
      <point x="1001" y="-6" type="curve" smooth="yes"/>
      <point x="1001" y="-285"/>
      <point x="738" y="-466"/>
      <point x="461" y="-466" type="curve" smooth="yes"/>
      <point x="286" y="-466"/>
      <point x="129" y="-383"/>
      <point x="51" y="-287" type="curve"/>
      <point x="67" y="38" type="line"/>
      <point x="192" y="20" type="line"/>
      <point x="238" y="-209" type="line"/>
      <point x="282" y="-279"/>
      <point x="375" y="-342"/>
      <point x="489" y="-342" type="curve" smooth="yes"/>
      <point x="618" y="-342"/>
      <point x="778" y="-268"/>
      <point x="778" y="-87" type="curve" smooth="yes"/>
      <point x="778" y="228"/>
      <point x="81" y="226"/>
      <point x="81" y="678" type="curve" smooth="yes"/>
      <point x="81" y="698"/>
      <point x="82" y="718"/>
      <point x="85" y="737" type="curve"/>
    </contour>
  </outline>
</glyph>
<glyph name="copyright" format="1">
  <advance width="1680"/>
  <unicode hex="00A9"/>
  <outline>
    <contour>
      <point x="423" y="1481"/>
      <point x="155" y="1169"/>
      <point x="155" y="799" type="curve" smooth="yes"/>
      <point x="155" y="401"/>
      <point x="411" y="113"/>
      <point x="771" y="113" type="curve" smooth="yes"/>
      <point x="1121" y="113"/>
      <point x="1407" y="395"/>
      <point x="1407" y="777" type="curve" smooth="yes"/>
      <point x="1407" y="961"/>
      <point x="1357" y="1127"/>
      <point x="1257" y="1263" type="curve" smooth="yes"/>
      <point x="1157" y="1397"/>
      <point x="983" y="1481"/>
      <point x="773" y="1481" type="curve" smooth="yes"/>
    </contour>
    <contour>
      <point x="1555" y="355"/>
      <point x="1207" y="-17"/>
      <point x="761" y="-17" type="curve" smooth="yes"/>
      <point x="315" y="-17"/>
      <point x="5" y="329"/>
      <point x="5" y="785" type="curve" smooth="yes"/>
      <point x="5" y="1249"/>
      <point x="363" y="1605"/>
      <point x="773" y="1605" type="curve" smooth="yes"/>
      <point x="1021" y="1605"/>
      <point x="1227" y="1511"/>
      <point x="1355" y="1361" type="curve" smooth="yes"/>
      <point x="1483" y="1209"/>
      <point x="1555" y="1011"/>
      <point x="1555" y="789" type="curve" smooth="yes"/>
    </contour>
    <contour>
      <point x="509" y="565"/>
      <point x="649" y="435"/>
      <point x="847" y="435" type="curve" smooth="yes"/>
      <point x="945" y="435"/>
      <point x="1031" y="463"/>
      <point x="1103" y="521" type="curve"/>
      <point x="1113" y="511"/>
      <point x="1125" y="493"/>
      <point x="1139" y="463" type="curve"/>
      <point x="1043" y="371"/>
      <point x="925" y="325"/>
      <point x="787" y="325" type="curve" smooth="yes"/>
      <point x="539" y="325"/>
      <point x="331" y="501"/>
      <point x="331" y="787" type="curve" smooth="yes"/>
      <point x="331" y="947"/>
      <point x="391" y="1105"/>
      <point x="545" y="1217" type="curve" smooth="yes"/>
      <point x="623" y="1271"/>
      <point x="715" y="1299"/>
      <point x="823" y="1299" type="curve" smooth="yes"/>
      <point x="937" y="1299"/>
      <point x="1025" y="1273"/>
      <point x="1091" y="1223" type="curve"/>
      <point x="1071" y="981" type="line"/>
      <point x="1007" y="989" type="line"/>
      <point x="979" y="1149" type="line"/>
      <point x="945" y="1191"/>
      <point x="877" y="1213"/>
      <point x="779" y="1213" type="curve" smooth="yes"/>
      <point x="617" y="1213"/>
      <point x="509" y="1075"/>
      <point x="509" y="837" type="curve" smooth="yes"/>
    </contour>
  </outline>
</glyph>
<glyph name="ordfeminine" format="1">
  <advance width="491"/>
  <unicode hex="00AA"/>
  <outline>
    <contour>
      <point x="42" y="420" type="line"/>
      <point x="454" y="420" type="line"/>
      <point x="446" y="349" type="line"/>
      <point x="34" y="349" type="line"/>
    </contour>
    <contour>
      <point x="281" y="701" type="line"/>
      <point x="161" y="683"/>
      <point x="143" y="650"/>
      <point x="143" y="604" type="curve" smooth="yes"/>
      <point x="143" y="564"/>
      <point x="163" y="546"/>
      <point x="197" y="546" type="curve" smooth="yes"/>
      <point x="237" y="546"/>
      <point x="269" y="578"/>
      <point x="281" y="598" type="curve"/>
    </contour>
    <contour>
      <point x="367" y="496" type="curve" smooth="yes"/>
      <point x="311" y="496"/>
      <point x="291" y="532"/>
      <point x="291" y="562" type="curve" smooth="yes"/>
      <point x="291" y="568" type="line"/>
      <point x="285" y="568" type="line"/>
      <point x="269" y="534"/>
      <point x="217" y="494"/>
      <point x="153" y="494" type="curve" smooth="yes"/>
      <point x="103" y="494"/>
      <point x="58" y="522"/>
      <point x="58" y="582" type="curve" smooth="yes"/>
      <point x="58" y="652"/>
      <point x="106" y="703"/>
      <point x="281" y="735" type="curve"/>
      <point x="281" y="767" type="line" smooth="yes"/>
      <point x="281" y="833"/>
      <point x="265" y="895"/>
      <point x="201" y="895" type="curve" smooth="yes"/>
      <point x="155" y="895"/>
      <point x="153" y="861"/>
      <point x="145" y="801" type="curve"/>
      <point x="119" y="801"/>
      <point x="78" y="803"/>
      <point x="78" y="851" type="curve" smooth="yes"/>
      <point x="78" y="903"/>
      <point x="173" y="944"/>
      <point x="241" y="944" type="curve" smooth="yes"/>
      <point x="327" y="944"/>
      <point x="361" y="895"/>
      <point x="361" y="793" type="curve" smooth="yes"/>
      <point x="361" y="616" type="line" smooth="yes"/>
      <point x="361" y="572"/>
      <point x="370" y="558"/>
      <point x="416" y="552" type="curve"/>
      <point x="440" y="548" type="line"/>
      <point x="434" y="506" type="line"/>
      <point x="410" y="502"/>
      <point x="395" y="496"/>
    </contour>
  </outline>
</glyph>
<glyph name="guillemotleft" format="1">
  <advance width="877"/>
  <unicode hex="00AB"/>
  <outline>
    <contour>
      <point x="96" y="570" type="line"/>
      <point x="422" y="998" type="line"/>
      <point x="476" y="926" type="line"/>
      <point x="275" y="560" type="line"/>
      <point x="480" y="171" type="line"/>
      <point x="416" y="94" type="line"/>
      <point x="98" y="546" type="line"/>
    </contour>
    <contour>
      <point x="397" y="570" type="line"/>
      <point x="723" y="998" type="line"/>
      <point x="777" y="926" type="line"/>
      <point x="576" y="560" type="line"/>
      <point x="781" y="171" type="line"/>
      <point x="717" y="94" type="line"/>
      <point x="399" y="546" type="line"/>
    </contour>
  </outline>
</glyph>
<glyph name="logicalnot" format="1">
  <advance width="1162"/>
  <unicode hex="00AC"/>
  <outline>
    <contour>
      <point x="114" y="807" type="line"/>
      <point x="1020" y="807" type="line"/>
      <point x="1022" y="426" type="line"/>
      <point x="893" y="404" type="line"/>
      <point x="893" y="679" type="line"/>
      <point x="100" y="679" type="line"/>
    </contour>
  </outline>
</glyph>
<glyph name="softhyphen" format="1">
  <advance width="692"/>
  <unicode hex="00AD"/>
  <outline>
    <contour>
      <point x="106" y="634" type="line"/>
      <point x="602" y="707" type="line"/>
      <point x="592" y="566" type="line"/>
      <point x="96" y="494" type="line"/>
    </contour>
  </outline>
</glyph>
<glyph name="registered" format="1">
  <advance width="570"/>
  <unicode hex="00AE"/>
  <outline>
    <contour>
      <point x="560" y="1301" type="curve" smooth="yes"/>
      <point x="560" y="1130"/>
      <point x="446" y="1018"/>
      <point x="275" y="1018" type="curve" smooth="yes"/>
      <point x="116" y="1018"/>
      <point x="10" y="1130"/>
      <point x="10" y="1299" type="curve" smooth="yes"/>
      <point x="10" y="1474"/>
      <point x="118" y="1590"/>
      <point x="281" y="1590" type="curve" smooth="yes"/>
      <point x="448" y="1590"/>
      <point x="560" y="1474"/>
    </contour>
    <contour>
      <point x="281" y="1552" type="curve" smooth="yes"/>
      <point x="146" y="1552"/>
      <point x="58" y="1454"/>
      <point x="58" y="1307" type="curve" smooth="yes"/>
      <point x="58" y="1158"/>
      <point x="146" y="1058"/>
      <point x="279" y="1058" type="curve" smooth="yes"/>
      <point x="418" y="1058"/>
      <point x="514" y="1152"/>
      <point x="514" y="1295" type="curve" smooth="yes"/>
      <point x="514" y="1450"/>
      <point x="418" y="1552"/>
    </contour>
    <contour>
      <point x="285" y="1319" type="line" smooth="yes"/>
      <point x="313" y="1319"/>
      <point x="327" y="1347"/>
      <point x="327" y="1383" type="curve" smooth="yes"/>
      <point x="327" y="1421"/>
      <point x="299" y="1442"/>
      <point x="261" y="1442" type="curve" smooth="yes"/>
      <point x="253" y="1442"/>
      <point x="243" y="1440"/>
      <point x="243" y="1440" type="curve"/>
      <point x="243" y="1319" type="line"/>
    </contour>
    <contour>
      <point x="388" y="1393" type="curve" smooth="yes"/>
      <point x="388" y="1363"/>
      <point x="367" y="1333"/>
      <point x="321" y="1313" type="curve"/>
      <point x="369" y="1247" type="line"/>
      <point x="391" y="1215"/>
      <point x="410" y="1195"/>
      <point x="440" y="1183" type="curve"/>
      <point x="448" y="1181" type="line"/>
      <point x="442" y="1159" type="line"/>
      <point x="430" y="1155"/>
      <point x="422" y="1155"/>
      <point x="412" y="1155" type="curve" smooth="yes"/>
      <point x="374" y="1155"/>
      <point x="343" y="1183"/>
      <point x="321" y="1221" type="curve" smooth="yes"/>
      <point x="281" y="1289" type="line"/>
      <point x="243" y="1289" type="line"/>
      <point x="243" y="1193" type="line"/>
      <point x="285" y="1181" type="line"/>
      <point x="283" y="1159" type="line"/>
      <point x="143" y="1159" type="line"/>
      <point x="145" y="1181" type="line"/>
      <point x="189" y="1191" type="line"/>
      <point x="189" y="1432" type="line"/>
      <point x="145" y="1440" type="line"/>
      <point x="147" y="1462" type="line"/>
      <point x="187" y="1466"/>
      <point x="227" y="1470"/>
      <point x="255" y="1470" type="curve" smooth="yes"/>
      <point x="349" y="1470"/>
      <point x="388" y="1443"/>
    </contour>
  </outline>
</glyph>
<glyph name="macron" format="1">
  <advance width="853"/>
  <unicode hex="00AF"/>
  <outline>
    <contour>
      <point x="167" y="1799" type="line"/>
      <point x="703" y="1799" type="line"/>
      <point x="687" y="1677" type="line"/>
      <point x="151" y="1677" type="line"/>
    </contour>
    <contour>
      <point x="427" y="1512" type="move" name="_top"/>
    </contour>
  </outline>
</glyph>
<glyph name="degree" format="1">
  <advance width="491"/>
  <unicode hex="00B0"/>
  <outline>
    <contour>
      <point x="235" y="1504" type="curve" smooth="yes"/>
      <point x="163" y="1504"/>
      <point x="131" y="1435"/>
      <point x="131" y="1367" type="curve" smooth="yes"/>
      <point x="131" y="1293"/>
      <point x="169" y="1211"/>
      <point x="247" y="1211" type="curve" smooth="yes"/>
      <point x="313" y="1211"/>
      <point x="351" y="1261"/>
      <point x="351" y="1349" type="curve" smooth="yes"/>
      <point x="351" y="1425"/>
      <point x="311" y="1504"/>
    </contour>
    <contour>
      <point x="249" y="1562" type="curve" smooth="yes"/>
      <point x="365" y="1562"/>
      <point x="438" y="1479"/>
      <point x="438" y="1365" type="curve" smooth="yes"/>
      <point x="438" y="1255"/>
      <point x="357" y="1153"/>
      <point x="233" y="1153" type="curve" smooth="yes"/>
      <point x="121" y="1153"/>
      <point x="44" y="1229"/>
      <point x="44" y="1353" type="curve" smooth="yes"/>
      <point x="44" y="1465"/>
      <point x="135" y="1562"/>
    </contour>
  </outline>
</glyph>
<glyph name="plusminus" format="1">
  <advance width="963"/>
  <unicode hex="00B1"/>
  <outline>
    <contour>
      <point x="120" y="142" type="line"/>
      <point x="863" y="150" type="line"/>
      <point x="843" y="24" type="line"/>
      <point x="100" y="16" type="line"/>
    </contour>
    <contour>
      <point x="532" y="578" type="line"/>
      <point x="534" y="291" type="line"/>
      <point x="399" y="305" type="line"/>
      <point x="399" y="578" type="line"/>
      <point x="130" y="578" type="line"/>
      <point x="144" y="700" type="line"/>
      <point x="399" y="700" type="line"/>
      <point x="399" y="982" type="line"/>
      <point x="530" y="967" type="line"/>
      <point x="532" y="700" type="line"/>
      <point x="799" y="700" type="line"/>
      <point x="785" y="578" type="line"/>
    </contour>
  </outline>
</glyph>
<glyph name="twosuperior" format="1">
  <advance width="315"/>
  <unicode hex="00B2"/>
  <outline>
    <contour>
      <point x="96" y="1454" type="curve"/>
      <point x="60" y="1458"/>
      <point x="44" y="1468"/>
      <point x="44" y="1498" type="curve" smooth="yes"/>
      <point x="44" y="1540"/>
      <point x="113" y="1582"/>
      <point x="159" y="1582" type="curve" smooth="yes"/>
      <point x="211" y="1582"/>
      <point x="253" y="1542"/>
      <point x="253" y="1486" type="curve" smooth="yes"/>
      <point x="253" y="1418"/>
      <point x="219" y="1387"/>
      <point x="147" y="1323" type="curve"/>
      <point x="98" y="1281" type="line"/>
      <point x="259" y="1281" type="line"/>
      <point x="251" y="1229" type="line"/>
      <point x="36" y="1229" type="line"/>
      <point x="34" y="1267" type="line"/>
      <point x="139" y="1371" type="line"/>
      <point x="169" y="1399"/>
      <point x="187" y="1434"/>
      <point x="187" y="1470" type="curve" smooth="yes"/>
      <point x="187" y="1510"/>
      <point x="171" y="1542"/>
      <point x="135" y="1542" type="curve" smooth="yes"/>
      <point x="101" y="1542"/>
      <point x="96" y="1490"/>
    </contour>
  </outline>
</glyph>
<glyph name="threesuperior" format="1">
  <advance width="730"/>
  <unicode hex="00B3"/>
  <outline>
    <contour>
      <point x="201" y="1480" type="curve" smooth="yes"/>
      <point x="201" y="1512"/>
      <point x="181" y="1542"/>
      <point x="147" y="1542" type="curve" smooth="yes"/>
      <point x="125" y="1542"/>
      <point x="100" y="1520"/>
      <point x="100" y="1458" type="curve"/>
      <point x="68" y="1460"/>
      <point x="50" y="1470"/>
      <point x="50" y="1494" type="curve" smooth="yes"/>
      <point x="50" y="1550"/>
      <point x="129" y="1582"/>
      <point x="169" y="1582" type="curve" smooth="yes"/>
      <point x="223" y="1582"/>
      <point x="261" y="1540"/>
      <point x="261" y="1496" type="curve" smooth="yes"/>
      <point x="261" y="1448"/>
      <point x="231" y="1401"/>
      <point x="191" y="1379" type="curve"/>
      <point x="191" y="1373" type="line"/>
      <point x="249" y="1357"/>
      <point x="281" y="1311"/>
      <point x="281" y="1265" type="curve" smooth="yes"/>
      <point x="281" y="1203"/>
      <point x="231" y="1140"/>
      <point x="157" y="1140" type="curve" smooth="yes"/>
      <point x="69" y="1140"/>
      <point x="46" y="1181"/>
      <point x="46" y="1209" type="curve" smooth="yes"/>
      <point x="46" y="1237"/>
      <point x="80" y="1249"/>
      <point x="94" y="1251" type="curve"/>
      <point x="100" y="1213"/>
      <point x="107" y="1177"/>
      <point x="151" y="1177" type="curve" smooth="yes"/>
      <point x="195" y="1177"/>
      <point x="217" y="1213"/>
      <point x="217" y="1255" type="curve" smooth="yes"/>
      <point x="217" y="1297"/>
      <point x="185" y="1343"/>
      <point x="139" y="1343" type="curve" smooth="yes"/>
      <point x="127" y="1343"/>
      <point x="108" y="1341"/>
      <point x="94" y="1341" type="curve"/>
      <point x="92" y="1351"/>
      <point x="88" y="1361"/>
      <point x="88" y="1373" type="curve" smooth="yes"/>
      <point x="88" y="1375" type="line"/>
      <point x="100" y="1379"/>
      <point x="201" y="1396"/>
    </contour>
  </outline>
</glyph>
<glyph name="acute" format="1">
  <advance width="752"/>
  <unicode hex="00B4"/>
  <outline>
    <contour>
      <point x="564" y="2026" type="line"/>
      <point x="341" y="1640" type="line"/>
      <point x="279" y="1679" type="line"/>
      <point x="428" y="2074" type="line"/>
    </contour>
    <contour>
      <point x="329" y="1512" type="move" name="_top"/>
    </contour>
  </outline>
</glyph>
<glyph name="paragraph" format="1">
  <advance width="1684"/>
  <unicode hex="00B6"/>
  <outline>
    <contour>
      <point x="1056" y="1379" type="line"/>
      <point x="1028" y="1373" type="line"/>
      <point x="1028" y="139" type="line"/>
      <point x="1054" y="135" type="line"/>
      <point x="1100" y="147" type="line"/>
      <point x="1100" y="1369" type="line"/>
    </contour>
    <contour>
      <point x="1504" y="1512" type="line"/>
      <point x="1492" y="1420" type="line"/>
      <point x="1285" y="1373" type="line"/>
      <point x="1285" y="139" type="line"/>
      <point x="1506" y="98" type="line"/>
      <point x="1494" y="0" type="line"/>
      <point x="612" y="0" type="line"/>
      <point x="622" y="90" type="line"/>
      <point x="825" y="147" type="line"/>
      <point x="825" y="590" type="line"/>
      <point x="773" y="586"/>
      <point x="719" y="584"/>
      <point x="667" y="584" type="curve" smooth="yes"/>
      <point x="350" y="584"/>
      <point x="58" y="671"/>
      <point x="58" y="1026" type="curve" smooth="yes"/>
      <point x="58" y="1315"/>
      <point x="303" y="1514"/>
      <point x="598" y="1514" type="curve" smooth="yes"/>
    </contour>
    <contour>
      <point x="825" y="1401" type="line"/>
      <point x="775" y="1403"/>
      <point x="709" y="1403"/>
      <point x="697" y="1403" type="curve" smooth="yes"/>
      <point x="436" y="1403"/>
      <point x="309" y="1287"/>
      <point x="309" y="1070" type="curve" smooth="yes"/>
      <point x="309" y="863"/>
      <point x="424" y="703"/>
      <point x="689" y="703" type="curve" smooth="yes"/>
      <point x="739" y="703"/>
      <point x="817" y="711"/>
      <point x="817" y="711" type="curve"/>
      <point x="825" y="705" type="line"/>
    </contour>
  </outline>
</glyph>
<glyph name="periodcentered" format="1">
  <advance width="491"/>
  <unicode hex="00B7"/>
  <outline>
    <contour>
      <point x="245" y="751" type="curve" smooth="yes"/>
      <point x="325" y="751"/>
      <point x="392" y="690"/>
      <point x="392" y="612" type="curve" smooth="yes"/>
      <point x="392" y="530"/>
      <point x="325" y="464"/>
      <point x="245" y="464" type="curve" smooth="yes"/>
      <point x="165" y="464"/>
      <point x="100" y="532"/>
      <point x="100" y="614" type="curve" smooth="yes"/>
      <point x="100" y="692"/>
      <point x="167" y="751"/>
    </contour>
  </outline>
</glyph>
<glyph name="cedilla" format="1">
  <advance width="467"/>
  <unicode hex="00B8"/>
  <outline>
    <contour>
      <point x="259" y="-92" type="line"/>
      <point x="305" y="-132"/>
      <point x="367" y="-193"/>
      <point x="367" y="-275" type="curve" smooth="yes"/>
      <point x="367" y="-371"/>
      <point x="265" y="-432"/>
      <point x="124" y="-474" type="curve"/>
      <point x="100" y="-402" type="line"/>
      <point x="170" y="-378"/>
      <point x="205" y="-337"/>
      <point x="205" y="-301" type="curve" smooth="yes"/>
      <point x="205" y="-259"/>
      <point x="160" y="-209"/>
      <point x="116" y="-167" type="curve"/>
      <point x="235" y="4" type="line"/>
      <point x="325" y="4" type="line"/>
    </contour>
    <contour>
      <point x="233.5" y="0" type="move" name="_bottom"/>
    </contour>
  </outline>
</glyph>
<glyph name="onesuperior" format="1">
  <advance width="269"/>
  <unicode hex="00B9"/>
  <outline>
    <contour>
      <point x="163" y="1568" type="line"/>
      <point x="163" y="1269" type="line"/>
      <point x="229" y="1257" type="line"/>
      <point x="225" y="1227" type="line"/>
      <point x="38" y="1227" type="line"/>
      <point x="42" y="1255" type="line"/>
      <point x="102" y="1271" type="line"/>
      <point x="102" y="1512" type="line"/>
      <point x="46" y="1512" type="line"/>
      <point x="48" y="1540" type="line"/>
      <point x="153" y="1568" type="line"/>
    </contour>
  </outline>
</glyph>
<glyph name="ordmasculine" format="1">
  <advance width="491"/>
  <unicode hex="00BA"/>
  <outline>
    <contour>
      <point x="42" y="420" type="line"/>
      <point x="454" y="420" type="line"/>
      <point x="446" y="349" type="line"/>
      <point x="34" y="349" type="line"/>
    </contour>
    <contour>
      <point x="135" y="731" type="curve" smooth="yes"/>
      <point x="135" y="613"/>
      <point x="183" y="536"/>
      <point x="247" y="536" type="curve" smooth="yes"/>
      <point x="309" y="536"/>
      <point x="341" y="595"/>
      <point x="341" y="699" type="curve" smooth="yes"/>
      <point x="341" y="809"/>
      <point x="299" y="889"/>
      <point x="229" y="889" type="curve" smooth="yes"/>
      <point x="169" y="889"/>
      <point x="135" y="837"/>
    </contour>
    <contour>
      <point x="430" y="715" type="curve" smooth="yes"/>
      <point x="430" y="580"/>
      <point x="347" y="488"/>
      <point x="235" y="488" type="curve" smooth="yes"/>
      <point x="106" y="488"/>
      <point x="46" y="583"/>
      <point x="46" y="709" type="curve" smooth="yes"/>
      <point x="46" y="860"/>
      <point x="141" y="940"/>
      <point x="247" y="940" type="curve" smooth="yes"/>
      <point x="367" y="940"/>
      <point x="430" y="850"/>
    </contour>
  </outline>
</glyph>
<glyph name="guillemotright" format="1">
  <advance width="877"/>
  <unicode hex="00BB"/>
  <outline>
    <contour>
      <point x="480" y="570" type="line"/>
      <point x="478" y="546" type="line"/>
      <point x="160" y="94" type="line"/>
      <point x="96" y="171" type="line"/>
      <point x="301" y="560" type="line"/>
      <point x="100" y="926" type="line"/>
      <point x="154" y="998" type="line"/>
    </contour>
    <contour>
      <point x="781" y="570" type="line"/>
      <point x="779" y="546" type="line"/>
      <point x="461" y="94" type="line"/>
      <point x="397" y="171" type="line"/>
      <point x="602" y="560" type="line"/>
      <point x="401" y="926" type="line"/>
      <point x="455" y="998" type="line"/>
    </contour>
  </outline>
</glyph>
<glyph name="onequarter" format="1">
  <advance width="1270"/>
  <unicode hex="00BC"/>
  <outline>
    <contour>
      <point x="946" y="-6" type="line"/>
      <point x="946" y="174" type="line"/>
      <point x="709" y="174" type="line"/>
      <point x="698" y="210" type="line"/>
      <point x="998" y="581" type="line"/>
      <point x="1030" y="572" type="line"/>
      <point x="1027" y="514"/>
      <point x="1026" y="420"/>
      <point x="1026" y="332" type="curve" smooth="yes"/>
      <point x="1026" y="233" type="line"/>
      <point x="1150" y="233" type="line"/>
      <point x="1142" y="172" type="line"/>
      <point x="1026" y="172" type="line"/>
      <point x="1026" y="7" type="line"/>
    </contour>
    <contour>
      <point x="944" y="233" type="line"/>
      <point x="944" y="442" type="line"/>
      <point x="780" y="233" type="line"/>
    </contour>
    <contour>
      <point x="328" y="1186" type="line"/>
      <point x="328" y="666" type="line"/>
      <point x="461" y="650" type="line"/>
      <point x="456" y="610" type="line"/>
      <point x="103" y="610" type="line"/>
      <point x="106" y="646" type="line"/>
      <point x="244" y="669" type="line"/>
      <point x="244" y="1111" type="line"/>
      <point x="113" y="1111" type="line"/>
      <point x="116" y="1149" type="line"/>
      <point x="315" y="1186" type="line"/>
    </contour>
    <contour>
      <point x="1026" y="1167" type="line"/>
      <point x="1124" y="1177" type="line"/>
      <point x="289" y="-26" type="line"/>
      <point x="187" y="-36" type="line"/>
    </contour>
  </outline>
</glyph>
<glyph name="onehalf" format="1">
  <advance width="1273"/>
  <unicode hex="00BD"/>
  <outline>
    <contour>
      <point x="1145" y="0" type="line"/>
      <point x="766" y="0" type="line"/>
      <point x="763" y="50" type="line"/>
      <point x="881" y="149" type="line"/>
      <point x="960" y="217"/>
      <point x="1049" y="301"/>
      <point x="1049" y="399" type="curve" smooth="yes"/>
      <point x="1049" y="466"/>
      <point x="1029" y="522"/>
      <point x="950" y="522" type="curve" smooth="yes"/>
      <point x="882" y="522"/>
      <point x="843" y="453"/>
      <point x="821" y="398" type="curve"/>
      <point x="781" y="413" type="line"/>
      <point x="800" y="495"/>
      <point x="878" y="588"/>
      <point x="979" y="588" type="curve" smooth="yes"/>
      <point x="1085" y="588"/>
      <point x="1138" y="527"/>
      <point x="1138" y="421" type="curve" smooth="yes"/>
      <point x="1138" y="283"/>
      <point x="984" y="181"/>
      <point x="904" y="104" type="curve"/>
      <point x="858" y="68" type="line"/>
      <point x="1092" y="68" type="line"/>
      <point x="1138" y="152" type="line"/>
      <point x="1172" y="147" type="line"/>
    </contour>
    <contour>
      <point x="352" y="1186" type="line"/>
      <point x="352" y="666" type="line"/>
      <point x="485" y="650" type="line"/>
      <point x="480" y="610" type="line"/>
      <point x="127" y="610" type="line"/>
      <point x="130" y="646" type="line"/>
      <point x="268" y="669" type="line"/>
      <point x="268" y="1111" type="line"/>
      <point x="137" y="1111" type="line"/>
      <point x="140" y="1149" type="line"/>
      <point x="339" y="1186" type="line"/>
    </contour>
    <contour>
      <point x="1026" y="1167" type="line"/>
      <point x="1124" y="1177" type="line"/>
      <point x="289" y="-26" type="line"/>
      <point x="187" y="-36" type="line"/>
    </contour>
  </outline>
</glyph>
<glyph name="threequarters" format="1">
  <advance width="1270"/>
  <unicode hex="00BE"/>
  <outline>
    <contour>
      <point x="169" y="710" type="curve"/>
      <point x="172" y="689"/>
      <point x="215" y="635"/>
      <point x="261" y="635" type="curve" smooth="yes"/>
      <point x="358" y="635"/>
      <point x="377" y="699"/>
      <point x="377" y="751" type="curve" smooth="yes"/>
      <point x="377" y="807"/>
      <point x="320" y="876"/>
      <point x="229" y="876" type="curve" smooth="yes"/>
      <point x="221" y="876" type="line"/>
      <point x="216" y="908" type="line"/>
      <point x="235" y="914"/>
      <point x="354" y="960"/>
      <point x="354" y="1048" type="curve" smooth="yes"/>
      <point x="354" y="1090"/>
      <point x="333" y="1132"/>
      <point x="270" y="1132" type="curve" smooth="yes"/>
      <point x="218" y="1132"/>
      <point x="191" y="1102"/>
      <point x="173" y="1058" type="curve"/>
      <point x="137" y="1071" type="line"/>
      <point x="147" y="1123"/>
      <point x="213" y="1196"/>
      <point x="300" y="1196" type="curve" smooth="yes"/>
      <point x="374" y="1196"/>
      <point x="441" y="1145"/>
      <point x="441" y="1074" type="curve" smooth="yes"/>
      <point x="441" y="995"/>
      <point x="385" y="948"/>
      <point x="326" y="926" type="curve"/>
      <point x="326" y="921" type="line"/>
      <point x="413" y="909"/>
      <point x="463" y="843"/>
      <point x="463" y="780" type="curve" smooth="yes"/>
      <point x="463" y="674"/>
      <point x="363" y="592"/>
      <point x="235" y="592" type="curve" smooth="yes"/>
      <point x="151" y="592"/>
      <point x="108" y="628"/>
      <point x="108" y="660" type="curve" smooth="yes"/>
      <point x="108" y="684"/>
      <point x="129" y="706"/>
    </contour>
    <contour>
      <point x="946" y="-6" type="line"/>
      <point x="946" y="174" type="line"/>
      <point x="709" y="174" type="line"/>
      <point x="698" y="210" type="line"/>
      <point x="998" y="581" type="line"/>
      <point x="1030" y="572" type="line"/>
      <point x="1027" y="514"/>
      <point x="1026" y="420"/>
      <point x="1026" y="332" type="curve" smooth="yes"/>
      <point x="1026" y="233" type="line"/>
      <point x="1150" y="233" type="line"/>
      <point x="1142" y="172" type="line"/>
      <point x="1026" y="172" type="line"/>
      <point x="1026" y="7" type="line"/>
    </contour>
    <contour>
      <point x="944" y="233" type="line"/>
      <point x="944" y="442" type="line"/>
      <point x="780" y="233" type="line"/>
    </contour>
    <contour>
      <point x="1026" y="1167" type="line"/>
      <point x="1124" y="1177" type="line"/>
      <point x="289" y="-26" type="line"/>
      <point x="187" y="-36" type="line"/>
    </contour>
  </outline>
</glyph>
<glyph name="questiondown" format="1">
  <advance width="730"/>
  <unicode hex="00BF"/>
  <outline>
    <contour>
      <point x="697" y="-307" type="curve" smooth="yes"/>
      <point x="697" y="-371"/>
      <point x="649" y="-472"/>
      <point x="458" y="-472" type="curve" smooth="yes"/>
      <point x="269" y="-472"/>
      <point x="40" y="-261"/>
      <point x="40" y="48" type="curve" smooth="yes"/>
      <point x="40" y="337"/>
      <point x="390" y="295"/>
      <point x="390" y="476" type="curve" smooth="yes"/>
      <point x="390" y="524"/>
      <point x="382" y="568"/>
      <point x="364" y="628" type="curve"/>
      <point x="454" y="648" type="line"/>
      <point x="486" y="600"/>
      <point x="548" y="481"/>
      <point x="548" y="383" type="curve" smooth="yes"/>
      <point x="548" y="110"/>
      <point x="175" y="201"/>
      <point x="175" y="-48" type="curve" smooth="yes"/>
      <point x="175" y="-160"/>
      <point x="302" y="-259"/>
      <point x="374" y="-259" type="curve" smooth="yes"/>
      <point x="466" y="-259"/>
      <point x="555" y="-229"/>
      <point x="607" y="-173" type="curve"/>
      <point x="647" y="-189"/>
      <point x="697" y="-241"/>
    </contour>
    <contour>
      <point x="259" y="984" type="curve" smooth="yes"/>
      <point x="259" y="1070"/>
      <point x="328" y="1138"/>
      <point x="412" y="1138" type="curve" smooth="yes"/>
      <point x="496" y="1138"/>
      <point x="562" y="1068"/>
      <point x="562" y="982" type="curve" smooth="yes"/>
      <point x="562" y="900"/>
      <point x="492" y="839"/>
      <point x="412" y="839" type="curve" smooth="yes"/>
      <point x="330" y="839"/>
      <point x="259" y="902"/>
    </contour>
  </outline>
</glyph>
<glyph name="Agrave" format="1">
  <advance width="1554"/>
  <unicode hex="00C0"/>
  <outline>
    <contour>
      <point x="579" y="2024" type="line"/>
      <point x="719" y="2070" type="line"/>
      <point x="880" y="1664" type="line"/>
      <point x="810" y="1622" type="line"/>
    </contour>
    <contour>
      <point x="912" y="1542" type="line"/>
      <point x="1385" y="151" type="line"/>
      <point x="1552" y="98" type="line"/>
      <point x="1542" y="0" type="line"/>
      <point x="916" y="0" type="line"/>
      <point x="930" y="90" type="line"/>
      <point x="1138" y="157" type="line"/>
      <point x="1006" y="526" type="line"/>
      <point x="496" y="526" type="line"/>
      <point x="359" y="151" type="line"/>
      <point x="586" y="98" type="line"/>
      <point x="572" y="0" type="line"/>
      <point x="2" y="0" type="line"/>
      <point x="14" y="90" type="line"/>
      <point x="195" y="157" type="line"/>
      <point x="727" y="1504" type="line"/>
    </contour>
    <contour>
      <point x="542" y="649" type="line"/>
      <point x="970" y="649" type="line"/>
      <point x="767" y="1257" type="line"/>
    </contour>
  </outline>
</glyph>
<glyph name="Aacute" format="1">
  <advance width="1554"/>
  <unicode hex="00C1"/>
  <outline>
    <contour>
      <point x="1054" y="2032" type="line"/>
      <point x="831" y="1646" type="line"/>
      <point x="769" y="1685" type="line"/>
      <point x="918" y="2080" type="line"/>
    </contour>
    <contour>
      <point x="912" y="1542" type="line"/>
      <point x="1385" y="151" type="line"/>
      <point x="1552" y="98" type="line"/>
      <point x="1542" y="0" type="line"/>
      <point x="916" y="0" type="line"/>
      <point x="930" y="90" type="line"/>
      <point x="1138" y="157" type="line"/>
      <point x="1006" y="526" type="line"/>
      <point x="496" y="526" type="line"/>
      <point x="359" y="151" type="line"/>
      <point x="586" y="98" type="line"/>
      <point x="572" y="0" type="line"/>
      <point x="2" y="0" type="line"/>
      <point x="14" y="90" type="line"/>
      <point x="195" y="157" type="line"/>
      <point x="727" y="1504" type="line"/>
    </contour>
    <contour>
      <point x="542" y="649" type="line"/>
      <point x="970" y="649" type="line"/>
      <point x="767" y="1257" type="line"/>
    </contour>
  </outline>
</glyph>
<glyph name="Acircumflex" format="1">
  <advance width="1554"/>
  <unicode hex="00C2"/>
  <outline>
    <contour>
      <point x="858" y="1928" type="line"/>
      <point x="1074" y="1703" type="line"/>
      <point x="1014" y="1658" type="line"/>
      <point x="815" y="1791" type="line"/>
      <point x="803" y="1791" type="line"/>
      <point x="633" y="1656" type="line"/>
      <point x="587" y="1693" type="line"/>
      <point x="791" y="1911" type="line"/>
    </contour>
    <contour>
      <point x="912" y="1542" type="line"/>
      <point x="1385" y="151" type="line"/>
      <point x="1552" y="98" type="line"/>
      <point x="1542" y="0" type="line"/>
      <point x="916" y="0" type="line"/>
      <point x="930" y="90" type="line"/>
      <point x="1138" y="157" type="line"/>
      <point x="1006" y="526" type="line"/>
      <point x="496" y="526" type="line"/>
      <point x="359" y="151" type="line"/>
      <point x="586" y="98" type="line"/>
      <point x="572" y="0" type="line"/>
      <point x="2" y="0" type="line"/>
      <point x="14" y="90" type="line"/>
      <point x="195" y="157" type="line"/>
      <point x="727" y="1504" type="line"/>
    </contour>
    <contour>
      <point x="542" y="649" type="line"/>
      <point x="970" y="649" type="line"/>
      <point x="767" y="1257" type="line"/>
    </contour>
  </outline>
</glyph>
<glyph name="Atilde" format="1">
  <advance width="1554"/>
  <unicode hex="00C3"/>
  <outline>
    <contour>
      <point x="543" y="1683" type="line"/>
      <point x="543" y="1683"/>
      <point x="583" y="1856"/>
      <point x="691" y="1856" type="curve" smooth="yes"/>
      <point x="696" y="1856"/>
      <point x="702" y="1856"/>
      <point x="707" y="1855" type="curve" smooth="yes"/>
      <point x="978" y="1819" type="line" smooth="yes"/>
      <point x="983" y="1819" type="line" smooth="yes"/>
      <point x="1014" y="1819"/>
      <point x="1051" y="1869"/>
      <point x="1051" y="1869" type="curve"/>
      <point x="1109" y="1867" type="line"/>
      <point x="1109" y="1867"/>
      <point x="1064" y="1692"/>
      <point x="951" y="1692" type="curve" smooth="yes"/>
      <point x="946" y="1692"/>
      <point x="941" y="1692"/>
      <point x="936" y="1693" type="curve" smooth="yes"/>
      <point x="665" y="1731" type="line" smooth="yes"/>
      <point x="662" y="1731" type="line" smooth="yes"/>
      <point x="627" y="1731"/>
      <point x="589" y="1673"/>
      <point x="589" y="1673" type="curve"/>
    </contour>
    <contour>
      <point x="912" y="1542" type="line"/>
      <point x="1385" y="151" type="line"/>
      <point x="1552" y="98" type="line"/>
      <point x="1542" y="0" type="line"/>
      <point x="916" y="0" type="line"/>
      <point x="930" y="90" type="line"/>
      <point x="1138" y="157" type="line"/>
      <point x="1006" y="526" type="line"/>
      <point x="496" y="526" type="line"/>
      <point x="359" y="151" type="line"/>
      <point x="586" y="98" type="line"/>
      <point x="572" y="0" type="line"/>
      <point x="2" y="0" type="line"/>
      <point x="14" y="90" type="line"/>
      <point x="195" y="157" type="line"/>
      <point x="727" y="1504" type="line"/>
    </contour>
    <contour>
      <point x="542" y="649" type="line"/>
      <point x="970" y="649" type="line"/>
      <point x="767" y="1257" type="line"/>
    </contour>
  </outline>
</glyph>
<glyph name="Adieresis" format="1">
  <advance width="1554"/>
  <unicode hex="00C4"/>
  <outline>
    <contour>
      <point x="988" y="1861" type="curve" smooth="yes"/>
      <point x="1042" y="1861"/>
      <point x="1095" y="1823"/>
      <point x="1095" y="1767" type="curve" smooth="yes"/>
      <point x="1095" y="1707"/>
      <point x="1042" y="1669"/>
      <point x="988" y="1669" type="curve" smooth="yes"/>
      <point x="936" y="1669"/>
      <point x="886" y="1707"/>
      <point x="886" y="1767" type="curve" smooth="yes"/>
      <point x="886" y="1825"/>
      <point x="938" y="1861"/>
    </contour>
    <contour>
      <point x="663" y="1861" type="curve" smooth="yes"/>
      <point x="717" y="1861"/>
      <point x="767" y="1823"/>
      <point x="767" y="1767" type="curve" smooth="yes"/>
      <point x="767" y="1707"/>
      <point x="717" y="1669"/>
      <point x="663" y="1669" type="curve" smooth="yes"/>
      <point x="611" y="1669"/>
      <point x="561" y="1707"/>
      <point x="561" y="1767" type="curve" smooth="yes"/>
      <point x="561" y="1825"/>
      <point x="613" y="1861"/>
    </contour>
    <contour>
      <point x="912" y="1542" type="line"/>
      <point x="1385" y="151" type="line"/>
      <point x="1552" y="98" type="line"/>
      <point x="1542" y="0" type="line"/>
      <point x="916" y="0" type="line"/>
      <point x="930" y="90" type="line"/>
      <point x="1138" y="157" type="line"/>
      <point x="1006" y="526" type="line"/>
      <point x="496" y="526" type="line"/>
      <point x="359" y="151" type="line"/>
      <point x="586" y="98" type="line"/>
      <point x="572" y="0" type="line"/>
      <point x="2" y="0" type="line"/>
      <point x="14" y="90" type="line"/>
      <point x="195" y="157" type="line"/>
      <point x="727" y="1504" type="line"/>
    </contour>
    <contour>
      <point x="542" y="649" type="line"/>
      <point x="970" y="649" type="line"/>
      <point x="767" y="1257" type="line"/>
    </contour>
  </outline>
</glyph>
<glyph name="Aring" format="1">
  <advance width="1554"/>
  <unicode hex="00C5"/>
  <outline>
    <contour>
      <point x="823" y="2014" type="curve" smooth="yes"/>
      <point x="751" y="2014"/>
      <point x="719" y="1945"/>
      <point x="719" y="1877" type="curve" smooth="yes"/>
      <point x="719" y="1803"/>
      <point x="757" y="1721"/>
      <point x="835" y="1721" type="curve" smooth="yes"/>
      <point x="901" y="1721"/>
      <point x="940" y="1771"/>
      <point x="940" y="1859" type="curve" smooth="yes"/>
      <point x="940" y="1935"/>
      <point x="899" y="2014"/>
    </contour>
    <contour>
      <point x="837" y="2072" type="curve" smooth="yes"/>
      <point x="953" y="2072"/>
      <point x="1026" y="1989"/>
      <point x="1026" y="1875" type="curve" smooth="yes"/>
      <point x="1026" y="1765"/>
      <point x="945" y="1662"/>
      <point x="821" y="1662" type="curve" smooth="yes"/>
      <point x="709" y="1662"/>
      <point x="633" y="1739"/>
      <point x="633" y="1863" type="curve" smooth="yes"/>
      <point x="633" y="1975"/>
      <point x="723" y="2072"/>
    </contour>
    <contour>
      <point x="912" y="1542" type="line"/>
      <point x="1385" y="151" type="line"/>
      <point x="1552" y="98" type="line"/>
      <point x="1542" y="0" type="line"/>
      <point x="916" y="0" type="line"/>
      <point x="930" y="90" type="line"/>
      <point x="1138" y="157" type="line"/>
      <point x="1006" y="526" type="line"/>
      <point x="496" y="526" type="line"/>
      <point x="359" y="151" type="line"/>
      <point x="586" y="98" type="line"/>
      <point x="572" y="0" type="line"/>
      <point x="2" y="0" type="line"/>
      <point x="14" y="90" type="line"/>
      <point x="195" y="157" type="line"/>
      <point x="727" y="1504" type="line"/>
    </contour>
    <contour>
      <point x="542" y="649" type="line"/>
      <point x="970" y="649" type="line"/>
      <point x="767" y="1257" type="line"/>
    </contour>
  </outline>
</glyph>
<glyph name="AE" format="1">
  <advance width="2058"/>
  <unicode hex="00C6"/>
  <outline>
    <contour>
      <point x="1054" y="1287" type="line"/>
      <point x="679" y="691" type="line"/>
      <point x="1052" y="691" type="line"/>
    </contour>
    <contour>
      <point x="1052" y="574" type="line"/>
      <point x="614" y="574" type="line"/>
      <point x="351" y="153" type="line"/>
      <point x="578" y="100" type="line"/>
      <point x="564" y="2" type="line"/>
      <point x="9" y="2" type="line"/>
      <point x="21" y="92" type="line"/>
      <point x="186" y="159" type="line"/>
      <point x="1053" y="1512" type="line"/>
      <point x="1998" y="1512" type="line"/>
      <point x="1960" y="1128" type="line"/>
      <point x="1855" y="1144" type="line"/>
      <point x="1805" y="1401" type="line"/>
      <point x="1273" y="1401" type="line"/>
      <point x="1273" y="827" type="line"/>
      <point x="1586" y="827" type="line"/>
      <point x="1638" y="976" type="line"/>
      <point x="1753" y="984" type="line"/>
      <point x="1713" y="516" type="line"/>
      <point x="1608" y="498" type="line"/>
      <point x="1568" y="713" type="line"/>
      <point x="1273" y="713" type="line"/>
      <point x="1273" y="116" type="line"/>
      <point x="1837" y="116" type="line"/>
      <point x="1958" y="400" type="line"/>
      <point x="2056" y="381" type="line"/>
      <point x="2020" y="0" type="line"/>
      <point x="1440" y="0" type="line"/>
      <point x="904" y="0" type="line"/>
      <point x="839" y="0" type="line"/>
      <point x="849" y="90" type="line"/>
      <point x="1048" y="147" type="line"/>
      <point x="1052" y="147" type="line"/>
    </contour>
    <contour>
      <point x="1029" y="1512" type="move" name="top"/>
    </contour>
  </outline>
</glyph>
<glyph name="Ccedilla" format="1">
  <advance width="1351"/>
  <unicode hex="00C7"/>
  <outline>
    <contour>
      <point x="841" y="-92" type="line"/>
      <point x="887" y="-132"/>
      <point x="949" y="-193"/>
      <point x="949" y="-275" type="curve" smooth="yes"/>
      <point x="949" y="-371"/>
      <point x="847" y="-432"/>
      <point x="706" y="-474" type="curve"/>
      <point x="682" y="-402" type="line"/>
      <point x="752" y="-378"/>
      <point x="787" y="-337"/>
      <point x="787" y="-301" type="curve" smooth="yes"/>
      <point x="787" y="-259"/>
      <point x="742" y="-209"/>
      <point x="698" y="-167" type="curve"/>
      <point x="793" y="-30" type="line"/>
      <point x="779" y="-30" type="line" smooth="yes"/>
      <point x="406" y="-30"/>
      <point x="60" y="231"/>
      <point x="60" y="717" type="curve" smooth="yes"/>
      <point x="60" y="1076"/>
      <point x="287" y="1544"/>
      <point x="843" y="1544" type="curve" smooth="yes"/>
      <point x="1004" y="1544"/>
      <point x="1167" y="1510"/>
      <point x="1283" y="1422" type="curve"/>
      <point x="1245" y="1018" type="line"/>
      <point x="1138" y="1034" type="line"/>
      <point x="1088" y="1301" type="line"/>
      <point x="1032" y="1373"/>
      <point x="930" y="1428"/>
      <point x="773" y="1428" type="curve" smooth="yes"/>
      <point x="520" y="1428"/>
      <point x="321" y="1193"/>
      <point x="321" y="801" type="curve" smooth="yes"/>
      <point x="321" y="365"/>
      <point x="584" y="135"/>
      <point x="873" y="135" type="curve" smooth="yes"/>
      <point x="1036" y="135"/>
      <point x="1193" y="221"/>
      <point x="1297" y="317" type="curve"/>
      <point x="1341" y="225" type="line"/>
      <point x="1259" y="126"/>
      <point x="1093" y="11"/>
      <point x="890" y="-21" type="curve"/>
    </contour>
  </outline>
</glyph>
<glyph name="Eacute" format="1">
  <advance width="1307"/>
  <unicode hex="00C9"/>
  <outline>
    <contour>
      <point x="883" y="2032" type="line"/>
      <point x="660" y="1646" type="line"/>
      <point x="598" y="1685" type="line"/>
      <point x="747" y="2080" type="line"/>
    </contour>
    <contour>
      <point x="42" y="1512" type="line"/>
      <point x="1253" y="1512" type="line"/>
      <point x="1215" y="1124" type="line"/>
      <point x="1110" y="1140" type="line"/>
      <point x="1060" y="1401" type="line"/>
      <point x="486" y="1401" type="line"/>
      <point x="486" y="823" type="line"/>
      <point x="839" y="823" type="line"/>
      <point x="891" y="968" type="line"/>
      <point x="1006" y="984" type="line"/>
      <point x="966" y="512" type="line"/>
      <point x="861" y="496" type="line"/>
      <point x="821" y="709" type="line"/>
      <point x="486" y="709" type="line"/>
      <point x="486" y="116" type="line"/>
      <point x="1090" y="116" type="line"/>
      <point x="1209" y="396" type="line"/>
      <point x="1309" y="381" type="line"/>
      <point x="1273" y="0" type="line"/>
      <point x="38" y="0" type="line"/>
      <point x="48" y="90" type="line"/>
      <point x="251" y="147" type="line"/>
      <point x="251" y="1369" type="line"/>
      <point x="30" y="1420" type="line"/>
    </contour>
  </outline>
</glyph>
<glyph name="Edieresis" format="1">
  <advance width="1307"/>
  <unicode hex="00CB"/>
  <outline>
    <contour>
      <point x="857" y="1861" type="curve" smooth="yes"/>
      <point x="911" y="1861"/>
      <point x="964" y="1823"/>
      <point x="964" y="1767" type="curve" smooth="yes"/>
      <point x="964" y="1707"/>
      <point x="911" y="1669"/>
      <point x="857" y="1669" type="curve" smooth="yes"/>
      <point x="805" y="1669"/>
      <point x="755" y="1707"/>
      <point x="755" y="1767" type="curve" smooth="yes"/>
      <point x="755" y="1825"/>
      <point x="807" y="1861"/>
    </contour>
    <contour>
      <point x="532" y="1861" type="curve" smooth="yes"/>
      <point x="586" y="1861"/>
      <point x="636" y="1823"/>
      <point x="636" y="1767" type="curve" smooth="yes"/>
      <point x="636" y="1707"/>
      <point x="586" y="1669"/>
      <point x="532" y="1669" type="curve" smooth="yes"/>
      <point x="480" y="1669"/>
      <point x="430" y="1707"/>
      <point x="430" y="1767" type="curve" smooth="yes"/>
      <point x="430" y="1825"/>
      <point x="482" y="1861"/>
    </contour>
    <contour>
      <point x="42" y="1512" type="line"/>
      <point x="1253" y="1512" type="line"/>
      <point x="1215" y="1124" type="line"/>
      <point x="1110" y="1140" type="line"/>
      <point x="1060" y="1401" type="line"/>
      <point x="486" y="1401" type="line"/>
      <point x="486" y="823" type="line"/>
      <point x="839" y="823" type="line"/>
      <point x="891" y="968" type="line"/>
      <point x="1006" y="984" type="line"/>
      <point x="966" y="512" type="line"/>
      <point x="861" y="496" type="line"/>
      <point x="821" y="709" type="line"/>
      <point x="486" y="709" type="line"/>
      <point x="486" y="116" type="line"/>
      <point x="1090" y="116" type="line"/>
      <point x="1209" y="396" type="line"/>
      <point x="1309" y="381" type="line"/>
      <point x="1273" y="0" type="line"/>
      <point x="38" y="0" type="line"/>
      <point x="48" y="90" type="line"/>
      <point x="251" y="147" type="line"/>
      <point x="251" y="1369" type="line"/>
      <point x="30" y="1420" type="line"/>
    </contour>
  </outline>
</glyph>
<glyph name="Igrave" format="1">
  <advance width="730"/>
  <unicode hex="00CC"/>
  <outline>
    <contour>
      <point x="131" y="2024" type="line"/>
      <point x="271" y="2070" type="line"/>
      <point x="432" y="1664" type="line"/>
      <point x="362" y="1622" type="line"/>
    </contour>
    <contour>
      <point x="695" y="0" type="line"/>
      <point x="38" y="0" type="line"/>
      <point x="48" y="90" type="line"/>
      <point x="251" y="147" type="line"/>
      <point x="251" y="1369" type="line"/>
      <point x="30" y="1420" type="line"/>
      <point x="42" y="1512" type="line"/>
      <point x="705" y="1512" type="line"/>
      <point x="693" y="1420" type="line"/>
      <point x="486" y="1373" type="line"/>
      <point x="486" y="139" type="line"/>
      <point x="707" y="98" type="line"/>
    </contour>
  </outline>
</glyph>
<glyph name="Iacute" format="1">
  <advance width="730"/>
  <unicode hex="00CD"/>
  <outline>
    <contour>
      <point x="606" y="2032" type="line"/>
      <point x="383" y="1646" type="line"/>
      <point x="321" y="1685" type="line"/>
      <point x="470" y="2080" type="line"/>
    </contour>
    <contour>
      <point x="695" y="0" type="line"/>
      <point x="38" y="0" type="line"/>
      <point x="48" y="90" type="line"/>
      <point x="251" y="147" type="line"/>
      <point x="251" y="1369" type="line"/>
      <point x="30" y="1420" type="line"/>
      <point x="42" y="1512" type="line"/>
      <point x="705" y="1512" type="line"/>
      <point x="693" y="1420" type="line"/>
      <point x="486" y="1373" type="line"/>
      <point x="486" y="139" type="line"/>
      <point x="707" y="98" type="line"/>
    </contour>
  </outline>
</glyph>
<glyph name="Icircumflex" format="1">
  <advance width="730"/>
  <unicode hex="00CE"/>
  <outline>
    <contour>
      <point x="400" y="1928" type="line"/>
      <point x="616" y="1703" type="line"/>
      <point x="556" y="1658" type="line"/>
      <point x="357" y="1791" type="line"/>
      <point x="345" y="1791" type="line"/>
      <point x="175" y="1656" type="line"/>
      <point x="129" y="1693" type="line"/>
      <point x="333" y="1911" type="line"/>
    </contour>
    <contour>
      <point x="695" y="0" type="line"/>
      <point x="38" y="0" type="line"/>
      <point x="48" y="90" type="line"/>
      <point x="251" y="147" type="line"/>
      <point x="251" y="1369" type="line"/>
      <point x="30" y="1420" type="line"/>
      <point x="42" y="1512" type="line"/>
      <point x="705" y="1512" type="line"/>
      <point x="693" y="1420" type="line"/>
      <point x="486" y="1373" type="line"/>
      <point x="486" y="139" type="line"/>
      <point x="707" y="98" type="line"/>
    </contour>
  </outline>
</glyph>
<glyph name="Idieresis" format="1">
  <advance width="730"/>
  <unicode hex="00CF"/>
  <outline>
    <contour>
      <point x="530" y="1861" type="curve" smooth="yes"/>
      <point x="584" y="1861"/>
      <point x="637" y="1823"/>
      <point x="637" y="1767" type="curve" smooth="yes"/>
      <point x="637" y="1707"/>
      <point x="584" y="1669"/>
      <point x="530" y="1669" type="curve" smooth="yes"/>
      <point x="478" y="1669"/>
      <point x="428" y="1707"/>
      <point x="428" y="1767" type="curve" smooth="yes"/>
      <point x="428" y="1825"/>
      <point x="480" y="1861"/>
    </contour>
    <contour>
      <point x="205" y="1861" type="curve" smooth="yes"/>
      <point x="259" y="1861"/>
      <point x="309" y="1823"/>
      <point x="309" y="1767" type="curve" smooth="yes"/>
      <point x="309" y="1707"/>
      <point x="259" y="1669"/>
      <point x="205" y="1669" type="curve" smooth="yes"/>
      <point x="153" y="1669"/>
      <point x="103" y="1707"/>
      <point x="103" y="1767" type="curve" smooth="yes"/>
      <point x="103" y="1825"/>
      <point x="155" y="1861"/>
    </contour>
    <contour>
      <point x="695" y="0" type="line"/>
      <point x="38" y="0" type="line"/>
      <point x="48" y="90" type="line"/>
      <point x="251" y="147" type="line"/>
      <point x="251" y="1369" type="line"/>
      <point x="30" y="1420" type="line"/>
      <point x="42" y="1512" type="line"/>
      <point x="705" y="1512" type="line"/>
      <point x="693" y="1420" type="line"/>
      <point x="486" y="1373" type="line"/>
      <point x="486" y="139" type="line"/>
      <point x="707" y="98" type="line"/>
    </contour>
  </outline>
</glyph>
<glyph name="Ntilde" format="1">
  <advance width="1626"/>
  <unicode hex="00D1"/>
  <outline>
    <contour>
      <point x="510" y="1683" type="line"/>
      <point x="510" y="1683"/>
      <point x="550" y="1856"/>
      <point x="658" y="1856" type="curve" smooth="yes"/>
      <point x="663" y="1856"/>
      <point x="669" y="1856"/>
      <point x="674" y="1855" type="curve" smooth="yes"/>
      <point x="945" y="1819" type="line" smooth="yes"/>
      <point x="950" y="1819" type="line" smooth="yes"/>
      <point x="981" y="1819"/>
      <point x="1018" y="1869"/>
      <point x="1018" y="1869" type="curve"/>
      <point x="1076" y="1867" type="line"/>
      <point x="1076" y="1867"/>
      <point x="1031" y="1692"/>
      <point x="918" y="1692" type="curve" smooth="yes"/>
      <point x="913" y="1692"/>
      <point x="908" y="1692"/>
      <point x="903" y="1693" type="curve" smooth="yes"/>
      <point x="632" y="1731" type="line" smooth="yes"/>
      <point x="629" y="1731" type="line" smooth="yes"/>
      <point x="594" y="1731"/>
      <point x="556" y="1673"/>
      <point x="556" y="1673" type="curve"/>
    </contour>
    <contour>
      <point x="1213" y="-36" type="line"/>
      <point x="406" y="1169" type="line"/>
      <point x="406" y="139" type="line"/>
      <point x="628" y="98" type="line"/>
      <point x="616" y="0" type="line"/>
      <point x="38" y="0" type="line"/>
      <point x="48" y="90" type="line"/>
      <point x="251" y="147" type="line"/>
      <point x="251" y="1359" type="line"/>
      <point x="30" y="1420" type="line"/>
      <point x="42" y="1512" type="line"/>
      <point x="470" y="1512" type="line"/>
      <point x="1251" y="331" type="line"/>
      <point x="1251" y="1369" type="line"/>
      <point x="1026" y="1420" type="line"/>
      <point x="1040" y="1512" type="line"/>
      <point x="1618" y="1512" type="line"/>
      <point x="1602" y="1420" type="line"/>
      <point x="1399" y="1373" type="line"/>
      <point x="1399" y="2" type="line"/>
    </contour>
  </outline>
</glyph>
<glyph name="Ograve" format="1">
  <advance width="1608"/>
  <unicode hex="00D2"/>
  <outline>
    <contour>
      <point x="627" y="2024" type="line"/>
      <point x="767" y="2070" type="line"/>
      <point x="928" y="1664" type="line"/>
      <point x="858" y="1622" type="line"/>
    </contour>
    <contour>
      <point x="787" y="1430" type="curve" smooth="yes"/>
      <point x="422" y="1430"/>
      <point x="331" y="1140"/>
      <point x="331" y="823" type="curve" smooth="yes"/>
      <point x="331" y="466"/>
      <point x="470" y="96"/>
      <point x="821" y="96" type="curve" smooth="yes"/>
      <point x="1190" y="96"/>
      <point x="1277" y="402"/>
      <point x="1277" y="697" type="curve" smooth="yes"/>
      <point x="1277" y="1042"/>
      <point x="1136" y="1430"/>
    </contour>
    <contour>
      <point x="1548" y="753" type="curve" smooth="yes"/>
      <point x="1548" y="333"/>
      <point x="1267" y="-32"/>
      <point x="761" y="-32" type="curve" smooth="yes"/>
      <point x="341" y="-32"/>
      <point x="60" y="313"/>
      <point x="60" y="753" type="curve" smooth="yes"/>
      <point x="60" y="1221"/>
      <point x="361" y="1548"/>
      <point x="845" y="1548" type="curve" smooth="yes"/>
      <point x="1285" y="1548"/>
      <point x="1548" y="1179"/>
    </contour>
  </outline>
</glyph>
<glyph name="Ocircumflex" format="1">
  <advance width="1608"/>
  <unicode hex="00D4"/>
  <outline>
    <contour>
      <point x="846" y="1928" type="line"/>
      <point x="1062" y="1703" type="line"/>
      <point x="1002" y="1658" type="line"/>
      <point x="803" y="1791" type="line"/>
      <point x="791" y="1791" type="line"/>
      <point x="621" y="1656" type="line"/>
      <point x="575" y="1693" type="line"/>
      <point x="779" y="1911" type="line"/>
    </contour>
    <contour>
      <point x="787" y="1430" type="curve" smooth="yes"/>
      <point x="422" y="1430"/>
      <point x="331" y="1140"/>
      <point x="331" y="823" type="curve" smooth="yes"/>
      <point x="331" y="466"/>
      <point x="470" y="96"/>
      <point x="821" y="96" type="curve" smooth="yes"/>
      <point x="1190" y="96"/>
      <point x="1277" y="402"/>
      <point x="1277" y="697" type="curve" smooth="yes"/>
      <point x="1277" y="1042"/>
      <point x="1136" y="1430"/>
    </contour>
    <contour>
      <point x="1548" y="753" type="curve" smooth="yes"/>
      <point x="1548" y="333"/>
      <point x="1267" y="-32"/>
      <point x="761" y="-32" type="curve" smooth="yes"/>
      <point x="341" y="-32"/>
      <point x="60" y="313"/>
      <point x="60" y="753" type="curve" smooth="yes"/>
      <point x="60" y="1221"/>
      <point x="361" y="1548"/>
      <point x="845" y="1548" type="curve" smooth="yes"/>
      <point x="1285" y="1548"/>
      <point x="1548" y="1179"/>
    </contour>
  </outline>
</glyph>
<glyph name="Otilde" format="1">
  <advance width="1608"/>
  <unicode hex="00D5"/>
  <outline>
    <contour>
      <point x="530" y="1683" type="line"/>
      <point x="530" y="1683"/>
      <point x="570" y="1856"/>
      <point x="678" y="1856" type="curve" smooth="yes"/>
      <point x="683" y="1856"/>
      <point x="689" y="1856"/>
      <point x="694" y="1855" type="curve" smooth="yes"/>
      <point x="965" y="1819" type="line" smooth="yes"/>
      <point x="970" y="1819" type="line" smooth="yes"/>
      <point x="1001" y="1819"/>
      <point x="1038" y="1869"/>
      <point x="1038" y="1869" type="curve"/>
      <point x="1096" y="1867" type="line"/>
      <point x="1096" y="1867"/>
      <point x="1051" y="1692"/>
      <point x="938" y="1692" type="curve" smooth="yes"/>
      <point x="933" y="1692"/>
      <point x="928" y="1692"/>
      <point x="923" y="1693" type="curve" smooth="yes"/>
      <point x="652" y="1731" type="line" smooth="yes"/>
      <point x="649" y="1731" type="line" smooth="yes"/>
      <point x="614" y="1731"/>
      <point x="576" y="1673"/>
      <point x="576" y="1673" type="curve"/>
    </contour>
    <contour>
      <point x="787" y="1430" type="curve" smooth="yes"/>
      <point x="422" y="1430"/>
      <point x="331" y="1140"/>
      <point x="331" y="823" type="curve" smooth="yes"/>
      <point x="331" y="466"/>
      <point x="470" y="96"/>
      <point x="821" y="96" type="curve" smooth="yes"/>
      <point x="1190" y="96"/>
      <point x="1277" y="402"/>
      <point x="1277" y="697" type="curve" smooth="yes"/>
      <point x="1277" y="1042"/>
      <point x="1136" y="1430"/>
    </contour>
    <contour>
      <point x="1548" y="753" type="curve" smooth="yes"/>
      <point x="1548" y="333"/>
      <point x="1267" y="-32"/>
      <point x="761" y="-32" type="curve" smooth="yes"/>
      <point x="341" y="-32"/>
      <point x="60" y="313"/>
      <point x="60" y="753" type="curve" smooth="yes"/>
      <point x="60" y="1221"/>
      <point x="361" y="1548"/>
      <point x="845" y="1548" type="curve" smooth="yes"/>
      <point x="1285" y="1548"/>
      <point x="1548" y="1179"/>
    </contour>
  </outline>
</glyph>
<glyph name="Odieresis" format="1">
  <advance width="1608"/>
  <unicode hex="00D6"/>
  <outline>
    <contour>
      <point x="976" y="1861" type="curve" smooth="yes"/>
      <point x="1030" y="1861"/>
      <point x="1083" y="1823"/>
      <point x="1083" y="1767" type="curve" smooth="yes"/>
      <point x="1083" y="1707"/>
      <point x="1030" y="1669"/>
      <point x="976" y="1669" type="curve" smooth="yes"/>
      <point x="924" y="1669"/>
      <point x="874" y="1707"/>
      <point x="874" y="1767" type="curve" smooth="yes"/>
      <point x="874" y="1825"/>
      <point x="926" y="1861"/>
    </contour>
    <contour>
      <point x="651" y="1861" type="curve" smooth="yes"/>
      <point x="705" y="1861"/>
      <point x="755" y="1823"/>
      <point x="755" y="1767" type="curve" smooth="yes"/>
      <point x="755" y="1707"/>
      <point x="705" y="1669"/>
      <point x="651" y="1669" type="curve" smooth="yes"/>
      <point x="599" y="1669"/>
      <point x="549" y="1707"/>
      <point x="549" y="1767" type="curve" smooth="yes"/>
      <point x="549" y="1825"/>
      <point x="601" y="1861"/>
    </contour>
    <contour>
      <point x="787" y="1430" type="curve" smooth="yes"/>
      <point x="422" y="1430"/>
      <point x="331" y="1140"/>
      <point x="331" y="823" type="curve" smooth="yes"/>
      <point x="331" y="466"/>
      <point x="470" y="96"/>
      <point x="821" y="96" type="curve" smooth="yes"/>
      <point x="1190" y="96"/>
      <point x="1277" y="402"/>
      <point x="1277" y="697" type="curve" smooth="yes"/>
      <point x="1277" y="1042"/>
      <point x="1136" y="1430"/>
    </contour>
    <contour>
      <point x="1548" y="753" type="curve" smooth="yes"/>
      <point x="1548" y="333"/>
      <point x="1267" y="-32"/>
      <point x="761" y="-32" type="curve" smooth="yes"/>
      <point x="341" y="-32"/>
      <point x="60" y="313"/>
      <point x="60" y="753" type="curve" smooth="yes"/>
      <point x="60" y="1221"/>
      <point x="361" y="1548"/>
      <point x="845" y="1548" type="curve" smooth="yes"/>
      <point x="1285" y="1548"/>
      <point x="1548" y="1179"/>
    </contour>
  </outline>
</glyph>
<glyph name="multiply" format="1">
  <advance width="692"/>
  <unicode hex="00D7"/>
  <outline>
    <contour>
      <point x="345" y="472" type="line"/>
      <point x="145" y="277" type="line"/>
      <point x="64" y="377" type="line"/>
      <point x="253" y="562" type="line"/>
      <point x="64" y="753" type="line"/>
      <point x="165" y="833" type="line"/>
      <point x="351" y="647" type="line"/>
      <point x="552" y="841" type="line"/>
      <point x="632" y="739" type="line"/>
      <point x="442" y="556" type="line"/>
      <point x="634" y="361" type="line"/>
      <point x="534" y="281" type="line"/>
    </contour>
  </outline>
</glyph>
<glyph name="Oslash" format="1">
  <advance width="1608"/>
  <unicode hex="00D8"/>
  <outline>
    <contour>
      <point x="422" y="162" type="line"/>
      <point x="472" y="191" type="line"/>
      <point x="1111" y="1386" type="line"/>
      <point x="1101" y="1432" type="line"/>
      <point x="1183" y="1586" type="line"/>
      <point x="1367" y="1596" type="line"/>
      <point x="1250" y="1379" type="line"/>
      <point x="1187" y="1326" type="line"/>
      <point x="526" y="97" type="line"/>
      <point x="543" y="63" type="line"/>
      <point x="442" y="-125" type="line"/>
      <point x="263" y="-135" type="line"/>
    </contour>
    <component base="O"/>
    <contour>
      <point x="804" y="1512" type="move" name="top"/>
    </contour>
  </outline>
</glyph>
<glyph name="Ucircumflex" format="1">
  <advance width="1664"/>
  <unicode hex="00DB"/>
  <outline>
    <contour>
      <point x="906" y="1928" type="line"/>
      <point x="1122" y="1703" type="line"/>
      <point x="1062" y="1658" type="line"/>
      <point x="863" y="1791" type="line"/>
      <point x="851" y="1791" type="line"/>
      <point x="681" y="1656" type="line"/>
      <point x="635" y="1693" type="line"/>
      <point x="839" y="1911" type="line"/>
    </contour>
    <contour>
      <point x="891" y="129" type="curve" smooth="yes"/>
      <point x="1136" y="129"/>
      <point x="1286" y="269"/>
      <point x="1287" y="586" type="curve" smooth="yes"/>
      <point x="1289" y="1369" type="line"/>
      <point x="1068" y="1420" type="line"/>
      <point x="1080" y="1512" type="line"/>
      <point x="1662" y="1512" type="line"/>
      <point x="1648" y="1420" type="line"/>
      <point x="1446" y="1373" type="line"/>
      <point x="1440" y="626" type="line" smooth="yes"/>
      <point x="1436" y="188"/>
      <point x="1253" y="-32"/>
      <point x="831" y="-32" type="curve" smooth="yes"/>
      <point x="550" y="-32"/>
      <point x="235" y="58"/>
      <point x="235" y="570" type="curve" smooth="yes"/>
      <point x="235" y="1369" type="line"/>
      <point x="10" y="1420" type="line"/>
      <point x="26" y="1512" type="line"/>
      <point x="685" y="1512" type="line"/>
      <point x="673" y="1420" type="line"/>
      <point x="468" y="1373" type="line"/>
      <point x="468" y="620" type="line" smooth="yes"/>
      <point x="468" y="273"/>
      <point x="642" y="129"/>
    </contour>
  </outline>
</glyph>
<glyph name="Udieresis" format="1">
  <advance width="1664"/>
  <unicode hex="00DC"/>
  <outline>
    <contour>
      <point x="1036" y="1861" type="curve" smooth="yes"/>
      <point x="1090" y="1861"/>
      <point x="1143" y="1823"/>
      <point x="1143" y="1767" type="curve" smooth="yes"/>
      <point x="1143" y="1707"/>
      <point x="1090" y="1669"/>
      <point x="1036" y="1669" type="curve" smooth="yes"/>
      <point x="984" y="1669"/>
      <point x="934" y="1707"/>
      <point x="934" y="1767" type="curve" smooth="yes"/>
      <point x="934" y="1825"/>
      <point x="986" y="1861"/>
    </contour>
    <contour>
      <point x="711" y="1861" type="curve" smooth="yes"/>
      <point x="765" y="1861"/>
      <point x="815" y="1823"/>
      <point x="815" y="1767" type="curve" smooth="yes"/>
      <point x="815" y="1707"/>
      <point x="765" y="1669"/>
      <point x="711" y="1669" type="curve" smooth="yes"/>
      <point x="659" y="1669"/>
      <point x="609" y="1707"/>
      <point x="609" y="1767" type="curve" smooth="yes"/>
      <point x="609" y="1825"/>
      <point x="661" y="1861"/>
    </contour>
    <contour>
      <point x="891" y="129" type="curve" smooth="yes"/>
      <point x="1136" y="129"/>
      <point x="1286" y="269"/>
      <point x="1287" y="586" type="curve" smooth="yes"/>
      <point x="1289" y="1369" type="line"/>
      <point x="1068" y="1420" type="line"/>
      <point x="1080" y="1512" type="line"/>
      <point x="1662" y="1512" type="line"/>
      <point x="1648" y="1420" type="line"/>
      <point x="1446" y="1373" type="line"/>
      <point x="1440" y="626" type="line" smooth="yes"/>
      <point x="1436" y="188"/>
      <point x="1253" y="-32"/>
      <point x="831" y="-32" type="curve" smooth="yes"/>
      <point x="550" y="-32"/>
      <point x="235" y="58"/>
      <point x="235" y="570" type="curve" smooth="yes"/>
      <point x="235" y="1369" type="line"/>
      <point x="10" y="1420" type="line"/>
      <point x="26" y="1512" type="line"/>
      <point x="685" y="1512" type="line"/>
      <point x="673" y="1420" type="line"/>
      <point x="468" y="1373" type="line"/>
      <point x="468" y="620" type="line" smooth="yes"/>
      <point x="468" y="273"/>
      <point x="642" y="129"/>
    </contour>
  </outline>
</glyph>
<glyph name="Thorn" format="1">
  <advance width="1236"/>
  <unicode hex="00DE"/>
  <outline>
    <contour>
      <point x="245" y="145" type="line"/>
      <point x="245" y="1369" type="line"/>
      <point x="24" y="1420" type="line"/>
      <point x="36" y="1512" type="line"/>
      <point x="697" y="1512" type="line"/>
      <point x="685" y="1420" type="line"/>
      <point x="478" y="1373" type="line"/>
      <point x="478" y="1241" type="line"/>
      <point x="528" y="1243"/>
      <point x="578" y="1245"/>
      <point x="628" y="1245" type="curve" smooth="yes"/>
      <point x="945" y="1245"/>
      <point x="1237" y="1158"/>
      <point x="1237" y="803" type="curve" smooth="yes"/>
      <point x="1237" y="514"/>
      <point x="992" y="315"/>
      <point x="697" y="315" type="curve" smooth="yes"/>
      <point x="653" y="315"/>
      <point x="606" y="317"/>
      <point x="556" y="323" type="curve"/>
      <point x="546" y="353"/>
      <point x="536" y="378"/>
      <point x="536" y="426" type="curve"/>
      <point x="558" y="424"/>
      <point x="578" y="426"/>
      <point x="598" y="426" type="curve" smooth="yes"/>
      <point x="859" y="426"/>
      <point x="986" y="542"/>
      <point x="986" y="759" type="curve" smooth="yes"/>
      <point x="986" y="966"/>
      <point x="871" y="1126"/>
      <point x="606" y="1126" type="curve" smooth="yes"/>
      <point x="556" y="1126"/>
      <point x="478" y="1118"/>
      <point x="478" y="1118" type="curve"/>
      <point x="478" y="147" type="line"/>
      <point x="765" y="100" type="line"/>
      <point x="749" y="-2" type="line"/>
      <point x="28" y="-2" type="line"/>
      <point x="40" y="88" type="line"/>
    </contour>
  </outline>
</glyph>
<glyph name="germandbls" format="1">
  <advance width="1397"/>
  <unicode hex="00DF"/>
  <outline>
    <contour>
      <point x="452" y="0" type="line"/>
      <point x="48" y="0" type="line"/>
      <point x="62" y="88" type="line"/>
      <point x="247" y="141" type="line"/>
      <point x="247" y="954" type="line"/>
      <point x="70" y="954" type="line"/>
      <point x="82" y="1032" type="line"/>
      <point x="249" y="1060" type="line"/>
      <point x="267" y="1329"/>
      <point x="458" y="1588"/>
      <point x="737" y="1588" type="curve" smooth="yes"/>
      <point x="934" y="1588"/>
      <point x="1060" y="1452"/>
      <point x="1060" y="1281" type="curve" smooth="yes"/>
      <point x="1060" y="1042"/>
      <point x="799" y="978"/>
      <point x="799" y="831" type="curve" smooth="yes"/>
      <point x="799" y="622"/>
      <point x="1339" y="604"/>
      <point x="1339" y="271" type="curve" smooth="yes"/>
      <point x="1339" y="90"/>
      <point x="1153" y="-38"/>
      <point x="966" y="-38" type="curve" smooth="yes"/>
      <point x="749" y="-38"/>
      <point x="612" y="63"/>
      <point x="612" y="173" type="curve" smooth="yes"/>
      <point x="612" y="277"/>
      <point x="683" y="329"/>
      <point x="771" y="335" type="curve"/>
      <point x="809" y="176"/>
      <point x="912" y="82"/>
      <point x="1004" y="82" type="curve" smooth="yes"/>
      <point x="1090" y="82"/>
      <point x="1163" y="103"/>
      <point x="1163" y="203" type="curve" smooth="yes"/>
      <point x="1163" y="374"/>
      <point x="643" y="420"/>
      <point x="643" y="747" type="curve" smooth="yes"/>
      <point x="643" y="970"/>
      <point x="871" y="1036"/>
      <point x="871" y="1209" type="curve" smooth="yes"/>
      <point x="871" y="1350"/>
      <point x="786" y="1456"/>
      <point x="649" y="1456" type="curve" smooth="yes"/>
      <point x="527" y="1456"/>
      <point x="450" y="1365"/>
      <point x="450" y="1106" type="curve" smooth="yes"/>
    </contour>
  </outline>
</glyph>
<glyph name="atilde" format="1">
  <advance width="1054"/>
  <unicode hex="00E3"/>
  <outline>
    <contour>
      <point x="235" y="1235" type="line"/>
      <point x="235" y="1235"/>
      <point x="275" y="1408"/>
      <point x="383" y="1408" type="curve" smooth="yes"/>
      <point x="388" y="1408"/>
      <point x="394" y="1408"/>
      <point x="399" y="1407" type="curve" smooth="yes"/>
      <point x="670" y="1371" type="line" smooth="yes"/>
      <point x="675" y="1371" type="line" smooth="yes"/>
      <point x="706" y="1371"/>
      <point x="743" y="1421"/>
      <point x="743" y="1421" type="curve"/>
      <point x="801" y="1419" type="line"/>
      <point x="801" y="1419"/>
      <point x="756" y="1244"/>
      <point x="643" y="1244" type="curve" smooth="yes"/>
      <point x="638" y="1244"/>
      <point x="633" y="1244"/>
      <point x="628" y="1245" type="curve" smooth="yes"/>
      <point x="357" y="1283" type="line" smooth="yes"/>
      <point x="354" y="1283" type="line" smooth="yes"/>
      <point x="319" y="1283"/>
      <point x="281" y="1225"/>
      <point x="281" y="1225" type="curve"/>
    </contour>
    <contour>
      <point x="641" y="520" type="line"/>
      <point x="376" y="468"/>
      <point x="293" y="377"/>
      <point x="293" y="261" type="curve" smooth="yes"/>
      <point x="293" y="199"/>
      <point x="340" y="120"/>
      <point x="430" y="120" type="curve" smooth="yes"/>
      <point x="514" y="120"/>
      <point x="601" y="183"/>
      <point x="641" y="229" type="curve"/>
    </contour>
    <contour>
      <point x="853" y="-22" type="curve" smooth="yes"/>
      <point x="712" y="-22"/>
      <point x="665" y="69"/>
      <point x="665" y="141" type="curve" smooth="yes"/>
      <point x="665" y="159" type="line"/>
      <point x="651" y="159" type="line"/>
      <point x="619" y="95"/>
      <point x="518" y="-30"/>
      <point x="319" y="-30" type="curve" smooth="yes"/>
      <point x="190" y="-30"/>
      <point x="80" y="56"/>
      <point x="80" y="205" type="curve" smooth="yes"/>
      <point x="80" y="384"/>
      <point x="244" y="562"/>
      <point x="641" y="590" type="curve"/>
      <point x="641" y="657" type="line" smooth="yes"/>
      <point x="641" y="822"/>
      <point x="595" y="978"/>
      <point x="426" y="978" type="curve" smooth="yes"/>
      <point x="310" y="978"/>
      <point x="309" y="870"/>
      <point x="291" y="719" type="curve"/>
      <point x="227" y="719"/>
      <point x="122" y="725"/>
      <point x="122" y="845" type="curve" smooth="yes"/>
      <point x="122" y="978"/>
      <point x="369" y="1096"/>
      <point x="538" y="1096" type="curve" smooth="yes"/>
      <point x="755" y="1096"/>
      <point x="839" y="978"/>
      <point x="839" y="721" type="curve" smooth="yes"/>
      <point x="839" y="279" type="line" smooth="yes"/>
      <point x="839" y="167"/>
      <point x="860" y="135"/>
      <point x="974" y="116" type="curve" smooth="yes"/>
      <point x="1034" y="106" type="line"/>
      <point x="1020" y="2" type="line"/>
      <point x="962" y="-6"/>
      <point x="925" y="-22"/>
    </contour>
  </outline>
</glyph>
<glyph name="aring" format="1">
  <advance width="1054"/>
  <unicode hex="00E5"/>
  <outline>
    <contour>
      <point x="641" y="520" type="line"/>
      <point x="376" y="468"/>
      <point x="293" y="377"/>
      <point x="293" y="261" type="curve" smooth="yes"/>
      <point x="293" y="199"/>
      <point x="340" y="120"/>
      <point x="430" y="120" type="curve" smooth="yes"/>
      <point x="514" y="120"/>
      <point x="601" y="183"/>
      <point x="641" y="229" type="curve"/>
    </contour>
    <contour>
      <point x="853" y="-22" type="curve" smooth="yes"/>
      <point x="712" y="-22"/>
      <point x="665" y="69"/>
      <point x="665" y="141" type="curve" smooth="yes"/>
      <point x="665" y="159" type="line"/>
      <point x="651" y="159" type="line"/>
      <point x="619" y="95"/>
      <point x="518" y="-30"/>
      <point x="319" y="-30" type="curve" smooth="yes"/>
      <point x="190" y="-30"/>
      <point x="80" y="56"/>
      <point x="80" y="205" type="curve" smooth="yes"/>
      <point x="80" y="384"/>
      <point x="244" y="562"/>
      <point x="641" y="590" type="curve"/>
      <point x="641" y="657" type="line" smooth="yes"/>
      <point x="641" y="822"/>
      <point x="595" y="978"/>
      <point x="426" y="978" type="curve" smooth="yes"/>
      <point x="310" y="978"/>
      <point x="309" y="870"/>
      <point x="291" y="719" type="curve"/>
      <point x="227" y="719"/>
      <point x="122" y="725"/>
      <point x="122" y="845" type="curve" smooth="yes"/>
      <point x="122" y="978"/>
      <point x="369" y="1096"/>
      <point x="538" y="1096" type="curve" smooth="yes"/>
      <point x="755" y="1096"/>
      <point x="839" y="978"/>
      <point x="839" y="721" type="curve" smooth="yes"/>
      <point x="839" y="279" type="line" smooth="yes"/>
      <point x="839" y="167"/>
      <point x="860" y="135"/>
      <point x="974" y="116" type="curve" smooth="yes"/>
      <point x="1034" y="106" type="line"/>
      <point x="1020" y="2" type="line"/>
      <point x="962" y="-6"/>
      <point x="925" y="-22"/>
    </contour>
    <contour>
      <point x="490" y="1570" type="curve" smooth="yes"/>
      <point x="418" y="1570"/>
      <point x="386" y="1501"/>
      <point x="386" y="1433" type="curve" smooth="yes"/>
      <point x="386" y="1359"/>
      <point x="424" y="1277"/>
      <point x="502" y="1277" type="curve" smooth="yes"/>
      <point x="568" y="1277"/>
      <point x="607" y="1327"/>
      <point x="607" y="1415" type="curve" smooth="yes"/>
      <point x="607" y="1491"/>
      <point x="566" y="1570"/>
    </contour>
    <contour>
      <point x="504" y="1628" type="curve" smooth="yes"/>
      <point x="620" y="1628"/>
      <point x="693" y="1545"/>
      <point x="693" y="1431" type="curve" smooth="yes"/>
      <point x="693" y="1321"/>
      <point x="612" y="1218"/>
      <point x="488" y="1218" type="curve" smooth="yes"/>
      <point x="376" y="1218"/>
      <point x="300" y="1295"/>
      <point x="300" y="1419" type="curve" smooth="yes"/>
      <point x="300" y="1531"/>
      <point x="390" y="1628"/>
    </contour>
  </outline>
</glyph>
<glyph name="ae" format="1">
  <advance width="1533"/>
  <unicode hex="00E6"/>
  <outline>
    <contour>
      <point x="641" y="498" type="line"/>
      <point x="336" y="450"/>
      <point x="293" y="363"/>
      <point x="293" y="247" type="curve" smooth="yes"/>
      <point x="293" y="149"/>
      <point x="342" y="102"/>
      <point x="430" y="102" type="curve" smooth="yes"/>
      <point x="528" y="102"/>
      <point x="641" y="193"/>
      <point x="641" y="295" type="curve" smooth="yes"/>
    </contour>
    <contour>
      <point x="839" y="616" type="curve"/>
      <point x="1221" y="661" type="line"/>
      <point x="1227" y="681"/>
      <point x="1231" y="727"/>
      <point x="1231" y="747" type="curve" smooth="yes"/>
      <point x="1231" y="892"/>
      <point x="1176" y="974"/>
      <point x="1060" y="974" type="curve" smooth="yes"/>
      <point x="962" y="974"/>
      <point x="851" y="853"/>
    </contour>
    <contour>
      <point x="697" y="213" type="curve"/>
      <point x="643" y="52"/>
      <point x="492" y="-30"/>
      <point x="319" y="-30" type="curve" smooth="yes"/>
      <point x="190" y="-30"/>
      <point x="80" y="42"/>
      <point x="80" y="191" type="curve" smooth="yes"/>
      <point x="80" y="370"/>
      <point x="201" y="508"/>
      <point x="641" y="588" type="curve"/>
      <point x="641" y="657" type="line" smooth="yes"/>
      <point x="641" y="822"/>
      <point x="601" y="974"/>
      <point x="440" y="974" type="curve" smooth="yes"/>
      <point x="324" y="974"/>
      <point x="315" y="890"/>
      <point x="297" y="739" type="curve"/>
      <point x="233" y="739"/>
      <point x="131" y="745"/>
      <point x="131" y="865" type="curve" smooth="yes"/>
      <point x="131" y="998"/>
      <point x="369" y="1096"/>
      <point x="538" y="1096" type="curve" smooth="yes"/>
      <point x="675" y="1096"/>
      <point x="749" y="1046"/>
      <point x="783" y="944" type="curve"/>
      <point x="879" y="1040"/>
      <point x="1004" y="1092"/>
      <point x="1120" y="1092" type="curve" smooth="yes"/>
      <point x="1297" y="1092"/>
      <point x="1446" y="964"/>
      <point x="1446" y="707" type="curve" smooth="yes"/>
      <point x="1446" y="669"/>
      <point x="1434" y="584"/>
      <point x="1424" y="542" type="curve"/>
      <point x="839" y="518" type="line"/>
      <point x="849" y="327"/>
      <point x="950" y="104"/>
      <point x="1177" y="104" type="curve" smooth="yes"/>
      <point x="1263" y="104"/>
      <point x="1328" y="121"/>
      <point x="1454" y="189" type="curve"/>
      <point x="1478" y="126" type="line"/>
      <point x="1382" y="26"/>
      <point x="1239" y="-36"/>
      <point x="1078" y="-36" type="curve" smooth="yes"/>
      <point x="939" y="-36"/>
      <point x="801" y="32"/>
      <point x="713" y="169" type="curve" smooth="yes"/>
      <point x="707" y="179"/>
      <point x="701" y="195"/>
    </contour>
    <contour>
      <point x="767" y="1064" type="move" name="top"/>
    </contour>
  </outline>
</glyph>
<glyph name="ccedilla" format="1">
  <advance width="953"/>
  <unicode hex="00E7"/>
  <outline>
    <contour>
      <point x="576" y="-92" type="line"/>
      <point x="622" y="-132"/>
      <point x="684" y="-193"/>
      <point x="684" y="-275" type="curve" smooth="yes"/>
      <point x="684" y="-371"/>
      <point x="582" y="-432"/>
      <point x="441" y="-474" type="curve"/>
      <point x="417" y="-402" type="line"/>
      <point x="487" y="-378"/>
      <point x="522" y="-337"/>
      <point x="522" y="-301" type="curve" smooth="yes"/>
      <point x="522" y="-259"/>
      <point x="477" y="-209"/>
      <point x="433" y="-167" type="curve"/>
      <point x="525" y="-35" type="line"/>
      <point x="252" y="-16"/>
      <point x="80" y="227"/>
      <point x="80" y="506" type="curve" smooth="yes"/>
      <point x="80" y="867"/>
      <point x="333" y="1094"/>
      <point x="596" y="1094" type="curve" smooth="yes"/>
      <point x="799" y="1094"/>
      <point x="889" y="1004"/>
      <point x="889" y="908" type="curve" smooth="yes"/>
      <point x="889" y="836"/>
      <point x="837" y="789"/>
      <point x="735" y="781" type="curve"/>
      <point x="701" y="863"/>
      <point x="644" y="980"/>
      <point x="538" y="980" type="curve" smooth="yes"/>
      <point x="393" y="980"/>
      <point x="299" y="835"/>
      <point x="299" y="616" type="curve" smooth="yes"/>
      <point x="299" y="413"/>
      <point x="407" y="109"/>
      <point x="660" y="109" type="curve" smooth="yes"/>
      <point x="780" y="109"/>
      <point x="848" y="149"/>
      <point x="906" y="185" type="curve"/>
      <point x="936" y="114" type="line"/>
      <point x="880" y="45"/>
      <point x="753" y="-19"/>
      <point x="617" y="-33" type="curve"/>
    </contour>
  </outline>
</glyph>
<glyph name="edieresis" format="1">
  <advance width="1003"/>
  <unicode hex="00EB"/>
  <outline>
    <contour>
      <point x="694" y="1413" type="curve" smooth="yes"/>
      <point x="748" y="1413"/>
      <point x="801" y="1375"/>
      <point x="801" y="1319" type="curve" smooth="yes"/>
      <point x="801" y="1259"/>
      <point x="748" y="1221"/>
      <point x="694" y="1221" type="curve" smooth="yes"/>
      <point x="642" y="1221"/>
      <point x="592" y="1259"/>
      <point x="592" y="1319" type="curve" smooth="yes"/>
      <point x="592" y="1377"/>
      <point x="644" y="1413"/>
    </contour>
    <contour>
      <point x="369" y="1413" type="curve" smooth="yes"/>
      <point x="423" y="1413"/>
      <point x="473" y="1375"/>
      <point x="473" y="1319" type="curve" smooth="yes"/>
      <point x="473" y="1259"/>
      <point x="423" y="1221"/>
      <point x="369" y="1221" type="curve" smooth="yes"/>
      <point x="317" y="1221"/>
      <point x="267" y="1259"/>
      <point x="267" y="1319" type="curve" smooth="yes"/>
      <point x="267" y="1377"/>
      <point x="319" y="1413"/>
    </contour>
    <contour>
      <point x="879" y="548" type="curve"/>
      <point x="291" y="542" type="line"/>
      <point x="301" y="351"/>
      <point x="403" y="124"/>
      <point x="630" y="124" type="curve" smooth="yes"/>
      <point x="637" y="124" type="line" smooth="yes"/>
      <point x="719" y="124"/>
      <point x="784" y="125"/>
      <point x="906" y="191" type="curve"/>
      <point x="932" y="126" type="line"/>
      <point x="836" y="26"/>
      <point x="693" y="-36"/>
      <point x="532" y="-36" type="curve" smooth="yes"/>
      <point x="303" y="-36"/>
      <point x="74" y="151"/>
      <point x="74" y="520" type="curve" smooth="yes"/>
      <point x="74" y="885"/>
      <point x="339" y="1092"/>
      <point x="574" y="1092" type="curve" smooth="yes"/>
      <point x="751" y="1092"/>
      <point x="900" y="964"/>
      <point x="900" y="707" type="curve" smooth="yes"/>
      <point x="900" y="669"/>
      <point x="889" y="590"/>
    </contour>
    <contour>
      <point x="293" y="637" type="curve"/>
      <point x="675" y="663" type="line"/>
      <point x="681" y="683"/>
      <point x="683" y="727"/>
      <point x="683" y="747" type="curve" smooth="yes"/>
      <point x="683" y="892"/>
      <point x="630" y="974"/>
      <point x="514" y="974" type="curve" smooth="yes"/>
      <point x="416" y="974"/>
      <point x="305" y="874"/>
    </contour>
  </outline>
</glyph>
<glyph name="iacute" format="1">
  <advance width="696"/>
  <unicode hex="00ED"/>
  <outline>
    <contour>
      <point x="534" y="1614" type="line"/>
      <point x="311" y="1228" type="line"/>
      <point x="249" y="1267" type="line"/>
      <point x="398" y="1662" type="line"/>
    </contour>
    <contour>
      <point x="74" y="96" type="line"/>
      <point x="259" y="141" type="line"/>
      <point x="259" y="889" type="line"/>
      <point x="74" y="956" type="line"/>
      <point x="90" y="1048" type="line"/>
      <point x="432" y="1076" type="line"/>
      <point x="462" y="1046" type="line"/>
      <point x="462" y="141" type="line"/>
      <point x="657" y="98" type="line"/>
      <point x="643" y="0" type="line"/>
      <point x="60" y="0" type="line"/>
    </contour>
  </outline>
</glyph>
<glyph name="icircumflex" format="1">
  <advance width="696"/>
  <unicode hex="00EE"/>
  <outline>
    <contour>
      <point x="378" y="1510" type="line"/>
      <point x="594" y="1285" type="line"/>
      <point x="534" y="1240" type="line"/>
      <point x="335" y="1373" type="line"/>
      <point x="323" y="1373" type="line"/>
      <point x="153" y="1238" type="line"/>
      <point x="107" y="1275" type="line"/>
      <point x="311" y="1493" type="line"/>
    </contour>
    <contour>
      <point x="74" y="96" type="line"/>
      <point x="259" y="141" type="line"/>
      <point x="259" y="889" type="line"/>
      <point x="74" y="956" type="line"/>
      <point x="90" y="1048" type="line"/>
      <point x="432" y="1076" type="line"/>
      <point x="462" y="1046" type="line"/>
      <point x="462" y="141" type="line"/>
      <point x="657" y="98" type="line"/>
      <point x="643" y="0" type="line"/>
      <point x="60" y="0" type="line"/>
    </contour>
  </outline>
</glyph>
<glyph name="idieresis" format="1">
  <advance width="696"/>
  <unicode hex="00EF"/>
  <outline>
    <contour>
      <point x="508" y="1443" type="curve" smooth="yes"/>
      <point x="562" y="1443"/>
      <point x="615" y="1405"/>
      <point x="615" y="1349" type="curve" smooth="yes"/>
      <point x="615" y="1289"/>
      <point x="562" y="1251"/>
      <point x="508" y="1251" type="curve" smooth="yes"/>
      <point x="456" y="1251"/>
      <point x="406" y="1289"/>
      <point x="406" y="1349" type="curve" smooth="yes"/>
      <point x="406" y="1407"/>
      <point x="458" y="1443"/>
    </contour>
    <contour>
      <point x="183" y="1443" type="curve" smooth="yes"/>
      <point x="237" y="1443"/>
      <point x="287" y="1405"/>
      <point x="287" y="1349" type="curve" smooth="yes"/>
      <point x="287" y="1289"/>
      <point x="237" y="1251"/>
      <point x="183" y="1251" type="curve" smooth="yes"/>
      <point x="131" y="1251"/>
      <point x="81" y="1289"/>
      <point x="81" y="1349" type="curve" smooth="yes"/>
      <point x="81" y="1407"/>
      <point x="133" y="1443"/>
    </contour>
    <contour>
      <point x="74" y="96" type="line"/>
      <point x="259" y="141" type="line"/>
      <point x="259" y="889" type="line"/>
      <point x="74" y="956" type="line"/>
      <point x="90" y="1048" type="line"/>
      <point x="432" y="1076" type="line"/>
      <point x="462" y="1046" type="line"/>
      <point x="462" y="141" type="line"/>
      <point x="657" y="98" type="line"/>
      <point x="643" y="0" type="line"/>
      <point x="60" y="0" type="line"/>
    </contour>
  </outline>
</glyph>
